<?xml version="1.0" encoding="utf-8"?>
<svg id="master-artboard" viewBox="0 0 1400 980" version="1.1" xmlns="http://www.w3.org/2000/svg" x="0px" y="0px" width="1400px" height="980px" enable-background="new 0 0 1400 980"><rect id="ee-background" x="0" y="0" width="1400" height="980" style="fill: white; fill-opacity: 0; pointer-events: none;"/>

<g transform="matrix(1, 0, 0, 1, 1.4621554613113403, -4.386436462402344)">
	
		<radialGradient id="SVGID_1_" cx="427.0137" cy="149.7178" r="979.9547" gradientTransform="matrix(0.9886 -0.1503 0.0984 0.6476 -9.8892 116.9245)" gradientUnits="userSpaceOnUse">
		<stop offset="0.3462" style="stop-color:#26184D"/>
		<stop offset="0.6454" style="stop-color:#26174D"/>
		<stop offset="0.7692" style="stop-color:#24154A"/>
		<stop offset="0.8606" style="stop-color:#201045"/>
		<stop offset="0.9355" style="stop-color:#1A083D"/>
		<stop offset="1" style="stop-color:#120033"/>
	</radialGradient>
	
	
	<radialGradient id="SVGID_2_" cx="642.7983" cy="124.1641" r="775.1335" gradientUnits="userSpaceOnUse">
		<stop offset="0.3462" style="stop-color:#26184D"/>
		<stop offset="0.6454" style="stop-color:#26174D"/>
		<stop offset="0.7692" style="stop-color:#24154A"/>
		<stop offset="0.8606" style="stop-color:#201045"/>
		<stop offset="0.9355" style="stop-color:#1A083D"/>
		<stop offset="1" style="stop-color:#120033"/>
	</radialGradient>
	
	
		<radialGradient id="SVGID_3_" cx="467.1162" cy="577.8887" r="705.7614" gradientTransform="matrix(0.9886 -0.1503 0.0984 0.6476 -51.5826 273.8249)" gradientUnits="userSpaceOnUse">
		<stop offset="0.4279" style="stop-color:#FFFCDD"/>
		<stop offset="0.481" style="stop-color:#FFF2D1"/>
		<stop offset="0.5701" style="stop-color:#FFDDB6"/>
		<stop offset="0.6844" style="stop-color:#FBBB8E"/>
		<stop offset="0.8194" style="stop-color:#F68F5F"/>
		<stop offset="0.9702" style="stop-color:#F0542A"/>
		<stop offset="1" style="stop-color:#EF4423"/>
	</radialGradient>
	
	
	
	<radialGradient id="SVGID_4_" cx="722.9492" cy="703.1348" r="836.3142" gradientUnits="userSpaceOnUse">
		<stop offset="0" style="stop-color:#FFFCDD"/>
		<stop offset="0.1671" style="stop-color:#CDC6BE"/>
		<stop offset="0.5396" style="stop-color:#766B84"/>
		<stop offset="1" style="stop-color:#26184D"/>
	</radialGradient>
	
	<path fill="#EF4358" d="M378.323,690.618C186.25,623.351,81.359,642.055,0,724.055V980h1400V664.137&#10;&#9;&#9;C1121.93,929.828,754.199,822.256,378.323,690.618z" style="fill: rgb(82, 82, 82);" transform="matrix(1.0616194009780882, 0, 0, 1.0616194009780882, -86.26717166635314, -69.21762958626744)"/>
	
	
		<radialGradient id="SVGID_5_" cx="953.9385" cy="315.0493" r="597.3931" gradientTransform="matrix(1 0 0 0.6258 0 117.8765)" gradientUnits="userSpaceOnUse">
		<stop offset="0" style="stop-color:#FFFCDD"/>
		<stop offset="0.0598" style="stop-color:#CDC6BE"/>
		<stop offset="0.1523" style="stop-color:#9A909D"/>
		<stop offset="0.25" style="stop-color:#756983"/>
		<stop offset="0.3512" style="stop-color:#5A4F70"/>
		<stop offset="0.4567" style="stop-color:#463B62"/>
		<stop offset="0.568" style="stop-color:#382B59"/>
		<stop offset="0.6877" style="stop-color:#2E2152"/>
		<stop offset="0.8218" style="stop-color:#281A4E"/>
		<stop offset="1" style="stop-color:#26184D"/>
	</radialGradient>
	<path opacity="0.4" fill="url(#SVGID_5_)" d="M907.902,189.995c157.029,4.665,302.457,82.06,326.457,194.06&#10;&#9;&#9;c13.568,63.313,76.5,72.5,165.641,60.219V0H689.713C727.248,113.025,781.678,186.245,907.902,189.995z" transform="matrix(1, 0, 0, 1, 1.4621552520412706, 5.848618107342702)"/>
	
	
	<path opacity="0.2" fill="#FFFCDD" d="M993.43,852.18c-30.664,14.25-60.402,33.33-88.387,56.712&#10;&#9;&#9;c-34.701,28.991-58.127,57.564-68.4,71.108h3.773c10.811-14.043,33.559-41.255,66.623-68.867&#10;&#9;&#9;c43.633-36.44,114.656-81.025,205.209-86.487c43.236-2.607,83.998-9.809,121.158-21.403&#10;&#9;&#9;c35.908-11.205,69.605-26.875,100.158-46.575c23.756-15.318,45.838-33.063,66.436-53.431v-4.491&#10;&#9;&#9;c-75.197,75.368-170.311,115.813-287.932,122.906C1071.699,824.086,1031.783,834.357,993.43,852.18z M1102.305,812.53&#10;&#9;&#9;c-39.357,2.886-78.576,13.871-116.564,32.651c-30.367,15.013-60.02,35.012-88.135,59.441&#10;&#9;&#9;c-35.904,31.198-60.178,61.845-70.176,75.377h3.738c10.627-14.188,34.219-43.418,68.471-73.169&#10;&#9;&#9;c43.846-38.084,114.635-84.839,202.885-91.309c120.955-8.866,220.568-57.693,297.477-145.525v-4.603&#10;&#9;&#9;C1323.291,754.264,1223.598,803.64,1102.305,812.53z M1001.121,859.178c-30.961,13.486-60.785,31.648-88.641,53.981&#10;&#9;&#9;C879.002,940,856.396,966.557,845.895,980h3.816c10.953-13.803,32.881-39.046,64.727-64.564&#10;&#9;&#9;c43.424-34.798,114.68-77.214,207.537-81.666c86.857-4.164,159.17-23.554,221.074-59.276c20.012-11.55,38.949-24.86,56.951-40.041&#10;&#9;&#9;v-4.34c-73.697,62.719-164.426,95.207-278.17,100.661C1080.451,832.758,1039.838,842.314,1001.121,859.178z M1024.195,880.178&#10;&#9;&#9;c-31.852,11.193-61.926,26.597-89.393,45.782c-29.689,20.739-49.916,41.524-60.805,54.04h3.984&#10;&#9;&#9;c11.098-12.501,30.561-32.037,58.539-51.58c42.813-29.906,114.805-65.855,214.635-67.282&#10;&#9;&#9;c88.139-1.259,160.191-12.107,220.277-33.166c10.041-3.52,19.533-7.24,28.566-11.117v-3.481&#10;&#9;&#9;c-58.488,25.333-134.213,43.127-248.887,44.765C1106.701,858.772,1064,866.188,1024.195,880.178z M1008.813,866.177&#10;&#9;&#9;c-31.258,12.723-61.166,29.965-88.893,51.25c-32.234,24.745-54.045,49.339-64.725,62.573h3.865&#10;&#9;&#9;c11.053-13.466,32.178-36.787,62.775-60.262c43.215-33.156,114.705-73.401,209.865-76.846&#10;&#9;&#9;c87.555-3.168,159.785-19.711,220.82-50.573c16.543-8.365,32.297-17.779,47.479-28.406v-3.438&#10;&#9;&#9;c-60.104,42.396-143.082,74.885-268.408,79.42C1089.201,841.429,1047.893,850.271,1008.813,866.177z M1016.502,873.177&#10;&#9;&#9;c-31.553,11.958-61.545,28.281-89.141,48.517c-30.975,22.712-51.996,45.384-62.803,58.307h3.92&#10;&#9;&#9;c11.088-13.019,31.367-34.41,60.656-55.887c43.021-31.546,114.773-69.662,212.293-72.098&#10;&#9;&#9;c88.039-2.199,160.184-15.895,220.557-41.869c13.568-5.838,26.215-12.177,38.016-18.821v-3.382&#10;&#9;&#9;c-62.801,35.808-141.912,58.157-258.646,61.072C1097.951,850.101,1055.945,858.229,1016.502,873.177z M1092.541,803.41&#10;&#9;&#9;c-38.346,3.336-76.867,15.036-114.49,34.775c-30.07,15.775-59.637,36.692-87.881,62.17c-37.135,33.497-62.268,66.27-71.91,79.645&#10;&#9;&#9;h3.707c10.381-14.212,34.822-45.503,70.271-77.471c44.057-39.728,114.613-88.653,200.563-96.131&#10;&#9;&#9;c82.982-7.219,157.6-35.944,221.773-85.378c31.236-24.063,59.766-52.858,85.426-86.143v-4.794&#10;&#9;&#9;C1321.848,733.224,1217.346,792.553,1092.541,803.41z M1082.775,794.29c-37.334,3.787-75.154,16.202-112.414,36.899&#10;&#9;&#9;c-29.77,16.538-59.252,38.372-87.625,64.896c-38.379,35.878-64.406,70.851-73.617,83.914h3.678&#10;&#9;&#9;c10.074-14.113,35.395-47.522,72.043-81.772c44.266-41.371,114.592-92.468,198.238-100.953&#10;&#9;&#9;c82.002-8.318,156.689-39.97,221.992-94.075c35.299-29.248,67.018-64.387,94.93-105.096v-5.269&#10;&#9;&#9;C1320.527,710.923,1210.967,781.286,1082.775,794.29z M1043.701,757.813c-33.277,5.594-68.299,20.868-104.09,45.397&#10;&#9;&#9;c-28.576,19.586-57.713,45.087-86.602,75.796c-44.07,46.848-74.217,91.824-80.215,100.994h3.592&#10;&#9;&#9;c7.912-11.95,37.084-54.586,78.807-98.938c45.125-47.967,114.543-107.773,189.006-120.29&#10;&#9;&#9;c75.785-12.739,154.912-58.494,222.807-128.835c52.26-54.144,97.289-121.951,132.994-199.662v-6.823&#10;&#9;&#9;C1303.434,640.693,1153.594,739.341,1043.701,757.813z M1255.277,612.09c-68.539,74.187-147.15,122.701-221.348,136.605&#10;&#9;&#9;c-32.262,6.047-66.58,22.035-102.004,47.521c-28.277,20.347-57.328,46.764-86.346,78.519&#10;&#9;&#9;c-46.078,50.425-77.555,98.63-81.82,105.265h3.576c6.98-10.71,37.297-56.013,80.492-103.277&#10;&#9;&#9;c45.328-49.597,114.504-111.557,186.654-125.078c74.828-14.023,154.023-62.861,223-137.52&#10;&#9;&#9;c57.012-61.709,105.357-139.206,142.518-227.79v-7.862C1362.621,469.525,1313.486,549.087,1255.277,612.09z M1053.473,766.932&#10;&#9;&#9;c-34.293,5.142-70.016,19.701-106.174,43.272c-28.875,18.824-58.1,43.409-86.859,73.072&#10;&#9;&#9;c-42.451,43.786-71.447,85.985-78.594,96.724h3.611c8.648-12.846,36.803-53.041,77.178-94.677&#10;&#9;&#9;c44.902-46.305,114.537-103.918,191.283-115.425c77.869-11.676,154.846-53.223,222.609-120.148&#10;&#9;&#9;c47.678-47.091,89.41-105.886,123.473-173.413v-6.176C1305.119,662.746,1164.527,750.28,1053.473,766.932z M1063.24,776.05&#10;&#9;&#9;c-35.307,4.69-71.729,18.535-108.256,41.148c-29.174,18.063-58.482,41.731-87.113,70.349&#10;&#9;&#9;c-41.004,40.984-68.951,80.638-76.955,92.453h3.629c9.227-13.457,36.391-51.303,75.49-90.376&#10;&#9;&#9;c44.691-44.659,114.555-100.1,193.6-110.6c78.865-10.477,155.773-49.019,222.41-111.461&#10;&#9;&#9;c34.695-32.511,66.354-71.269,94.096-115.197c6.859-10.864,13.479-22.064,19.859-33.561v-6.22&#10;&#9;&#9;C1318.453,662.233,1197.908,758.161,1063.24,776.05z M1073.01,785.169c-36.32,4.239-73.443,17.369-110.336,39.024&#10;&#9;&#9;c-29.473,17.301-58.869,40.053-87.371,67.624c-39.664,38.368-66.625,75.627-75.297,88.183h3.652&#10;&#9;&#9;c9.695-13.871,35.92-49.46,73.779-86.074c44.479-43.015,114.574-96.283,195.92-105.776&#10;&#9;&#9;c79.857-9.319,156.693-44.855,222.201-102.769c33.643-29.741,64.455-65.406,91.582-106.005c4.383-6.56,8.662-13.271,12.859-20.098&#10;&#9;&#9;v-5.613C1319.383,687.288,1204.482,769.828,1073.01,785.169z"/>
	
	<radialGradient id="SVGID_6_" cx="346.3545" cy="304.1553" r="464.5073" gradientUnits="userSpaceOnUse">
		<stop offset="0" style="stop-color:#FFFCDD"/>
		<stop offset="0.0598" style="stop-color:#CDC6BE"/>
		<stop offset="0.1523" style="stop-color:#9A909D"/>
		<stop offset="0.25" style="stop-color:#756983"/>
		<stop offset="0.3512" style="stop-color:#5A4F70"/>
		<stop offset="0.4567" style="stop-color:#463B62"/>
		<stop offset="0.568" style="stop-color:#382B59"/>
		<stop offset="0.6877" style="stop-color:#2E2152"/>
		<stop offset="0.8218" style="stop-color:#281A4E"/>
		<stop offset="1" style="stop-color:#26184D"/>
	</radialGradient>
	
	
	
</g>
</svg>