<?xml version="1.0" encoding="UTF-8" standalone="no"?>
<svg
   xmlns:dc="http://purl.org/dc/elements/1.1/"
   xmlns:cc="http://creativecommons.org/ns#"
   xmlns:rdf="http://www.w3.org/1999/02/22-rdf-syntax-ns#"
   xmlns:svg="http://www.w3.org/2000/svg"
   xmlns="http://www.w3.org/2000/svg"
   xmlns:sodipodi="http://sodipodi.sourceforge.net/DTD/sodipodi-0.dtd"
   xmlns:inkscape="http://www.inkscape.org/namespaces/inkscape"
   sodipodi:docname="s-5.svg"
   inkscape:version="1.0 (4035a4fb49, 2020-05-01)"
   id="svg8"
   version="1.1"
   viewBox="0 0 210 297"
   height="297mm"
   width="210mm">
  <defs
     id="defs2">
    <filter
       height="1.0000129"
       y="-6.4507591e-06"
       width="1.0000076"
       x="-3.8219558e-06"
       id="filter3078"
       style="color-interpolation-filters:sRGB"
       inkscape:collect="always">
      <feGaussianBlur
         id="feGaussianBlur3080"
         stdDeviation="0.041582131"
         inkscape:collect="always" />
    </filter>
  </defs>
  <sodipodi:namedview
     inkscape:window-maximized="0"
     inkscape:window-y="0"
     inkscape:window-x="96"
     inkscape:window-height="1020"
     inkscape:window-width="1424"
     showgrid="false"
     inkscape:document-rotation="0"
     inkscape:current-layer="g843"
     inkscape:document-units="mm"
     inkscape:cy="511.72376"
     inkscape:cx="918.22799"
     inkscape:zoom="0.175"
     inkscape:pageshadow="2"
     inkscape:pageopacity="0.0"
     borderopacity="1.0"
     bordercolor="#666666"
     pagecolor="#ffffff"
     id="base" />
  <metadata
     id="metadata5">
    <rdf:RDF>
      <cc:Work
         rdf:about="">
        <dc:format>image/svg+xml</dc:format>
        <dc:type
           rdf:resource="http://purl.org/dc/dcmitype/StillImage" />
        <dc:title></dc:title>
      </cc:Work>
    </rdf:RDF>
  </metadata>
  <g
     id="layer1"
     inkscape:groupmode="layer"
     inkscape:label="Layer 1">
    <g
       transform="matrix(0.03527778,0,0,-0.03527778,-271.38694,485.82542)"
       id="g843">
      <path
         id="path1397"
         style="fill:#adc8fe;fill-opacity:1;fill-rule:nonzero;stroke:none;filter:url(#filter3078)"
         d="m 22634.7,9656.7 c -573.1,18.5 -1174.6,228.8 -1788,625.1 -490.3,316.8 -989.3,752.5 -1483.1,1295.1 -816.5,897.2 -1350.5,1796.4 -1385.3,1855.5 -549.4,15 -1211.1,164.6 -1966.6,444.5 -605.5,224.3 -1272.3,532.4 -1981.9,915.8 -1208.2,652.6 -2134,1305.9 -2143.3,1312.4 l 7.3,10.2 c 9.2,-6.5 934.5,-659.4 2142,-1311.7 709.1,-383 1375.4,-690.9 1980.3,-915 755.8,-280 1417.3,-429.3 1966,-443.8 l 3.5,-0.1 1.8,-3 c 5.3,-9.2 545.9,-933.9 1385.6,-1856.6 493,-541.7 991.2,-976.7 1480.6,-1292.9 611.4,-395 1210.8,-604.6 1781.5,-623 l -0.4,-12.5" />
      <g
         id="g3448">
        <path
           d="m 19810.8,1829.7 h -450.3 v 12088.7 h 450.3 V 1829.7"
           style="fill:#ccddfc;fill-opacity:1;fill-rule:nonzero;stroke:none;filter:url(#filter3078)"
           id="path849" />
        <path
           d="m 22500.4,13292.2 h -5891.6 v 297.2 h 5891.6 v -297.2"
           style="fill:#ccddfc;fill-opacity:1;fill-rule:nonzero;stroke:none;filter:url(#filter3078)"
           id="path851" />
        <path
           d="m 16928,14247.4 h -97.1 v -658 h 97.1 v 658"
           style="fill:#ccddfc;fill-opacity:1;fill-rule:nonzero;stroke:none;filter:url(#filter3078)"
           id="path853" />
        <path
           d="m 16616.8,14113.2 c 0,33.3 119.2,60.3 266.2,60.3 147,0 266.2,-27 266.2,-60.3 0,-33.4 -119.2,-60.4 -266.2,-60.4 -147,0 -266.2,27 -266.2,60.4"
           style="fill:#ccddfc;fill-opacity:1;fill-rule:nonzero;stroke:none;filter:url(#filter3078)"
           id="path855" />
        <path
           d="m 17041,14091.8 h -323 v 410.4 h 323 v -410.4"
           style="fill:#ccddfc;fill-opacity:1;fill-rule:nonzero;stroke:none;filter:url(#filter3078)"
           id="path863" />
        <path
           d="m 19599.6,14247.4 h -97.1 v -658 h 97.1 v 658"
           style="fill:#ccddfc;fill-opacity:1;fill-rule:nonzero;stroke:none;filter:url(#filter3078)"
           id="path865" />
        <path
           d="m 19288.4,14113.2 c 0,33.3 119.2,60.3 266.2,60.3 147,0 266.2,-27 266.2,-60.3 0,-33.4 -119.2,-60.4 -266.2,-60.4 -147,0 -266.2,27 -266.2,60.4"
           style="fill:#ccddfc;fill-opacity:1;fill-rule:nonzero;stroke:none;filter:url(#filter3078)"
           id="path867" />
        <path
           d="m 19288.4,14233.8 c 0,33.3 119.2,60.3 266.2,60.3 147,0 266.2,-27 266.2,-60.3 0,-33.4 -119.2,-60.3 -266.2,-60.3 -147,0 -266.2,26.9 -266.2,60.3"
           style="fill:#ccddfc;fill-opacity:1;fill-rule:nonzero;stroke:none;filter:url(#filter3078)"
           id="path869" />
        <path
           d="m 19288.4,14354.4 c 0,33.3 119.2,60.3 266.2,60.3 147,0 266.2,-27 266.2,-60.3 0,-33.3 -119.2,-60.3 -266.2,-60.3 -147,0 -266.2,27 -266.2,60.3"
           style="fill:#ccddfc;fill-opacity:1;fill-rule:nonzero;stroke:none;filter:url(#filter3078)"
           id="path871" />
        <path
           d="m 19288.4,14475 c 0,33.3 119.2,60.3 266.2,60.3 147,0 266.2,-27 266.2,-60.3 0,-33.3 -119.2,-60.3 -266.2,-60.3 -147,0 -266.2,27 -266.2,60.3"
           style="fill:#ccddfc;fill-opacity:1;fill-rule:nonzero;stroke:none;filter:url(#filter3078)"
           id="path873" />
        <path
           d="m 19712.6,14091.8 h -323.1 v 410.4 h 323.1 v -410.4"
           style="fill:#ccddfc;fill-opacity:1;fill-rule:nonzero;stroke:none;filter:url(#filter3078)"
           id="path875" />
        <path
           d="m 22279.2,14247.4 h -97.1 v -658 h 97.1 v 658"
           style="fill:#ccddfc;fill-opacity:1;fill-rule:nonzero;stroke:none;filter:url(#filter3078)"
           id="path877" />
        <path
           d="m 21968,14113.2 c 0,33.3 119.2,60.3 266.2,60.3 147,0 266.2,-27 266.2,-60.3 0,-33.4 -119.2,-60.4 -266.2,-60.4 -147,0 -266.2,27 -266.2,60.4"
           style="fill:#ccddfc;fill-opacity:1;fill-rule:nonzero;stroke:none;filter:url(#filter3078)"
           id="path879" />
        <path
           d="m 21968,14233.8 c 0,33.3 119.2,60.3 266.2,60.3 147,0 266.2,-27 266.2,-60.3 0,-33.4 -119.2,-60.3 -266.2,-60.3 -147,0 -266.2,26.9 -266.2,60.3"
           style="fill:#ccddfc;fill-opacity:1;fill-rule:nonzero;stroke:none;filter:url(#filter3078)"
           id="path881" />
        <path
           d="m 21968,14354.4 c 0,33.3 119.2,60.3 266.2,60.3 147,0 266.2,-27 266.2,-60.3 0,-33.3 -119.2,-60.3 -266.2,-60.3 -147,0 -266.2,27 -266.2,60.3"
           style="fill:#ccddfc;fill-opacity:1;fill-rule:nonzero;stroke:none;filter:url(#filter3078)"
           id="path883" />
        <path
           d="m 21968,14475 c 0,33.3 119.2,60.3 266.2,60.3 147,0 266.2,-27 266.2,-60.3 0,-33.3 -119.2,-60.3 -266.2,-60.3 -147,0 -266.2,27 -266.2,60.3"
           style="fill:#ccddfc;fill-opacity:1;fill-rule:nonzero;stroke:none;filter:url(#filter3078)"
           id="path885" />
        <path
           d="m 22392.2,14091.8 h -323 v 410.4 h 323 v -410.4"
           style="fill:#ccddfc;fill-opacity:1;fill-rule:nonzero;stroke:none;filter:url(#filter3078)"
           id="path887" />
        <path
           d="m 19585.9,11965.5 -1669.1,1393.7 61.5,73.2 1607.1,-1341.9 1633,1386.6 62.2,-72.7 -1694.7,-1438.9"
           style="fill:#ccddfc;fill-opacity:1;fill-rule:nonzero;stroke:none;filter:url(#filter3078)"
           id="path889" />
        <path
           d="m 23578.9,1787.4 h -314.3 v 8468 h 314.3 v -8468"
           style="fill:#d8e6fb;fill-opacity:1;fill-rule:nonzero;stroke:none;filter:url(#filter3078)"
           id="path1079" />
        <path
           d="m 25456.7,9816.7 h -4113.3 v 208.2 h 4113.3 v -208.2"
           style="fill:#d8e6fb;fill-opacity:1;fill-rule:nonzero;stroke:none;filter:url(#filter3078)"
           id="path1081" />
        <path
           d="m 21566.3,10485.8 h -67.8 v -460.9 h 67.8 v 460.9"
           style="fill:#d8e6fb;fill-opacity:1;fill-rule:nonzero;stroke:none;filter:url(#filter3078)"
           id="path1083" />
        <path
           d="m 21349,10391.8 c 0,23.3 83.2,42.2 185.8,42.2 102.7,0 185.9,-18.9 185.9,-42.2 0,-23.4 -83.2,-42.3 -185.9,-42.3 -102.6,0 -185.8,18.9 -185.8,42.3"
           style="fill:#d8e6fb;fill-opacity:1;fill-rule:nonzero;stroke:none;filter:url(#filter3078)"
           id="path1085" />
        <path
           d="m 21349,10476.3 c 0,23.3 83.2,42.2 185.8,42.2 102.7,0 185.9,-18.9 185.9,-42.2 0,-23.4 -83.2,-42.3 -185.9,-42.3 -102.6,0 -185.8,18.9 -185.8,42.3"
           style="fill:#d8e6fb;fill-opacity:1;fill-rule:nonzero;stroke:none;filter:url(#filter3078)"
           id="path1087" />
        <path
           d="m 21349,10560.8 c 0,23.3 83.2,42.2 185.8,42.2 102.7,0 185.9,-18.9 185.9,-42.2 0,-23.4 -83.2,-42.3 -185.9,-42.3 -102.6,0 -185.8,18.9 -185.8,42.3"
           style="fill:#d8e6fb;fill-opacity:1;fill-rule:nonzero;stroke:none;filter:url(#filter3078)"
           id="path1089" />
        <path
           d="m 21349,10645.2 c 0,23.4 83.2,42.3 185.8,42.3 102.7,0 185.9,-18.9 185.9,-42.3 0,-23.3 -83.2,-42.2 -185.9,-42.2 -102.6,0 -185.8,18.9 -185.8,42.2"
           style="fill:#d8e6fb;fill-opacity:1;fill-rule:nonzero;stroke:none;filter:url(#filter3078)"
           id="path1091" />
        <path
           d="m 21645.1,10376.8 h -225.5 v 287.5 h 225.5 v -287.5"
           style="fill:#d8e6fb;fill-opacity:1;fill-rule:nonzero;stroke:none;filter:url(#filter3078)"
           id="path1093" />
        <path
           d="m 23431.5,10485.8 h -67.8 v -460.9 h 67.8 v 460.9"
           style="fill:#d8e6fb;fill-opacity:1;fill-rule:nonzero;stroke:none;filter:url(#filter3078)"
           id="path1095" />
        <path
           d="m 23214.2,10391.8 c 0,23.3 83.2,42.2 185.8,42.2 102.7,0 185.9,-18.9 185.9,-42.2 0,-23.4 -83.2,-42.3 -185.9,-42.3 -102.6,0 -185.8,18.9 -185.8,42.3"
           style="fill:#d8e6fb;fill-opacity:1;fill-rule:nonzero;stroke:none;filter:url(#filter3078)"
           id="path1097" />
        <path
           d="m 23214.2,10476.3 c 0,23.3 83.2,42.2 185.8,42.2 102.7,0 185.9,-18.9 185.9,-42.2 0,-23.4 -83.2,-42.3 -185.9,-42.3 -102.6,0 -185.8,18.9 -185.8,42.3"
           style="fill:#d8e6fb;fill-opacity:1;fill-rule:nonzero;stroke:none;filter:url(#filter3078)"
           id="path1099" />
        <path
           d="m 23214.2,10560.8 c 0,23.3 83.2,42.2 185.8,42.2 102.7,0 185.9,-18.9 185.9,-42.2 0,-23.4 -83.2,-42.3 -185.9,-42.3 -102.6,0 -185.8,18.9 -185.8,42.3"
           style="fill:#d8e6fb;fill-opacity:1;fill-rule:nonzero;stroke:none;filter:url(#filter3078)"
           id="path1101" />
        <path
           d="m 23214.2,10645.2 c 0,23.4 83.2,42.3 185.8,42.3 102.7,0 185.9,-18.9 185.9,-42.3 0,-23.3 -83.2,-42.2 -185.9,-42.2 -102.6,0 -185.8,18.9 -185.8,42.2"
           style="fill:#d8e6fb;fill-opacity:1;fill-rule:nonzero;stroke:none;filter:url(#filter3078)"
           id="path1103" />
        <path
           d="m 23510.3,10376.8 h -225.5 v 287.5 h 225.5 v -287.5"
           style="fill:#d8e6fb;fill-opacity:1;fill-rule:nonzero;stroke:none;filter:url(#filter3078)"
           id="path1105" />
        <path
           d="m 25302.3,10485.8 h -67.8 v -460.9 h 67.8 v 460.9"
           style="fill:#d8e6fb;fill-opacity:1;fill-rule:nonzero;stroke:none;filter:url(#filter3078)"
           id="path1107" />
        <path
           d="m 25085,10391.8 c 0,23.3 83.2,42.2 185.8,42.2 102.7,0 185.9,-18.9 185.9,-42.2 0,-23.4 -83.2,-42.3 -185.9,-42.3 -102.6,0 -185.8,18.9 -185.8,42.3"
           style="fill:#d8e6fb;fill-opacity:1;fill-rule:nonzero;stroke:none;filter:url(#filter3078)"
           id="path1109" />
        <path
           d="m 25085,10476.3 c 0,23.3 83.2,42.2 185.8,42.2 102.7,0 185.9,-18.9 185.9,-42.2 0,-23.4 -83.2,-42.3 -185.9,-42.3 -102.6,0 -185.8,18.9 -185.8,42.3"
           style="fill:#d8e6fb;fill-opacity:1;fill-rule:nonzero;stroke:none;filter:url(#filter3078)"
           id="path1111" />
        <path
           d="m 25085,10560.8 c 0,23.3 83.2,42.2 185.8,42.2 102.7,0 185.9,-18.9 185.9,-42.2 0,-23.4 -83.2,-42.3 -185.9,-42.3 -102.6,0 -185.8,18.9 -185.8,42.3"
           style="fill:#d8e6fb;fill-opacity:1;fill-rule:nonzero;stroke:none;filter:url(#filter3078)"
           id="path1113" />
        <path
           d="m 25085,10645.2 c 0,23.4 83.2,42.3 185.8,42.3 102.7,0 185.9,-18.9 185.9,-42.3 0,-23.3 -83.2,-42.2 -185.9,-42.2 -102.6,0 -185.8,18.9 -185.8,42.2"
           style="fill:#d8e6fb;fill-opacity:1;fill-rule:nonzero;stroke:none;filter:url(#filter3078)"
           id="path1115" />
        <path
           d="m 25381.1,10376.8 h -225.5 v 287.5 h 225.5 v -287.5"
           style="fill:#d8e6fb;fill-opacity:1;fill-rule:nonzero;stroke:none;filter:url(#filter3078)"
           id="path1117" />
        <path
           d="m 23421.9,8887.4 -1165.3,976.2 42.9,51.3 1122,-939.9 1140.2,971.3 43.3,-51 -1183.1,-1007.9"
           style="fill:#d8e6fb;fill-opacity:1;fill-rule:nonzero;stroke:none;filter:url(#filter3078)"
           id="path1119" />
        <path
           d="m 18681.5,1948.1 427.1,5.3 997.4,4156.1 -427.1,-5.3 -997.4,-4156.1"
           style="fill:#8cb4f4;fill-opacity:1;fill-rule:nonzero;stroke:none;filter:url(#filter3078)"
           id="path1201" />
        <path
           d="m 17976,1855.6 h 1915.1 c 0,112.1 -90.8,202.9 -202.9,202.9 h -1509.3 c -112.1,0 -202.9,-90.8 -202.9,-202.9"
           style="fill:#8cb4f4;fill-opacity:1;fill-rule:nonzero;stroke:none;filter:url(#filter3078)"
           id="path1203" />
        <path
           d="m 22400,3779.9 -184,922.2 -0.3,1.9 -612.2,3069 -5949.9,-0.8 796.5,-3993.2 1130.1,0.2 h 10.7 l 1264.8,0.2 h 3.8 l 1259.3,0.2 h 8.6 l 1256.6,0.1 h 11.3 l 1004.7,0.2"
           style="fill:#1d3f77;fill-opacity:1;fill-rule:nonzero;stroke:none;filter:url(#filter3078)"
           id="path1205" />
        <path
           d="m 22501.9,3858.8 -5949.9,-0.8 -796.5,3914.2 5949.9,0.8 796.5,-3914.2"
           style="fill:#2a4e96;fill-opacity:1;fill-rule:nonzero;stroke:none;filter:url(#filter3078)"
           id="path1207" />
        <path
           d="m 17693.5,3858.1 h -11.4 l -794.3,3903.7 h 11.4 l 794.3,-3903.7"
           style="fill:#c0d8fb;fill-opacity:1;fill-rule:nonzero;stroke:none;filter:url(#filter3078)"
           id="path1209" />
        <path
           d="M 18961.4,3858.3 H 18950 L 18155.7,7762 h 11.4 l 794.3,-3903.7"
           style="fill:#c0d8fb;fill-opacity:1;fill-rule:nonzero;stroke:none;filter:url(#filter3078)"
           id="path1211" />
        <path
           d="m 20229.3,3858.5 h -11.3 l -794.4,3903.7 h 11.4 l 794.3,-3903.7"
           style="fill:#c0d8fb;fill-opacity:1;fill-rule:nonzero;stroke:none;filter:url(#filter3078)"
           id="path1213" />
        <path
           d="m 21497.3,3858.7 h -11.4 l -794.4,3903.7 h 11.4 l 794.4,-3903.7"
           style="fill:#c0d8fb;fill-opacity:1;fill-rule:nonzero;stroke:none;filter:url(#filter3078)"
           id="path1215" />
        <path
           d="m 21894.4,6844.1 -5949.9,-0.8 -2.2,10.7 5950,0.8 2.1,-10.7"
           style="fill:#c0d8fb;fill-opacity:1;fill-rule:nonzero;stroke:none;filter:url(#filter3078)"
           id="path1217" />
        <path
           d="m 22106.2,5803.5 -5949.9,-0.9 -2.2,10.7 5949.9,0.8 2.2,-10.6"
           style="fill:#c0d8fb;fill-opacity:1;fill-rule:nonzero;stroke:none;filter:url(#filter3078)"
           id="path1219" />
        <path
           d="m 22318,4762.8 -5950,-0.8 -2.2,10.7 5950,0.8 2.2,-10.7"
           style="fill:#c0d8fb;fill-opacity:1;fill-rule:nonzero;stroke:none;filter:url(#filter3078)"
           id="path1221" />
        <path
           d="m 17102.7,6733.7 -145.9,115 99.1,115.1 145.9,-115 -99.1,-115.1"
           style="fill:#c0d8fb;fill-opacity:1;fill-rule:nonzero;stroke:none;filter:url(#filter3078)"
           id="path1223" />
        <path
           d="m 17315.5,5687.7 -145.9,115.1 99.1,115 145.9,-115 -99.1,-115.1"
           style="fill:#c0d8fb;fill-opacity:1;fill-rule:nonzero;stroke:none;filter:url(#filter3078)"
           id="path1225" />
        <path
           d="m 18376.3,6733.9 -145.9,115 99.1,115.1 145.9,-115 -99.1,-115.1"
           style="fill:#c0d8fb;fill-opacity:1;fill-rule:nonzero;stroke:none;filter:url(#filter3078)"
           id="path1227" />
        <path
           d="m 18589.1,5687.9 -145.9,115 99.1,115.1 145.9,-115 -99.1,-115.1"
           style="fill:#c0d8fb;fill-opacity:1;fill-rule:nonzero;stroke:none;filter:url(#filter3078)"
           id="path1229" />
        <path
           d="m 19644.2,6734.1 -145.9,115 99.1,115.1 145.9,-115 -99.1,-115.1"
           style="fill:#c0d8fb;fill-opacity:1;fill-rule:nonzero;stroke:none;filter:url(#filter3078)"
           id="path1231" />
        <path
           d="m 20900.7,6734.2 -145.9,115.1 99.1,115.1 145.9,-115.1 -99.1,-115.1"
           style="fill:#c0d8fb;fill-opacity:1;fill-rule:nonzero;stroke:none;filter:url(#filter3078)"
           id="path1233" />
        <path
           d="m 17526.2,4652.4 -145.9,115.1 99.1,115 145.9,-115 -99.1,-115.1"
           style="fill:#c0d8fb;fill-opacity:1;fill-rule:nonzero;stroke:none;filter:url(#filter3078)"
           id="path1235" />
        <path
           d="m 18799.8,4652.6 -145.9,115 99.1,115.1 145.9,-115 -99.1,-115.1"
           style="fill:#c0d8fb;fill-opacity:1;fill-rule:nonzero;stroke:none;filter:url(#filter3078)"
           id="path1237" />
        <path
           d="m 20067.7,4652.8 -145.9,115 99.1,115.1 145.9,-115 -99.1,-115.1"
           style="fill:#c0d8fb;fill-opacity:1;fill-rule:nonzero;stroke:none;filter:url(#filter3078)"
           id="path1239" />
        <path
           d="m 21324.2,4652.9 -145.9,115.1 99.1,115.1 145.9,-115.1 -99.1,-115.1"
           style="fill:#c0d8fb;fill-opacity:1;fill-rule:nonzero;stroke:none;filter:url(#filter3078)"
           id="path1241" />
        <path
           d="m 21113.6,5688.2 -145.9,115.1 99.1,115.1 145.9,-115.1 -99.1,-115.1"
           style="fill:#c0d8fb;fill-opacity:1;fill-rule:nonzero;stroke:none;filter:url(#filter3078)"
           id="path1243" />
        <path
           d="m 19857.1,5688.1 -145.9,115 99,115.1 145.9,-115.1 -99,-115"
           style="fill:#c0d8fb;fill-opacity:1;fill-rule:nonzero;stroke:none;filter:url(#filter3078)"
           id="path1245" />
        <path
           d="m 20609.4,6258.9 -70.3,-17.6 -93.6,372.7 70.3,17.7 93.6,-372.8"
           style="fill:#adc8fe;fill-opacity:1;fill-rule:nonzero;stroke:none;filter:url(#filter3078)"
           id="path1247" />
        <path
           d="m 20505.2,6752.6 0.1,-0.3 c 3.5,-28.8 -4.8,-59.7 -32,-69.9 -36.3,-13.6 -60.9,10.1 -70.1,46.6 l -2.4,9.5 c -3.1,12.8 -32.7,2.3 -37,-10.1 -7.7,-22.3 -7.9,-47.6 1.5,-72 17.2,-44.6 63.7,-72.1 111.1,-65.6 62.9,8.6 102.7,69.3 87.7,129.1 -4.2,16.7 -12.2,31.4 -22.9,43.5 -10.3,11.7 -38.1,4.7 -36,-10.8"
           style="fill:#adc8fe;fill-opacity:1;fill-rule:nonzero;stroke:none;filter:url(#filter3078)"
           id="path1249" />
        <path
           d="m 20540.9,6112.7 v 0.4 c -3.5,28.7 4.8,59.7 32,69.8 36.3,13.6 60.9,-10 70.1,-46.5 l 2.4,-9.5 c 3,-12.8 32.7,-2.4 37,10.1 7.6,22.3 7.9,47.5 -1.5,72 -17.2,44.6 -63.8,72.1 -111.2,65.6 -62.8,-8.6 -102.6,-69.3 -87.6,-129.1 4.2,-16.7 12.2,-31.5 22.9,-43.5 10.3,-11.8 38,-4.8 35.9,10.7"
           style="fill:#adc8fe;fill-opacity:1;fill-rule:nonzero;stroke:none;filter:url(#filter3078)"
           id="path1251" />
        <path
           d="m 20373.6,7567.1 c 0,0 -71.3,147.9 -129,193.8 -57.8,46 -212.1,34.8 -218,23 -18.4,-36.4 123.8,-93 140.2,-126.4 16.4,-33.4 -51.8,-30 0.6,-88 44.1,-49 149.9,-95.8 149.9,-95.8 l 56.3,93.4"
           style="fill:#ffb27d;fill-opacity:1;fill-rule:nonzero;stroke:none;filter:url(#filter3078)"
           id="path1253" />
        <path
           d="m 20312,7584 c 37.5,58.3 48.7,61.3 48.7,61.3 0,0 619.3,-247 678.4,-267.6 59.1,-20.7 942.6,-72.6 942.6,-72.6 l 266.7,-586.1 c 0,0 -1177.5,268.5 -1326.2,323.7 -245.8,91.2 -640,448.5 -640,448.5 0,0 0.4,47 29.8,92.8"
           style="fill:#77a4e5;fill-opacity:1;fill-rule:nonzero;stroke:none;filter:url(#filter3078)"
           id="path1255" />
        <path
           d="m 20219.3,7610.1 c -0.7,0.7 22.8,31.8 -7.3,67.5 -22.2,26.3 -27.2,-23.7 -65.1,-11.2 -31.4,10.4 -116,23 -61.3,-21.1 50.3,-40.6 100,-95.1 118.6,-107.8 18.6,-12.7 15.1,72.6 15.1,72.6"
           style="fill:#ffb27d;fill-opacity:1;fill-rule:nonzero;stroke:none;filter:url(#filter3078)"
           id="path1257" />
        <path
           d="m 21850.5,2103.9 c 0,0 -13.4,-217.4 -53.8,-268.5 h -621.2 c 3.9,21.7 21.5,75.2 99.2,88.8 98.1,17 262.4,86 321.8,215.7 62.6,136.5 254,-36 254,-36"
           style="fill:#163560;fill-opacity:1;fill-rule:nonzero;stroke:none;filter:url(#filter3078)"
           id="path1259" />
        <path
           d="m 22952.9,2134.2 c 0,0 41,-270.6 -12.2,-275.5 -7.1,-0.6 -255.9,-0.2 -323.6,-10.3 -110.4,-16.5 -294.7,-2.1 -294.7,-2.1 -23.1,-1 -38.2,24 -26.5,43.9 12.9,21.8 37.5,45.1 84.4,54.1 97.9,18.9 260.9,90.7 318,221.5 60.2,137.5 254.6,-31.6 254.6,-31.6"
           style="fill:#163560;fill-opacity:1;fill-rule:nonzero;stroke:none;filter:url(#filter3078)"
           id="path1261" />
        <path
           d="m 22952.9,2134.2 c 0,0 -57.5,-21.9 -148.8,-29.6 -61.3,-5.2 -109.6,2.5 -136.4,8.6 -14.9,3.6 -23.2,6.6 -23.2,6.6 0,0 -10.5,132 -95.6,410.5 -6.4,21.1 -13.2,43 -20.6,65.8 -9.6,29.9 -19.9,61.1 -31.2,93.8 -7.3,21.4 -14.9,43.4 -23,66 -70.7,198.9 -170.8,446.5 -311.8,745.4 -46.6,99 -90.2,193.5 -130.7,283.5 -347.9,773.7 -473.2,1212.3 -473.2,1212.3 l 15.2,9 617.2,367.5 103.7,61.7 h 0.1 l 163.3,97.3 c 0,0 2.3,-69.8 8.5,-183 0,-1.6 0.1,-3.2 0.2,-4.9 20.6,-379.9 83.9,-1234.8 245.8,-1601.8 98.6,-223.1 157.5,-587.8 192.3,-913.4 2.4,-22.9 4.8,-45.8 7,-68.2 3.4,-34.1 6.5,-67.4 9.3,-100 2.1,-23 4,-45.8 5.7,-68.1 21.1,-263 26.2,-459 26.2,-459"
           style="fill:#e58638;fill-opacity:1;fill-rule:nonzero;stroke:none;filter:url(#filter3078)"
           id="path1263" />
        <path
           d="m 22325.7,5434.3 c 0,0 -10.2,-37.3 -26.9,-101.8 -36.9,-142.8 -105.4,-418.9 -163.8,-717.4 -56.5,-289.4 -103.7,-599.9 -103.4,-830.3 0.2,-49 2.3,-94.4 7,-135.2 28.4,-245.7 -3.3,-607.4 -44.7,-920.7 -3.2,-23.1 -6.3,-46.1 -9.5,-68.8 -4.8,-34.4 -9.6,-68.1 -14.6,-100.7 -3.5,-23.3 -6.9,-46.1 -10.3,-68.2 -36.6,-233.9 -70.3,-401.2 -70.3,-401.2 0,0 -14.6,-3.3 -40.3,-7.4 -36.7,-6.2 -96,-14.1 -167.5,-17.3 -41.5,-1.8 -87,12.9 -115.3,24.2 -16.9,6.7 -27.6,12.2 -27.6,12.2 0,0 14.4,127.2 4.9,405.8 -0.3,10.9 -0.8,22 -1.3,33.3 l -1.4,34.8 c -1.4,30.7 -2.9,62.9 -5,96.7 -1.2,22.1 -2.6,44.8 -4.1,68.3 -14.5,218.7 -41.4,497.2 -89.9,841.2 -104.7,742.7 -128.2,1386.9 -133.1,1694 -1.9,122.7 -0.9,191.5 -0.9,191.5 l 33.2,-1.1 41.3,-1.3 667.5,-21.6 244.8,-8 h 0.1 l 31.1,-1"
           style="fill:#f99746;fill-opacity:1;fill-rule:nonzero;stroke:none;filter:url(#filter3078)"
           id="path1265" />
        <path
           d="m 21999.7,7447.8 -165.4,-122.5 -239.1,50.4 c 3.3,21.8 19.1,112.1 33.5,193.9 0.9,4.9 1.7,9.7 2.5,14.4 12.3,69.7 23,129.5 23,129.5 l 223.3,111.3 83.2,41.4 c -0.2,-1.4 -6.5,-77.2 -7.3,-88.3 -15.6,-196.5 46.3,-330.1 46.3,-330.1"
           style="fill:#ffb27d;fill-opacity:1;fill-rule:nonzero;stroke:none;filter:url(#filter3078)"
           id="path1267" />
        <path
           d="m 21612,7509.6 c 5.2,2.3 325.1,96.7 359.9,85.2 34.8,-11.5 55.3,-78.7 55.3,-78.7 l -493.9,-140.7 c 0,0 11.8,106.1 78.7,134.2"
           style="fill:#77a4e5;fill-opacity:1;fill-rule:nonzero;stroke:none;filter:url(#filter3078)"
           id="path1269" />
        <path
           d="m 22473.5,5362.9 c -54.1,-247.4 -1184.9,528.8 -1169.8,679.8 1.7,16.6 3.3,33.3 5,49.9 20.8,210.2 40.9,415.9 42.2,550.1 1.1,116.5 17.2,235.5 38.6,343.7 19.6,99.9 43.8,190.5 64.8,261.1 14.7,49.7 42.4,93.5 79,127.9 25.9,24.4 56.5,44 90.2,57.4 9.1,3.9 18.5,7.1 28,9.8 136.2,39.5 324.6,88.4 375.7,73.5 138.4,-40.7 241.2,-284.3 314,-594.8 136.2,-581.2 167.7,-1397.3 132.3,-1558.4"
           style="fill:#adc8fe;fill-opacity:1;fill-rule:nonzero;stroke:none;filter:url(#filter3078)"
           id="path1271" />
        <path
           d="m 21936.6,7774.4 c -49,-93.8 -231.7,-174.9 -307.9,-204.8 0.9,4.9 1.7,9.7 2.5,14.4 12.3,69.7 23,129.5 23,129.5 l 223.3,111.3 c 49.3,0.7 79.3,-11.8 59.1,-50.4"
           style="fill:#fca56b;fill-opacity:1;fill-rule:nonzero;stroke:none;filter:url(#filter3078)"
           id="path1273" />
        <path
           d="m 21545.7,7726.5 c 0,0 402.8,-125.6 477.2,126.4 74.4,252.1 176.5,405.6 -77.6,496.5 -254,90.9 -332.6,9.5 -377.9,-68.6 -45.3,-78 -124.6,-515.1 -21.7,-554.3"
           style="fill:#ffb27d;fill-opacity:1;fill-rule:nonzero;stroke:none;filter:url(#filter3078)"
           id="path1275" />
        <path
           d="m 21583.2,8305.1 c 0,0 25.7,-293.3 86.4,-280.5 60.6,12.7 115.6,22.1 106.8,-66.3 -8.9,-88.4 -93,-190.5 93.9,-206.1 186.9,-15.7 455.7,466.4 404.3,557.7 -148.1,263.4 -905.5,316.5 -691.4,-4.8"
           style="fill:#ce6719;fill-opacity:1;fill-rule:nonzero;stroke:none;filter:url(#filter3078)"
           id="path1277" />
        <path
           d="m 21337.8,5467.3 c 112,-40.4 -1.9,111.3 0,142.9 8.7,139.1 -45.8,315 -29.1,482.4 l 683.9,408.8 c 0,0 162.2,-1027.6 -654.8,-1034.1"
           style="fill:#77a4e5;fill-opacity:1;fill-rule:nonzero;stroke:none;filter:url(#filter3078)"
           id="path1279" />
        <path
           d="m 22473.5,5362.9 c -292,-541.1 -338.5,-747.8 -338.5,-747.8 -254.1,29 -689.5,528.6 -827.6,661.9 0,0 -18.8,614.7 -3.7,765.7 l 211.1,6.1 c 0,0 381.5,-96.7 480.4,34.5 98.9,131.2 56,775.3 56,775.3 l 290,62.7 c 136.2,-581.2 210.7,-1413.2 132.3,-1558.4"
           style="fill:#f99746;fill-opacity:1;fill-rule:nonzero;stroke:none;filter:url(#filter3078)"
           id="path1281" />
        <path
           d="m 20741.2,6399.7 c 0,0 -139,94 -165.4,102.2 -26.3,8.2 -112.8,17.1 -116.8,10.3 -4,-6.8 -15.8,-27.6 -0.7,-34.7 15.1,-7.1 33.9,-4.6 28.2,-9.5 -5.6,-5 -62.4,22.1 -75.5,-6.9 -13.1,-29 -24.7,-128.2 42,-158.3 66.6,-30.1 231.2,-2.9 243.1,-6.4 100.6,-29.2 45.1,103.3 45.1,103.3"
           style="fill:#ffb27d;fill-opacity:1;fill-rule:nonzero;stroke:none;filter:url(#filter3078)"
           id="path1283" />
        <path
           d="m 20739.9,6425.2 c 0,0 678.3,-115.4 738.4,-86.1 95.9,46.7 -37.3,734.9 -37.3,734.9 0,0 -5.7,156 176.5,192.8 158.3,31.9 311.1,-86.7 311.1,-86.7 0,0 138.9,-124.3 121.1,-262.1 -39.3,-305.6 -100.5,-927.2 -304.9,-1022.5 -263.7,-122.9 -1026.6,340.8 -1026.6,340.8 0,0 -25.4,31.1 -21.7,88.9 3.1,50.9 43.4,100 43.4,100"
           style="fill:#adc8fe;fill-opacity:1;fill-rule:nonzero;stroke:none;filter:url(#filter3078)"
           id="path1285" />
        <path
           d="m 22107.5,6870.8 -56.3,-12.2 c 0,0 -118.7,514.3 -517.9,516.8 25.9,24.4 56.5,44 90.2,57.4 146.2,-39.2 400.3,-164.2 484,-562"
           style="fill:#f99746;fill-opacity:1;fill-rule:nonzero;stroke:none;filter:url(#filter3078)"
           id="path1287" />
        <path
           d="m 21993.9,2728.9 c -3.2,-23.1 -6.3,-46.1 -9.5,-68.8 -136.9,-19.3 -270.4,-11.3 -369.7,0.7 -29.7,3.7 -56.3,7.8 -79,11.5 -1.2,22.1 -2.6,44.8 -4.1,68.3 95.3,-16.6 278.3,-41.4 462.3,-11.7"
           style="fill:#ffffff;fill-opacity:1;fill-rule:nonzero;stroke:none;filter:url(#filter3078)"
           id="path1289" />
        <path
           d="m 21540.7,2575.6 1.4,-34.8 1.3,-33.3 c 22.9,-3.7 49.4,-7.7 79.4,-11.4 91.2,-11.1 211.6,-18.9 336.7,-4.9 3.4,22.1 6.8,44.9 10.3,68.2 -172.1,-22.1 -339.1,0.6 -429.1,16.2"
           style="fill:#ffffff;fill-opacity:1;fill-rule:nonzero;stroke:none;filter:url(#filter3078)"
           id="path1291" />
        <path
           d="m 22497.1,2689.9 v 0 c -7.3,21.4 -14.9,43.4 -23,66 97.2,2.9 267.2,15.3 430.6,73.6 2.4,-22.9 4.8,-45.8 7,-68.2 -127.6,-43.2 -256.5,-60.6 -354.1,-67.9 -21.8,-1.7 -42.1,-2.6 -60.5,-3.5"
           style="fill:#f2c39c;fill-opacity:1;fill-rule:nonzero;stroke:none;filter:url(#filter3078)"
           id="path1293" />
        <path
           d="m 22548.9,2530.3 v 0 c -6.4,21.1 -13.2,43 -20.6,65.8 94,3.7 244.5,16.3 392.7,65.2 2.1,-23 4,-45.8 5.7,-68.1 -119.3,-37.4 -238,-53.1 -329.1,-59.8 -17.3,-1.4 -33.6,-2.3 -48.7,-3.1"
           style="fill:#f2c39c;fill-opacity:1;fill-rule:nonzero;stroke:none;filter:url(#filter3078)"
           id="path1295" />
        <path
           d="m 25267.4,10514.4 c -327.6,48.8 -691.4,271.6 -1081.1,662.2 -311.3,312 -639.9,731.3 -976.7,1246.3 -554.1,847.1 -949.8,1680.4 -979.3,1743 -399.2,-10 -907.5,122.4 -1510,393.6 -483.3,217.5 -1028.3,524.4 -1619.8,912 -1006.9,659.9 -1810.4,1334.4 -1818.4,1341.2 l 8,9.5 c 8,-6.7 811,-680.8 1817.4,-1340.3 590.9,-387.3 1135.3,-693.8 1617.9,-911.1 602.9,-271.3 1110.6,-403.4 1508.6,-392.3 l 4.1,0.1 1.8,-3.7 c 4,-8.6 407.3,-869.5 980.2,-1745.3 336.3,-514.2 664.4,-932.8 975.1,-1244.2 387.8,-388.7 749.1,-610.3 1074.1,-658.7 l -1.9,-12.3"
           style="fill:#adc8fe;fill-opacity:1;fill-rule:nonzero;stroke:none;filter:url(#filter3078)"
           id="path1393" />
        <path
           d="m 23283.8,10658.1 c -427.8,65.8 -890.6,297.9 -1375.6,690.1 -387.6,313.4 -790.2,729.3 -1196.7,1235.9 -671.5,837.1 -1133.4,1651.3 -1164.3,1706.2 -812.6,77 -1608.3,265.2 -2365,559.4 -606.2,235.7 -1189,539.6 -1732,903.3 -740,495.4 -1255.8,1008.7 -1425.1,1210.8 l 9.5,8 c 169.1,-201.7 684,-714 1422.9,-1208.7 542.3,-363.1 1124.2,-666.5 1729.5,-901.8 756.6,-294.2 1552.2,-482.2 2364.6,-558.9 l 3.3,-0.3 1.6,-2.9 c 4.7,-8.4 473.6,-845.7 1164.9,-1707.4 405.8,-505.9 807.8,-921.1 1194.8,-1234 483.1,-390.7 943.9,-622 1369.5,-687.4 l -1.9,-12.3"
           style="fill:#adc8fe;fill-opacity:1;fill-rule:nonzero;stroke:none;filter:url(#filter3078)"
           id="path1395" />
        <path
           d="M 28341.4,1814.1 H 2287.02 c -15.7,0 -28.55,12.9 -28.55,28.6 v 7.4 c 0,15.7 12.85,28.6 28.55,28.6 H 28341.4 c 15.7,0 28.6,-12.9 28.6,-28.6 v -7.4 c 0,-15.7 -12.9,-28.6 -28.6,-28.6"
           style="fill:#2e3552;fill-opacity:1;fill-rule:nonzero;stroke:none;filter:url(#filter3078)"
           id="path1399"
           transform="matrix(0.43210717,0,0,1,14182.556,0)" />
      </g>
    </g>
  </g>
</svg>
