<?xml version="1.0" encoding="UTF-8" standalone="no"?>
<svg
   xmlns:dc="http://purl.org/dc/elements/1.1/"
   xmlns:cc="http://creativecommons.org/ns#"
   xmlns:rdf="http://www.w3.org/1999/02/22-rdf-syntax-ns#"
   xmlns:svg="http://www.w3.org/2000/svg"
   xmlns="http://www.w3.org/2000/svg"
   xmlns:sodipodi="http://sodipodi.sourceforge.net/DTD/sodipodi-0.dtd"
   xmlns:inkscape="http://www.inkscape.org/namespaces/inkscape"
   sodipodi:docname="s-5.svg"
   inkscape:version="1.0 (4035a4fb49, 2020-05-01)"
   id="svg8"
   version="1.1"
   viewBox="0 0 66.33125 66.283335"
   height="250.51968"
   width="250.70079">
  <defs
     id="defs2">
    <clipPath
       clipPathUnits="userSpaceOnUse"
       id="clipPath4907">
      <path
         d="m 2925.99,2420.51 c -218.48,0 -410.66,50.32 -456.69,113.92 -64.9,89.66 -64.3,170.57 -64.3,170.57 0.28,38.29 10.52,46.46 7.5,82.5 -6.26,74.66 -55.83,106.73 -80,157.5 -37.06,77.85 1.09,167.16 37.59,252.61 113.58,265.93 377.88,389.11 407.41,402.39 119.58,53.75 238.68,73.29 340.67,73.29 101.17,0 185.5,-19.22 236.83,-43.29 76.41,-35.84 127.5,-90 127.5,-90 0,0 40.03,-42.44 69.17,-101.66 206.11,-419.01 97.77,-676.76 97.77,-676.76 -107.17,-254.98 -437.77,-341.07 -723.45,-341.07"
         id="path4905" />
    </clipPath>
  </defs>
  <sodipodi:namedview
     inkscape:window-maximized="1"
     inkscape:window-y="-9"
     inkscape:window-x="-9"
     inkscape:window-height="991"
     inkscape:window-width="1920"
     units="px"
     showgrid="false"
     inkscape:document-rotation="0"
     inkscape:current-layer="layer1"
     inkscape:document-units="mm"
     inkscape:cy="360.44432"
     inkscape:cx="513.80125"
     inkscape:zoom="0.67583333"
     inkscape:pageshadow="2"
     inkscape:pageopacity="0.0"
     borderopacity="1.0"
     bordercolor="#666666"
     pagecolor="#ffffff"
     id="base" />
  <metadata
     id="metadata5">
    <rdf:RDF>
      <cc:Work
         rdf:about="">
        <dc:format>image/svg+xml</dc:format>
        <dc:type
           rdf:resource="http://purl.org/dc/dcmitype/StillImage" />
        <dc:title></dc:title>
      </cc:Work>
    </rdf:RDF>
  </metadata>
  <g
     id="layer1"
     inkscape:groupmode="layer"
     inkscape:label="Layer 1">
    <path
       id="path4097"
       style="fill:#84acab;fill-opacity:1;fill-rule:nonzero;stroke:none;stroke-width:0.0352778"
       d="m 274.42668,191.60982 c -1.51024,0 -3.06846,-0.12096 -4.6676,-0.3919 -3.7839,-0.64106 -7.90434,-1.33946 -10.79077,-4.66188 -8.98313,-10.34137 6.25757,-31.9882 7.04145,-33.10122 3.52142,-5.00168 6.2805,-5.22287 6.9155,-5.2451 0.0586,-0.002 0.11606,-0.003 0.17251,-0.003 0.6477,0 1.1684,0.13123 1.72473,0.26247 0.55598,0.13123 1.14759,0.26211 1.93604,0.26211 0.1838,0 0.37818,-0.007 0.58526,-0.0229 2.48885,-0.19121 4.00368,-1.43369 5.35411,-2.22003 2.39254,-1.39347 5.05742,-1.81822 7.46866,-1.81822 2.63419,0 4.96605,0.50659 6.31331,0.81033 2.94534,0.66287 7.14657,1.60937 10.15859,5.16573 4.98546,5.88645 2.86385,14.37851 2.35126,16.43062 -2.19604,8.78872 -8.9154,13.62672 -13.07712,16.6285 -2.80211,2.02145 -10.95974,7.90469 -21.48593,7.90469" />
    <path
       id="path4099"
       style="fill:#d6cb43;fill-opacity:1;fill-rule:nonzero;stroke:none;stroke-width:0.0352778"
       d="m 275.81874,180.56513 c -0.121,0.0353 -0.242,0.0705 -0.37218,0.0839 -2.67934,0.40048 -6.3694,-4.05832 -8.44021,-10.30675 -2.14347,-6.45795 -1.74025,-12.42978 0.88477,-13.42179 0.0279,-0.0141 0.0501,-0.0233 0.0829,-0.0321 2.70016,-0.8957 6.64669,3.6823 8.81804,10.2175 2.16535,6.54008 1.72649,12.56376 -0.97332,13.45922" />
    <path
       id="path4101"
       style="fill:#d6cb43;fill-opacity:1;fill-rule:nonzero;stroke:none;stroke-width:0.0352778"
       d="m 275.81874,180.56513 c -0.121,0.0353 -0.242,0.0705 -0.37218,0.0839 -0.56232,-2.09088 -1.18357,-6.28893 -3.55847,-13.35475 -1.68627,-5.00521 -3.16336,-8.22784 -3.99697,-10.37379 0.0279,-0.0141 0.0501,-0.0233 0.0829,-0.0321 2.70016,-0.8957 6.64669,3.6823 8.81804,10.2175 2.16535,6.54008 1.72649,12.56376 -0.97332,13.45922" />
    <path
       id="path4103"
       style="fill:#938a16;fill-opacity:1;fill-rule:nonzero;stroke:none;stroke-width:0.0352778"
       d="m 271.69618,166.77395 -0.0194,-0.005 -6.03391,-3.0293 -0.0198,-0.0589 0.0589,-0.0194 6.03391,3.0293 0.0197,0.0589 -0.0395,0.0243" />
    <path
       id="path4105"
       style="fill:#938a16;fill-opacity:1;fill-rule:nonzero;stroke:none;stroke-width:0.0352778"
       d="m 269.65889,161.02332 -0.018,-0.004 -0.0222,-0.0582 1.41676,-3.21839 0.0582,-0.0222 0.0226,0.0582 -1.41711,3.21839 -0.0402,0.0261" />
    <path
       id="path4107"
       style="fill:#938a16;fill-opacity:1;fill-rule:nonzero;stroke:none;stroke-width:0.0352778"
       d="m 275.44656,180.69315 -0.043,-0.0357 c -0.44167,-2.18433 -0.95108,-4.38284 -1.51447,-6.53479 -1.53106,-5.84729 -3.53448,-11.6399 -5.95524,-17.21696 l 0.0229,-0.0579 0.0578,0.0229 c 2.42253,5.58095 4.42772,11.37814 5.95983,17.22999 0.56374,2.15303 1.0735,4.35296 1.51518,6.53976 l -0.0346,0.0515 -0.008,0.001" />
    <path
       id="path4109"
       style="fill:#d6cb43;fill-opacity:1;fill-rule:nonzero;stroke:none;stroke-width:0.0352778"
       d="m 282.24459,178.1613 c -0.14711,-0.004 -0.29386,-0.008 -0.44344,-0.0407 -3.12032,-0.5213 -5.61128,-6.80434 -5.6582,-14.49133 -0.0526,-7.94632 2.54846,-14.43355 5.82224,-14.58877 0.036,-0.006 0.0642,-0.008 0.10407,-0.006 3.32176,-0.0212 6.05473,6.48688 6.10976,14.52845 0.0469,8.04548 -2.61267,14.5778 -5.93443,14.59833" />
    <path
       id="path4111"
       style="fill:#d6cb43;fill-opacity:1;fill-rule:nonzero;stroke:none;stroke-width:0.0352778"
       d="m 282.24459,178.1613 c -0.14711,-0.004 -0.29386,-0.008 -0.44344,-0.0407 0.12947,-2.52469 0.9525,-7.41217 0.86289,-16.11693 -0.0681,-6.16726 -0.5468,-10.27889 -0.69885,-12.96317 0.036,-0.006 0.0642,-0.008 0.10407,-0.006 3.32176,-0.0212 6.05473,6.48688 6.10976,14.52845 0.0469,8.04548 -2.61267,14.5778 -5.93443,14.59833" />
    <path
       id="path4113"
       style="fill:#938a16;fill-opacity:1;fill-rule:nonzero;stroke:none;stroke-width:0.0352778"
       d="m 282.65487,161.35211 -0.031,-0.0127 -5.61023,-5.54073 -3.5e-4,-0.0624 0.0624,-3.5e-4 5.61023,5.54072 3.5e-4,0.0624 -0.0314,0.0131" />
    <path
       id="path4115"
       style="fill:#938a16;fill-opacity:1;fill-rule:nonzero;stroke:none;stroke-width:0.0352778"
       d="m 282.46508,154.22988 -0.0293,-0.0113 -0.004,-0.0621 2.73473,-3.06352 0.0621,-0.004 0.003,0.0621 -2.73474,3.06352 -0.0324,0.0148" />
    <path
       id="path4117"
       style="fill:#938a16;fill-opacity:1;fill-rule:nonzero;stroke:none;stroke-width:0.0352778"
       d="m 281.80115,178.16472 -0.0437,-0.0493 c 0.29703,-2.58092 0.52352,-5.20664 0.67415,-7.80478 0.40817,-7.04893 0.27129,-14.20573 -0.40604,-21.27187 l 0.0395,-0.048 0.048,0.0395 c 0.67803,7.07073 0.81491,14.23212 0.40675,21.28514 -0.15064,2.59969 -0.37747,5.22746 -0.67487,7.8106 l -0.0437,0.0387" />
    <path
       id="path4119"
       style="fill:#d6cb43;fill-opacity:1;fill-rule:nonzero;stroke:none;stroke-width:0.0352778"
       d="m 273.58072,181.10064 c -0.0448,0.0561 -0.0896,0.11286 -0.14605,0.16151 -1.12113,1.07004 -4.31482,0.20009 -7.3413,-2.03977 -3.12914,-2.31386 -4.9075,-5.23903 -4.00615,-6.56731 l 0.0279,-0.0426 c 0.96767,-1.30778 4.32082,-0.46676 7.48841,1.87385 3.16654,2.34527 4.94489,5.30613 3.97722,6.6143" />
    <path
       id="path4121"
       style="fill:#d6cb43;fill-opacity:1;fill-rule:nonzero;stroke:none;stroke-width:0.0352778"
       d="m 273.58072,181.10064 c -0.0448,0.0561 -0.0896,0.11286 -0.14605,0.16151 -0.95144,-0.79238 -2.62467,-2.55062 -6.06249,-5.07298 -2.43663,-1.78471 -4.18853,-2.80554 -5.28496,-3.5341 l 0.0279,-0.0426 c 0.96767,-1.30778 4.32082,-0.46676 7.48841,1.87385 3.16654,2.34527 4.94489,5.30613 3.97722,6.6143" />
    <path
       id="path4123"
       style="fill:#938a16;fill-opacity:1;fill-rule:nonzero;stroke:none;stroke-width:0.0352778"
       d="m 263.27749,176.60301 -0.0437,-0.0374 0.037,-0.0505 3.81953,-0.57047 0.0501,0.0375 -0.037,0.05 -3.81917,0.57051 -0.007,2.8e-4" />
    <path
       id="path4125"
       style="fill:#938a16;fill-opacity:1;fill-rule:nonzero;stroke:none;stroke-width:0.0352778"
       d="m 264.25045,174.01478 -0.043,-0.0353 -0.39759,-1.97171 0.0342,-0.052 0.0519,0.0346 0.39758,1.97168 -0.0346,0.0515 -0.008,0.001" />
    <path
       id="path4127"
       style="fill:#938a16;fill-opacity:1;fill-rule:nonzero;stroke:none;stroke-width:0.0352778"
       d="m 273.43467,181.30624 -0.0303,-0.012 c -0.92674,-0.8763 -1.88877,-1.73673 -2.85961,-2.55626 -2.6416,-2.22981 -5.48535,-4.27839 -8.45256,-6.08817 l -0.0145,-0.0607 0.0603,-0.0145 c 2.97074,1.81187 5.81872,3.8632 8.46385,6.0959 0.9719,0.82105 1.93533,1.68204 2.86314,2.55943 l 0.002,0.0624 -0.0321,0.0138" />
    <path
       id="path4129"
       style="fill:#210b04;fill-opacity:1;fill-rule:nonzero;stroke:none;stroke-width:0.0352778"
       d="m 295.53056,166.72315 c -0.90488,1.5518 -3.00108,2.70552 -5.01298,2.3308 -1.43369,-0.26705 -2.95733,-1.33456 -3.30517,-2.74919 -0.18098,-0.7359 0.13617,-0.83327 0.26141,-2.24967 0.23283,-2.63525 -0.71826,-3.97157 0.10442,-4.76038 0.15734,-0.15099 0.18062,-0.091 0.99413,-0.41875 1.76953,-0.71261 2.12196,-1.27212 2.61584,-1.25554 2.87655,0.0967 6.32037,5.70936 4.34235,9.10273" />
    <path
       id="path4131"
       style="fill:#210b04;fill-opacity:1;fill-rule:nonzero;stroke:none;stroke-width:0.0352778"
       d="m 290.98325,157.71391 c -0.21696,0 -0.41804,0.12312 -0.74507,0.32314 -0.36336,0.22225 -0.91228,0.55845 -1.83338,0.92957 -0.33691,0.13582 -0.53764,0.20462 -0.67063,0.25048 -0.18521,0.0639 -0.22402,0.0773 -0.30939,0.15875 -0.4385,0.42086 -0.35348,1.00894 -0.22507,1.89865 0.10654,0.73519 0.23883,1.65029 0.13405,2.83386 -0.0557,0.63183 -0.15099,1.00895 -0.22084,1.28411 -0.0871,0.34467 -0.1397,0.55245 -0.042,0.95109 0.35666,1.45034 1.91559,2.46415 3.27061,2.71632 2.12337,0.3962 4.14196,-0.89461 4.96676,-2.30886 0.90805,-1.55787 0.74824,-3.75814 -0.42757,-5.88645 -1.03293,-1.86937 -2.55482,-3.10586 -3.87773,-3.15031 z m 0.14217,11.50694 c -0.26388,0 -0.53058,-0.0237 -0.79975,-0.0737 -1.38324,-0.25795 -2.97462,-1.29617 -3.3401,-2.78204 -0.10336,-0.42051 -0.0487,-0.63641 0.042,-0.99448 0.0691,-0.27234 0.16334,-0.64523 0.21872,-1.26965 0.10337,-1.17369 -0.0279,-2.0828 -0.1337,-2.81375 -0.13264,-0.91687 -0.22013,-1.52294 0.25083,-1.9745 0.0998,-0.0956 0.15099,-0.11324 0.34219,-0.17886 0.13194,-0.0455 0.33197,-0.1143 0.6664,-0.24906 0.91405,-0.3683 1.43792,-0.68862 1.82033,-0.92287 0.33973,-0.20778 0.54928,-0.33619 0.78987,-0.33619 l 0.0236,3.5e-4 c 1.35325,0.0455 2.90442,1.29998 3.95217,3.19617 1.19098,2.15547 1.35043,4.3882 0.42686,5.97288 -0.73554,1.26157 -2.40524,2.42573 -4.25944,2.42573" />
    <path
       id="path4133"
       style="fill:#ffa300;fill-opacity:1;fill-rule:nonzero;stroke:none;stroke-width:0.0352778"
       d="m 292.93235,180.42966 c -1.61643,-1.74777 -3.23251,-3.49497 -4.84823,-5.24231 -0.0473,0.57506 -0.14464,1.18745 -0.31362,1.82425 -0.95708,3.60397 -3.62726,5.79395 -5.02249,6.76589 -0.84702,-0.64672 -1.69369,-1.29329 -2.54106,-1.93986 1.40546,-3.77652 2.78271,-6.65801 3.83187,-8.66249 0.78881,-1.50717 1.7907,-3.27946 3.31152,-3.38709 0.54222,-0.038 1.00683,0.14538 1.3268,0.31792 1.33491,0.61376 2.86562,1.4333 4.47287,2.53076 1.35255,0.92357 2.4959,1.86408 3.44382,2.73583 -1.22061,1.6856 -2.44122,3.37149 -3.66148,5.0571" />
    <path
       id="path4135"
       style="fill:#ffffff;fill-opacity:1;fill-rule:nonzero;stroke:none;stroke-width:0.0352778"
       d="m 287.94971,173.77416 c 0.55669,0.44485 1.11302,0.89037 1.66935,1.33561 1.53317,-1.74103 2.78659,-3.16688 4.09328,-4.6404 0.57644,-0.65059 1.17651,-1.32514 1.21179,-2.29595 0.0402,-1.1169 -0.6671,-2.5908 -1.65841,-2.5968 -0.62512,-0.004 -1.22696,0.57609 -1.58609,1.34126 -1.24354,2.28562 -2.48637,4.57052 -3.72992,6.85628" />
    <path
       id="path4137"
       style="fill:#ffa9a9;fill-opacity:1;fill-rule:nonzero;stroke:none;stroke-width:0.0352778"
       d="m 290.10448,174.39854 c -0.10901,0.61133 -0.82903,1.10493 -1.6323,0.94618 -0.58597,-0.17572 -1.18851,-0.40185 -1.81646,-0.66999 -0.56938,-0.24268 -1.1049,-0.51044 -1.60725,-0.79474 -1.80799,-0.99632 -3.21416,-2.16821 -4.27708,-3.22266 0.12559,-0.23428 0.25118,-0.47738 0.37642,-0.71163 0.17603,0.12566 0.51928,0.35994 0.97119,0.61102 1.25554,0.68654 2.25143,0.95429 3.64949,1.36468 0.63606,0.18369 1.36419,0.39328 2.24296,0.69452 0.34361,0.11715 0.87912,0.30938 1.54023,0.56059 0.41028,0.30166 0.63606,0.77858 0.5528,1.22203" />
    <path
       id="path4139"
       style="fill:#ffa9a9;fill-opacity:1;fill-rule:nonzero;stroke:none;stroke-width:0.0352778"
       d="m 288.28944,184.79779 c -0.56445,0.61486 -0.51188,1.58817 0.01,2.18225 0.39547,0.45117 1.02941,0.64728 1.65453,0.51883 0.20003,-0.22049 0.40746,-0.44415 0.62336,-0.66918 0.18133,-0.18976 0.36195,-0.37317 0.54046,-0.55136 0.0148,-0.10485 0.11712,-0.92742 -0.45579,-1.49116 -0.60184,-0.59337 -1.73214,-0.68696 -2.37208,0.0106" />
    <path
       id="path4141"
       style="fill:#ffa9a9;fill-opacity:1;fill-rule:nonzero;stroke:none;stroke-width:0.0352778"
       d="m 288.65774,184.50675 c 0.7246,0.62438 1.44921,1.24904 2.17346,1.87357 1.92264,-0.67384 4.35011,-1.77518 6.82308,-3.61915 1.08091,-0.80574 2.00483,-1.62994 2.78694,-2.41402 -1.72543,-1.19176 -3.45052,-2.38348 -5.17525,-3.57505 -1.45203,0.89214 -3.55388,2.47262 -5.22887,5.07005 -0.60396,0.93694 -1.04881,1.84506 -1.37936,2.6646" />
    <path
       id="path4143"
       style="fill:#ffa9a9;fill-opacity:1;fill-rule:nonzero;stroke:none;stroke-width:0.0352778"
       d="m 303.14244,185.65285 c 0.0557,-0.3605 0.11183,-0.72072 0.16792,-1.08119 -0.63253,-0.0735 -1.63477,-0.20189 -2.8582,-0.41494 -3.7786,-0.6569 -4.99569,-1.30527 -6.94514,-1.01603 -0.81033,0.1203 -1.99989,0.44069 -3.37714,1.39485 -0.11289,1.00129 -0.22578,2.0031 -0.33867,3.00468 2.38655,-0.50063 4.95089,-0.94891 7.68068,-1.30638 1.96709,-0.25756 3.8601,-0.4469 5.67055,-0.58099" />
    <path
       id="path4145"
       style="fill:#ffa9a9;fill-opacity:1;fill-rule:nonzero;stroke:none;stroke-width:0.0352778"
       d="m 306.1594,189.69078 0.14217,-5.66455 c -0.25259,-0.0646 -0.63147,-0.12005 -1.04246,0.007 -0.15487,0.0479 -0.25859,0.10432 -0.31503,0.13367 -0.29034,0.15018 -0.77823,0.32519 -1.63372,0.40432 -0.0561,0.36047 -0.11218,0.72069 -0.16792,1.08119 2.05458,1.42173 2.45357,2.20666 2.41124,2.66528 -0.0113,0.12347 -0.0864,0.57104 0.16122,0.96449 0.13123,0.20807 0.31115,0.33401 0.4445,0.40816" />
    <path
       id="path4147"
       style="fill:#ffa9a9;fill-opacity:1;fill-rule:nonzero;stroke:none;stroke-width:0.0352778"
       d="m 276.00713,185.30505 h 5.66631 c 0.0582,-0.25372 0.10407,-0.63475 -0.0332,-1.04182 -0.0519,-0.15336 -0.11112,-0.25577 -0.14181,-0.31144 -0.1577,-0.28649 -0.34467,-0.76976 -0.44521,-1.62316 -0.36195,-0.0469 -0.72319,-0.0941 -1.08514,-0.14111 -1.36949,2.08978 -2.14454,2.50857 -2.6035,2.47798 -0.12383,-0.009 -0.57362,-0.0721 -0.96027,0.18507 -0.20496,0.13656 -0.32631,0.3193 -0.39722,0.45448" />
    <path
       id="path4149"
       style="fill:#ffa9a9;fill-opacity:1;fill-rule:nonzero;stroke:none;stroke-width:0.0352778"
       d="m 301.44593,178.55045 c -0.15028,0.41836 -0.43497,1.07128 -1.00435,1.79945 -1.86655,-0.9543 -3.72463,-1.89978 -5.59118,-2.85394 -0.66146,-3.92575 -1.32256,-7.85992 -1.99214,-11.7941 -0.44379,-0.68615 -0.90417,-1.37266 -1.35607,-2.05881 -0.17569,-0.26811 -0.34326,-0.52741 -0.51894,-0.79552 0.61101,-0.40992 1.22202,-0.82021 1.83303,-1.23013 0.52741,0.52705 1.38078,1.41464 2.35197,2.56116 2.87091,3.40678 7.98513,9.46676 6.27768,14.37189" />
    <path
       id="path4151"
       style="fill:#210b04;fill-opacity:1;fill-rule:nonzero;stroke:none;stroke-width:0.0352778"
       d="m 293.18458,164.3292 c 0,0.55245 -0.12559,1.04634 -0.32632,1.37266 -0.44379,-0.68615 -0.90417,-1.37266 -1.35607,-2.05881 0.13405,-0.63641 0.44379,-1.08021 0.80327,-1.08021 0.48578,0 0.87912,0.78705 0.87912,1.76636" />
    <path
       id="path4153"
       style="fill:#ffa9a9;fill-opacity:1;fill-rule:nonzero;stroke:none;stroke-width:0.0352778"
       d="m 289.02498,163.46348 c 0.17074,0.43851 0.45226,0.69321 0.8121,1.01883 0.0642,0.0582 0.83467,0.74436 1.3917,0.72566 0.1958,-0.007 0.37853,-0.0628 0.37853,-0.0628 0.12312,-0.0385 0.2346,-0.0921 0.34185,-0.15769 0.12805,-0.078 1.10066,-0.762 1.55151,-1.89724 0.5588,-1.40758 0.49142,-3.94158 -1.15182,-4.84046 -1.01388,-0.55386 -2.16076,-0.23036 -2.60597,-0.0758 -0.0476,0.019 -0.10195,0.0413 -0.16086,0.0681 0,0 -0.22755,0.10372 -0.42545,0.23072 -0.71685,0.45861 -0.9652,1.05903 -0.9652,1.05903 -0.23954,0.57856 -0.10866,1.20827 0.0593,1.6884 0.0321,0.0924 0.066,0.17992 0.0988,0.25964 0.037,0.091 0.0727,0.17251 0.10336,0.24342 0.0921,0.21061 0.17251,0.34008 0.28434,0.65617 0.19968,0.56268 0.15346,0.73766 0.28787,1.08408" />
    <path
       id="path4155"
       style="fill:#ffa9a9;fill-opacity:1;fill-rule:nonzero;stroke:none;stroke-width:0.0352778"
       d="m 294.21928,160.65714 c 0.15028,0.42474 0.018,0.85936 -0.29598,0.97013 -0.31362,0.11113 -0.68968,-0.14358 -0.83996,-0.56867 -0.15029,-0.4251 -0.018,-0.85972 0.29598,-0.97014 0.31362,-0.11113 0.68932,0.14358 0.83996,0.56868" />
    <path
       id="path4157"
       style="fill:#210b04;fill-opacity:1;fill-rule:nonzero;stroke:none;stroke-width:0.0352778"
       d="m 293.7709,161.69748 c -0.0455,0 -0.0928,-0.006 -0.14041,-0.0184 l -0.0317,-0.054 0.0536,-0.0317 c 0.0896,0.0236 0.17603,0.0208 0.25611,-0.008 0.17286,-0.061 0.29351,-0.23672 0.32209,-0.46955 l 0.0494,-0.0384 0.0381,0.0494 c -0.0328,0.2667 -0.17498,0.46919 -0.37994,0.54186 -0.054,0.019 -0.10972,0.0286 -0.16722,0.0286" />
    <path
       id="path4159"
       style="fill:#210b04;fill-opacity:1;fill-rule:nonzero;stroke:none;stroke-width:0.0352778"
       d="m 294.28137,161.05472 -0.0441,-0.0441 c 0,-0.0928 -0.0134,-0.18627 -0.0406,-0.2787 l 0.03,-0.0547 0.055,0.03 c 0.0289,0.10054 0.0437,0.20249 0.0437,0.30339 l -0.0441,0.0441" />
    <path
       id="path4161"
       style="fill:#210b04;fill-opacity:1;fill-rule:nonzero;stroke:none;stroke-width:0.0352778"
       d="m 294.18647,160.61939 -0.0402,-0.0265 c -0.15981,-0.35877 -0.48402,-0.55951 -0.75213,-0.46284 -0.0596,0.0208 -0.11289,0.0547 -0.15875,0.10124 l -0.0624,3.6e-4 -3.5e-4,-0.0624 c 0.0554,-0.0561 0.1203,-0.0974 0.19226,-0.12241 0.3108,-0.11042 0.68298,0.1083 0.86184,0.51047 l -0.0222,0.0582 -0.018,0.004" />
    <path
       id="path4163"
       style="fill:#210b04;fill-opacity:1;fill-rule:nonzero;stroke:none;stroke-width:0.0352778"
       d="m 293.6633,161.31189 -0.0441,-0.0462 0.0349,-0.80539 0.0462,-0.042 0.042,0.0462 -0.0349,0.80504 -0.0441,0.0423" />
    <path
       id="path4165"
       style="fill:#210b04;fill-opacity:1;fill-rule:nonzero;stroke:none;stroke-width:0.0352778"
       d="m 293.65942,160.84799 -0.0279,-0.01 -0.21484,-0.17357 -0.006,-0.0624 0.0621,-0.007 0.21484,0.17427 0.006,0.0621 -0.0342,0.0162" />
    <path
       id="path4167"
       style="fill:#210b04;fill-opacity:1;fill-rule:nonzero;stroke:none;stroke-width:0.0352778"
       d="m 291.08379,161.61881 c 0.0621,0.14852 0.25577,0.21272 0.43251,0.14428 0.17674,-0.0688 0.26987,-0.24482 0.20814,-0.39334 -0.0621,-0.14852 -0.25577,-0.21343 -0.43251,-0.14464 -0.17674,0.0688 -0.27023,0.24483 -0.20814,0.3937" />
    <path
       id="path4169"
       style="fill:#210b04;fill-opacity:1;fill-rule:nonzero;stroke:none;stroke-width:0.0352778"
       d="m 290.92398,161.72111 -0.0183,-0.004 -0.26423,-0.11959 -0.0222,-0.0582 0.0582,-0.0222 0.20567,0.0928 c 0.005,-0.0473 0.0173,-0.0921 0.0363,-0.1337 0.12911,-0.28082 0.56938,-0.41099 1.12254,-0.33514 l 0.0377,0.0501 -0.0501,0.0374 c -0.50624,-0.072 -0.91899,0.0437 -1.03011,0.28469 -0.0222,0.049 -0.0328,0.1023 -0.0314,0.16263 l -0.0197,0.0377 -0.0244,0.007" />
    <path
       id="path4171"
       style="fill:#210b04;fill-opacity:1;fill-rule:nonzero;stroke:none;stroke-width:0.0352778"
       d="m 288.73359,162.60165 c 0.0621,0.14852 0.25576,0.21307 0.4325,0.14428 0.17674,-0.0684 0.26988,-0.24482 0.20814,-0.39334 -0.0621,-0.14852 -0.25576,-0.21343 -0.43251,-0.14429 -0.17709,0.0688 -0.27022,0.24483 -0.20813,0.39335" />
    <path
       id="path4173"
       style="fill:#210b04;fill-opacity:1;fill-rule:nonzero;stroke:none;stroke-width:0.0352778"
       d="m 288.57378,162.70395 -0.018,-0.004 -0.26494,-0.11959 -0.0219,-0.0586 0.0586,-0.0219 0.20532,0.0928 c 0.005,-0.0473 0.0176,-0.0921 0.0363,-0.13371 0.12947,-0.28045 0.56903,-0.41239 1.12254,-0.33478 l 0.0374,0.0501 -0.0498,0.0374 c -0.50412,-0.0713 -0.91898,0.0434 -1.03011,0.28469 -0.0222,0.048 -0.0328,0.10266 -0.0314,0.16228 l -0.0197,0.0377 -0.0243,0.007" />
    <path
       id="path4175"
       style="fill:#210b04;fill-opacity:1;fill-rule:nonzero;stroke:none;stroke-width:0.0352778"
       d="m 291.8532,160.35763 c -0.22931,0.0307 -0.54187,0.0942 -0.89076,0.23495 -0.29986,0.121 -0.53623,0.26246 -0.70768,0.3817 -0.0145,-0.0406 -0.0272,-0.0885 -0.0335,-0.14428 -0.0155,-0.13406 0.0131,-0.2473 0.0395,-0.32033 0.23883,-0.0935 0.44274,-0.1591 0.59302,-0.20355 0.36442,-0.10795 0.4759,-0.10971 0.54963,-0.10477 0.20743,0.0138 0.36124,0.097 0.44979,0.15628" />
    <path
       id="path4177"
       style="fill:#210b04;fill-opacity:1;fill-rule:nonzero;stroke:none;stroke-width:0.0352778"
       d="m 290.12424,160.55518 c -0.008,0.0452 -0.0148,0.11078 -0.009,0.18874 0.0106,0.13582 0.0582,0.25647 0.0723,0.25329 0.0159,-0.004 3.5e-4,-0.16439 -0.004,-0.21166 -0.007,-0.0702 -0.0162,-0.13018 -0.005,-0.21908 l 0.008,-0.0515 -0.0628,0.0402" />
    <path
       id="path4179"
       style="fill:#210b04;fill-opacity:1;fill-rule:nonzero;stroke:none;stroke-width:0.0352778"
       d="m 288.25063,161.22017 c 0.0321,0.0924 0.066,0.17992 0.0988,0.25964 0.0907,-0.0272 0.18733,-0.0518 0.28998,-0.0734 0.31609,-0.066 0.59091,-0.0794 0.8001,-0.0766 -0.0106,-0.0413 -0.0268,-0.0885 -0.0522,-0.13793 -0.0614,-0.11995 -0.14852,-0.19826 -0.21096,-0.24448 -0.25082,0.0554 -0.45649,0.1143 -0.60607,0.16052 -0.14393,0.0448 -0.24589,0.0815 -0.31962,0.11218" />
    <path
       id="path4181"
       style="fill:#210b04;fill-opacity:1;fill-rule:nonzero;stroke:none;stroke-width:0.0352778"
       d="m 289.31496,160.90937 c 0.0314,0.0335 0.0744,0.084 0.11219,0.1524 0.0667,0.11854 0.0942,0.24518 0.0804,0.25047 -0.0148,0.006 -0.0914,-0.13617 -0.11395,-0.17815 -0.0332,-0.0621 -0.0586,-0.11747 -0.11747,-0.18521 l -0.036,-0.0381 0.0748,-10e-4" />
    <path
       id="path4183"
       style="fill:#210b04;fill-opacity:1;fill-rule:nonzero;stroke:none;stroke-width:0.0352778"
       d="m 290.51511,162.85 c -0.0988,-0.0176 -0.1845,0.001 -0.26775,0.0282 -0.0811,0.0307 -0.15981,0.0702 -0.22543,0.14605 0.0988,0.018 0.1845,-7e-4 0.26705,-0.0282 0.0819,-0.031 0.16016,-0.0705 0.22613,-0.14605" />
    <path
       id="path4185"
       style="fill:#d82e2e;fill-opacity:1;fill-rule:nonzero;stroke:none;stroke-width:0.0352778"
       d="m 290.09354,163.8526 c 0.0473,0.0963 0.37607,0.0487 0.62372,-0.0402 0.31679,-0.11324 0.58843,-0.32526 0.5662,-0.37077 -0.008,-0.0159 -0.0444,0.003 -0.12594,0.002 -0.26423,-7.1e-4 -0.38523,-0.20249 -0.51399,-0.14429 -0.0229,0.0106 -0.0829,0.0455 -0.14958,0.0635 l -0.0579,0.0134 c -0.10936,0.0215 -0.12065,0.004 -0.1591,0.025 -0.0688,0.0543 -0.12171,0.25117 -0.12171,0.25117 -0.0416,0.15875 -0.0776,0.16722 -0.0617,0.19968" />
    <path
       id="path4187"
       style="fill:#210b04;fill-opacity:1;fill-rule:nonzero;stroke:none;stroke-width:0.0352778"
       d="m 290.6594,164.25617 -0.0437,-0.0384 0.0381,-0.0494 c 0.0603,-0.007 0.11994,-0.0201 0.17674,-0.0381 0.13123,-0.0406 0.25259,-0.10795 0.36159,-0.19896 l 0.0621,0.006 -0.006,0.0621 c -0.11783,0.0988 -0.24941,0.1711 -0.39158,0.21519 -0.0617,0.0198 -0.12665,0.0335 -0.19192,0.0416 l -0.006,3.5e-4" />
    <path
       id="path4189"
       style="fill:#210b04;fill-opacity:1;fill-rule:nonzero;stroke:none;stroke-width:0.0352778"
       d="m 290.12918,163.89705 c -0.0473,0 -0.0938,-0.002 -0.14112,-0.005 l -0.0406,-0.0476 0.0441,-0.0406 c 0.27587,0.0205 0.5528,-0.0219 0.80398,-0.12347 0.22014,-0.0885 0.42475,-0.22437 0.59232,-0.393 l 0.0621,-3.5e-4 3.5e-4,0.0624 c -0.17604,0.1771 -0.39088,0.31962 -0.6216,0.41311 -0.22048,0.0889 -0.45967,0.13476 -0.69955,0.13476" />
    <path
       id="path4191"
       style="fill:#ffa300;fill-opacity:1;fill-rule:nonzero;stroke:none;stroke-width:0.0352778"
       d="m 296.94908,183.4349 c -2.88502,0.37014 -5.77039,0.74013 -8.65576,1.1103 0.77364,-1.6239 1.85067,-3.52573 3.35351,-5.4974 0.98425,-1.29195 1.97873,-2.38693 2.9083,-3.30303 2.4585,0.0384 4.91701,0.0772 7.37482,0.11603 0.10336,0.71931 0.18168,2.0217 -0.38347,3.45267 -1.17617,2.97847 -4.13632,3.9744 -4.5974,4.12143" />
    <path
       id="path4193"
       style="fill:#ffa300;fill-opacity:1;fill-rule:nonzero;stroke:none;stroke-width:0.0352778"
       d="m 302.25274,187.96284 c -3.93242,0.16539 -7.86483,0.3313 -11.79689,0.49707 -0.12877,-0.0151 -1.65206,-0.21911 -2.32798,-1.54312 -0.59055,-1.15701 -0.28152,-2.67187 0.80609,-3.64064 2.22603,-0.467 5.59365,-0.86046 9.52571,-0.10018 1.74943,0.33831 3.26531,0.83784 4.52296,1.35639 -0.24341,1.14335 -0.48648,2.28674 -0.72989,3.43048" />
    <path
       id="path4195"
       style="fill:#ffffff;fill-opacity:1;fill-rule:nonzero;stroke:none;stroke-width:0.0352778"
       d="m 303.9877,176.97699 c -0.39123,0.42541 -1.05692,1.06331 -2.02283,1.60404 -0.44838,0.2515 -4.28801,2.33056 -6.99488,0.36231 -1.26506,-0.91973 -1.75507,-2.34033 -1.95051,-3.27452 -0.054,-3.32204 -0.10759,-6.64447 -0.16122,-9.96696 0.2159,0.0229 0.54646,0.0222 0.89359,-0.12947 0.98002,-0.43004 1.12466,-1.64924 1.13277,-1.72508 0.96732,0.623 1.98967,1.39453 3.00002,2.35267 3.91831,3.71761 5.45642,8.16289 6.10306,10.77701" />
    <path
       id="path4197"
       style="fill:#210b04;fill-opacity:1;fill-rule:nonzero;stroke:none;stroke-width:0.0352778"
       d="m 291.31909,184.35184 -0.0434,-0.0353 0.0349,-0.0522 6.27768,-1.2379 0.0519,0.0349 -0.0346,0.052 -6.27768,1.23789 -0.009,6.7e-4" />
    <path
       id="path4199"
       style="fill:#210b04;fill-opacity:1;fill-rule:nonzero;stroke:none;stroke-width:0.0352778"
       d="m 291.31909,184.35184 -0.94861,-0.35344 -0.0258,-0.0569 0.0568,-0.0256 0.9331,0.35055 0.0258,0.0568 -0.0413,0.0286" />
    <path
       id="path4201"
       style="fill:#210b04;fill-opacity:1;fill-rule:nonzero;stroke:none;stroke-width:0.0352778"
       d="m 290.98325,184.97266 -0.0229,-0.007 -0.0145,-0.0607 0.30973,-0.50549 0.0603,-0.0145 0.0145,0.0606 -0.30938,0.5056 -0.0378,0.0211" />
    <path
       id="path4203"
       style="fill:#210b04;fill-opacity:1;fill-rule:nonzero;stroke:none;stroke-width:0.0352778"
       d="m 291.5544,179.47995 -0.0328,-0.0145 0.003,-0.0624 1.67393,-1.51737 0.0625,0.003 -0.003,0.0624 -1.67393,1.51694 -0.0296,0.0116" />
    <path
       id="path4205"
       style="fill:#210b04;fill-opacity:1;fill-rule:nonzero;stroke:none;stroke-width:0.0352778"
       d="m 281.99835,185.5043 h -7.27181 c 0.1323,-0.21029 0.34749,-0.50162 0.68016,-0.76757 0.54892,-0.4389 1.06468,-0.52529 1.69157,-0.73241 0.47343,-0.15628 1.12959,-0.42044 1.88348,-0.88938 -0.0409,-0.35444 -0.0815,-0.70902 -0.12241,-1.06359 0.0755,-0.03 0.30091,-0.10873 0.54045,-0.0172 0.30551,0.11603 0.50906,0.45999 0.4886,0.85439 0.56656,0.29214 1.13347,0.58413 1.70003,0.87588 0.12171,0.21346 0.27094,0.53206 0.35314,0.94188 0.0631,0.31337 0.0688,0.58773 0.0568,0.79802" />
    <path
       id="path4207"
       style="fill:#210b04;fill-opacity:1;fill-rule:nonzero;stroke:none;stroke-width:0.0352778"
       d="m 306.4194,183.47018 c -0.0374,2.073 -0.0748,4.14581 -0.11219,6.21909 -0.65863,-0.0222 -1.31656,-0.0437 -1.97485,-0.0656 0.001,-0.20451 0.0363,-0.4946 0.22225,-0.74539 0.21837,-0.29531 0.47519,-0.29697 0.57538,-0.47103 0.13653,-0.2377 0.0226,-0.73903 -1.06433,-1.89258 -0.35419,0.0448 -0.70802,0.0896 -1.06221,0.13434 -0.031,-0.0751 -0.11183,-0.29986 -0.0236,-0.54046 0.11254,-0.30688 0.45438,-0.51385 0.84879,-0.49844 0.28539,-0.57009 0.57079,-1.13979 0.85654,-1.70988 0.21167,-0.12414 0.52846,-0.27696 0.93733,-0.36406 0.31256,-0.0667 0.58702,-0.0751 0.79693,-0.066" />
    <path
       id="path4209"
       style="fill:#210b04;fill-opacity:1;fill-rule:nonzero;stroke:none;stroke-width:0.0352778"
       d="m 294.1205,160.26591 c -0.45437,0.67415 -2.15124,0.18908 -3.98921,-0.27059 -1.08444,-0.27093 -2.48179,-0.62053 -2.49767,-1.14935 -0.018,-0.58913 1.92159,-1.01988 2.49767,-1.14899 1.22873,-0.27517 1.96109,-0.43886 2.70369,-0.0406 1.04211,0.5588 1.69404,2.00342 1.28552,2.6095" />
    <path
       id="path4211"
       style="fill:#210b04;fill-opacity:1;fill-rule:nonzero;stroke:none;stroke-width:0.0352778"
       d="m 285.76637,188.63174 c -2.66065,0.38767 -6.60329,0.81348 -11.4046,0.7644 -5.94536,-0.0604 -11.84522,-0.83467 -11.89284,-1.84573 -0.0198,-0.41659 0.97719,-0.38269 1.88348,-1.56944 1.00647,-1.31879 0.52034,-2.3362 1.56915,-3.55741 0.53587,-0.62371 0.85161,-0.57824 1.84856,-1.25553 1.55222,-1.05421 2.36396,-2.23517 2.99931,-3.06889 4.32153,-5.67298 7.23089,-9.48161 9.48161,-9.1725 3.47663,0.47695 5.07189,10.74208 5.4229,15.38456 0.12947,1.71278 0.12912,3.18601 0.0924,4.32054" />
    <path
       id="path4213"
       style="fill:#725e0a;fill-opacity:1;fill-rule:nonzero;stroke:none;stroke-width:0.0352778"
       d="m 284.92288,185.80734 c -0.17745,0.25756 -0.42686,0.48549 -0.42686,0.48549 -0.79481,0.69494 -2.09233,1.19722 -2.77883,0.73695 -0.67769,-0.46895 -0.25083,-1.57385 -0.49389,-2.83778 -0.0335,-0.17572 -0.0755,-0.34329 -0.13406,-0.50228 -0.0836,-0.24243 -0.19226,-0.46856 -0.31785,-0.67815 -0.34325,-0.56899 -0.82867,-1.00404 -1.37301,-1.3976 -0.91228,-0.66146 -1.98367,-1.18015 -2.80388,-1.92514 -0.38523,-0.35179 -0.71966,-0.75322 -0.95426,-1.24711 -0.25929,-0.53551 -0.37642,-1.13841 -0.38488,-1.78332 -0.024,-1.85526 2.19322,-7.88667 4.99709,-7.73356 2.35903,0.12802 3.60857,4.55083 4.89339,9.09849 0,0 1.49542,5.29279 -0.22296,7.78401" />
    <path
       id="path4215"
       style="fill:#ffffff;fill-opacity:1;fill-rule:nonzero;stroke:none;stroke-width:0.0352778"
       d="m 290.10448,174.39854 c -0.10901,0.61133 -0.82903,1.10493 -1.6323,0.94618 -0.58597,-0.17572 -1.18851,-0.40185 -1.81646,-0.66999 -0.56938,-0.24268 -1.1049,-0.51044 -1.60725,-0.79474 0.2346,-0.64491 0.47695,-1.30595 0.72002,-1.95859 0.63606,0.18369 1.36419,0.39328 2.24296,0.69452 0.34361,0.11715 0.87912,0.30938 1.54023,0.56059 0.41028,0.30166 0.63606,0.77858 0.5528,1.22203" />
    <path
       id="path4217"
       style="fill:#ffffff;fill-opacity:1;fill-rule:nonzero;stroke:none;stroke-width:0.0352778"
       d="m 297.76858,175.48721 c 0.65299,-0.28155 1.30598,-0.56265 1.95862,-0.84349 0.054,-1.49186 -0.0152,-3.24736 -0.35454,-5.1809 -0.13794,-0.78697 -0.30692,-1.52396 -0.49283,-2.20768 -0.42545,-1.22202 -1.4471,-1.72473 -1.94945,-1.50178 -0.44591,0.19791 -0.71155,1.06857 -0.42792,2.03267 0.42192,2.56689 0.8442,5.1343 1.26612,7.70118" />
    <path
       id="path4219"
       style="fill:#ffa9a9;fill-opacity:1;fill-rule:nonzero;stroke:none;stroke-width:0.0352778"
       d="m 289.42503,178.05889 c 0.0984,0.25234 0.19756,0.50422 0.29633,0.75614 1.90571,-0.15391 4.33847,-0.61598 6.88093,-1.85815 0.61066,-0.29848 1.17334,-0.61489 1.69016,-0.93846 -0.31432,-0.63747 -0.62794,-1.2748 -0.94227,-1.91269 -0.64734,0.17184 -1.13947,0.36269 -1.42628,0.48232 -2.36326,0.98598 -3.08469,2.26162 -5.40173,3.13048 -0.48613,0.18274 -0.8883,0.28924 -1.09714,0.34036" />
    <path
       id="path4221"
       style="fill:#ffffff;fill-opacity:1;fill-rule:nonzero;stroke:none;stroke-width:0.0352778"
       d="m 293.49256,180.52696 -3.20993,4.80067 c -1.0033,-0.56279 -2.05846,-1.20125 -3.14783,-1.92444 -1.1804,-0.78465 -2.25355,-1.57124 -3.22228,-2.33535 1.06998,-1.60059 2.14031,-3.20076 3.21028,-4.80067 0.84879,0.85548 1.9939,1.85028 3.47204,2.77385 1.0407,0.65017 2.02953,1.12998 2.89772,1.48594" />
    <path
       id="path4223"
       style="fill:#3d6b68;fill-opacity:1;fill-rule:nonzero;stroke:none;stroke-width:0.0352778"
       d="m 293.75679,180.70335 c -0.03,0.09 -0.0596,0.18027 -0.0896,0.27022 -0.0885,0.0244 -0.1778,0.0491 -0.2667,0.0735 -0.0258,0.14637 -0.0508,0.29313 -0.0762,0.43946 -0.11606,0.052 -0.23248,0.10336 -0.34854,0.1549 -0.0257,0.11921 -0.0508,0.23855 -0.0762,0.35814 -0.0995,0.0536 -0.19897,0.10749 -0.29845,0.16112 -0.0286,0.13091 -0.0568,0.2614 -0.0854,0.39232 -0.1009,0.0395 -0.20214,0.0784 -0.30339,0.11755 0.01,0.12195 0.0183,0.24405 0.0279,0.36614 -0.11077,0.0737 -0.22084,0.14718 -0.33161,0.22091 0.0159,0.10153 0.0321,0.2031 0.0483,0.30466 -0.14041,0.0809 -0.28011,0.16235 -0.42016,0.24352 -0.008,0.0966 -0.0166,0.1929 -0.0251,0.28992 -0.10477,0.0593 -0.2092,0.11853 -0.31397,0.17819 -0.0113,0.10653 -0.0226,0.21276 -0.0342,0.31929 -0.09,0.0557 -0.17992,0.11106 -0.26988,0.16648 -0.0247,0.11328 -0.049,0.22655 -0.0737,0.33941 -0.067,0.0215 -0.1344,0.0427 -0.20143,0.0645 -0.0236,0.11327 -0.048,0.22683 -0.0716,0.34078 -0.0882,-0.0588 -0.17603,-0.11783 -0.26423,-0.17667 l 3.20993,-4.80067 0.26423,0.17639" />
    <path
       id="path4225"
       style="fill:#3d6b68;fill-opacity:1;fill-rule:nonzero;stroke:none;stroke-width:0.0352778"
       d="m 283.55834,180.8234 c 0.0335,-0.089 0.0667,-0.17752 0.0995,-0.26639 0.09,-0.0212 0.17992,-0.0423 0.26987,-0.0635 0.0307,-0.14538 0.0614,-0.29104 0.0924,-0.43642 0.11783,-0.0473 0.23601,-0.0945 0.35419,-0.14182 0.0296,-0.1185 0.0596,-0.23675 0.0892,-0.35482 0.10125,-0.0502 0.20285,-0.10019 0.3041,-0.15036 0.0335,-0.1294 0.0667,-0.25922 0.0998,-0.38872 0.10266,-0.0357 0.20497,-0.0706 0.30763,-0.10612 -0.005,-0.12252 -0.01,-0.24419 -0.0141,-0.36657 0.11288,-0.0696 0.22648,-0.13945 0.33937,-0.20849 -0.012,-0.10238 -0.0243,-0.20437 -0.0367,-0.30621 0.14287,-0.0762 0.28575,-0.15212 0.42862,-0.22832 0.0123,-0.0959 0.024,-0.19184 0.036,-0.28815 0.10689,-0.0558 0.21307,-0.11123 0.31997,-0.1669 0.0155,-0.10583 0.031,-0.21167 0.0466,-0.3175 0.0921,-0.0522 0.18415,-0.10446 0.27588,-0.15667 0.0286,-0.11218 0.0571,-0.22394 0.0857,-0.33612 0.0684,-0.0192 0.13617,-0.0382 0.20426,-0.0572 0.0279,-0.11257 0.0561,-0.22504 0.0843,-0.33761 0.0857,0.062 0.17145,0.12418 0.25718,0.18659 -1.09644,1.57839 -2.19287,3.15708 -3.28966,4.73576 -0.11818,-0.0816 -0.236,-0.16302 -0.35418,-0.24444" />
    <path
       id="path4227"
       style="fill:#210b04;fill-opacity:1;fill-rule:nonzero;stroke:none;stroke-width:0.0352778"
       d="m 292.91365,171.21405 -0.0434,-0.0364 -0.52247,-2.87723 0.0356,-0.0513 0.0512,0.0353 0.52246,2.87733 -0.0356,0.0515 -0.008,7.1e-4" />
    <path
       id="path4229"
       style="fill:#210b04;fill-opacity:1;fill-rule:nonzero;stroke:none;stroke-width:0.0352778"
       d="m 297.2567,173.80227 -0.0434,-0.0356 -1.01142,-5.15165 0.0349,-0.0522 0.0519,0.035 1.01141,5.1515 -0.0346,0.0523 -0.009,6.7e-4" />
    <path
       id="path4231"
       style="fill:#210b04;fill-opacity:1;fill-rule:nonzero;stroke:none;stroke-width:0.0352778"
       d="m 300.44122,173.96035 -0.043,-0.0342 -1.27564,-5.49769 0.0332,-0.0529 0.0529,0.0332 1.27564,5.49769 -0.0332,0.0529 -0.01,9.9e-4" />
    <path
       id="path4233"
       style="fill:#ffffff;fill-opacity:1;fill-rule:nonzero;stroke:none;stroke-width:0.0352778"
       d="m 299.66335,176.03511 c -1.27318,0.46207 -2.546,0.92424 -3.81917,1.38631 -0.4184,-0.90689 -0.83715,-1.81349 -1.25554,-2.72024 0.10195,-0.11038 1.29857,-1.36454 2.87479,-1.07131 0.65263,0.12128 1.11372,0.46027 1.36278,0.68047 0.27904,0.57507 0.55809,1.14999 0.83714,1.72477" />
    <path
       id="path4235"
       style="fill:#ffa9a9;fill-opacity:1;fill-rule:nonzero;stroke:none;stroke-width:0.0352778"
       d="m 290.26394,178.99939 c 0.10019,0.41632 0.242,1.18114 -0.0522,1.36042 -0.48437,0.29559 -1.83269,-1.19489 -1.91841,-1.29053 -0.0183,-0.0765 -0.20355,-0.8872 0.24412,-1.27275 0.11607,-0.0995 0.24271,-0.14429 0.33161,-0.17459 0.46179,-0.15738 0.87983,-0.0337 1.06363,0.0353 0.50835,-0.11688 1.0167,-0.23333 1.52506,-0.34964 0.14605,0.49142 0.0261,1.01025 -0.3168,1.34221 -0.33902,0.32921 -0.76553,0.34823 -0.877,0.3496" />
    <path
       id="path4237"
       style="fill:#210b04;fill-opacity:1;fill-rule:nonzero;stroke:none;stroke-width:0.0352778"
       d="m 295.00703,174.68422 -0.0399,-0.0254 0.0215,-0.0586 2.21791,-1.04274 0.0586,0.0215 -0.0215,0.0586 -2.21791,1.0425 -0.0187,0.004" />
    <path
       id="path4239"
       style="fill:#210b04;fill-opacity:1;fill-rule:nonzero;stroke:none;stroke-width:0.0352778"
       d="m 296.29785,177.35167 -0.0402,-0.0258 0.0219,-0.0583 3.9236,-1.804 0.0582,0.0215 -0.0219,0.0582 -3.92359,1.80439 -0.018,0.004" />
    <path
       id="path4241"
       style="fill:#210b04;fill-opacity:1;fill-rule:nonzero;stroke:none;stroke-width:0.0352778"
       d="m 300.44122,174.94562 -0.0437,-0.0486 0.0593,-0.59091 0.048,-0.0395 0.0395,0.0484 -0.0593,0.59133 -0.0437,0.0394" />
    <path
       id="path4243"
       style="fill:#210b04;fill-opacity:1;fill-rule:nonzero;stroke:none;stroke-width:0.0352778"
       d="m 289.99794,180.26417 -0.0392,-0.0237 -0.68015,-1.30761 0.019,-0.0597 0.0596,0.019 0.6798,1.30779 -0.0187,0.0597 -0.0205,0.005" />
    <path
       id="path4245"
       style="fill:#210b04;fill-opacity:1;fill-rule:nonzero;stroke:none;stroke-width:0.0352778"
       d="m 289.29168,179.82638 -0.0392,-0.024 -0.36618,-0.72609 0.019,-0.0593 0.0593,0.0194 0.36618,0.7257 -0.0191,0.0592 -0.0201,0.005" />
    <path
       id="path4247"
       style="fill:#91b7b6;fill-opacity:1;fill-rule:nonzero;stroke:none;stroke-width:0.0352778"
       d="m 281.08113,176.6584 v 6.35317 h -0.30974 c -1.19697,-1.97513 -4.10139,-2.41046 -5.13115,-4.56985 -0.25929,-0.53551 -0.37642,-1.13841 -0.38488,-1.78332 h 5.82577" />
    <path
       id="path4249"
       style="fill:#ffa300;fill-opacity:1;fill-rule:nonzero;stroke:none;stroke-width:0.0352778"
       d="m 284.92288,185.80734 c -0.11712,0.1761 -0.25929,0.34325 -0.42686,0.48549 -0.79481,0.69494 -2.09233,1.19722 -2.77883,0.73695 -0.67769,-0.46895 -0.25083,-1.57385 -0.49389,-2.83778 -0.0836,-0.45187 -0.24271,-0.83718 -0.45191,-1.18043 -0.34325,-0.56899 -0.82867,-1.00404 -1.37301,-1.3976 l 2.91324,-1.36468 2.61126,5.55805" />
    <path
       id="path4251"
       style="fill:#ffffff;fill-opacity:1;fill-rule:nonzero;stroke:none;stroke-width:0.0352778"
       d="m 281.73377,179.15335 v 4.53637 h -0.64453 c -0.0836,-0.24243 -0.19226,-0.46856 -0.31785,-0.67815 -0.34325,-0.56899 -0.82867,-1.00404 -1.37301,-1.3976 -0.91228,-0.66146 -1.98367,-1.18015 -2.80388,-1.92514 v -0.53548 h 5.13927" />
    <path
       id="path4253"
       style="fill:#ffa9a9;fill-opacity:1;fill-rule:nonzero;stroke:none;stroke-width:0.0352778"
       d="m 283.91252,172.46034 c 0,0.21209 -0.4519,0.3835 -1.00929,0.3835 -0.55739,0 -1.00965,-0.17141 -1.00965,-0.3835 0,-0.21167 0.45226,-0.38379 1.00965,-0.38379 0.55739,0 1.00929,0.17212 1.00929,0.38379" />
    <g
       transform="translate(-174.60543,-135.06474)"
       id="g4333">
      <path
         d="m 200.74445,193.58153 c -6.54544,0 -12.67918,-1.94137 -16.2313,-6.43117 -9.97409,-12.60726 3.9885,-38.27706 13.36357,-39.05106 0.19579,-0.0159 0.40887,-0.0229 0.63641,-0.0229 0.63606,0 1.38607,0.0536 2.19428,0.10725 0.80786,0.0536 1.67499,0.10724 2.54423,0.10724 2.24402,0 4.50604,-0.35701 5.82966,-1.99319 0.64099,-0.79234 0.59337,-1.30563 1.46438,-2.02389 0.87383,-0.72072 1.92969,-1.0354 4.16948,-1.0354 0.99519,0 2.22356,0.0621 3.77366,0.17815 3.01378,0.22578 4.52085,0.33832 5.32836,0.51682 5.03555,1.11302 11.48115,5.30013 12.93107,11.39966 0.27411,1.15359 0.97861,4.81189 -2.95698,13.37342 -3.46217,7.5311 -6.77122,14.73066 -14.05785,19.46494 -5.22146,3.39259 -12.319,5.41016 -18.98897,5.41016"
         style="fill:#446b68;fill-opacity:1;fill-rule:nonzero;stroke:none;stroke-width:0.0352778"
         id="path4255" />
      <path
         d="m 217.1966,188.74037 h -28.3644 v -19.42003 h 28.3644 v 19.42003"
         style="fill:#ffffff;fill-opacity:1;fill-rule:nonzero;stroke:none;stroke-width:0.0352778"
         id="path4257" />
      <path
         d="m 193.73194,174.33888 h -4.39809 v -4.32675 h 4.39809 v 4.32675"
         style="fill:#91b7b6;fill-opacity:1;fill-rule:nonzero;stroke:none;stroke-width:0.0352778"
         id="path4259" />
      <path
         d="m 198.33392,174.33888 h -4.39808 v -4.32675 h 4.39808 v 4.32675"
         style="fill:#91b7b6;fill-opacity:1;fill-rule:nonzero;stroke:none;stroke-width:0.0352778"
         id="path4261" />
      <path
         d="m 202.92215,174.33888 h -4.39808 v -4.32675 h 4.39808 v 4.32675"
         style="fill:#91b7b6;fill-opacity:1;fill-rule:nonzero;stroke:none;stroke-width:0.0352778"
         id="path4263" />
      <path
         d="m 207.53789,174.33888 h -4.39808 v -4.32675 h 4.39808 v 4.32675"
         style="fill:#91b7b6;fill-opacity:1;fill-rule:nonzero;stroke:none;stroke-width:0.0352778"
         id="path4265" />
      <path
         d="m 212.07885,174.33888 h -4.39773 v -4.32675 h 4.39773 v 4.32675"
         style="fill:#91b7b6;fill-opacity:1;fill-rule:nonzero;stroke:none;stroke-width:0.0352778"
         id="path4267" />
      <path
         d="m 216.6946,174.33888 h -4.39773 v -4.32675 h 4.39773 v 4.32675"
         style="fill:#91b7b6;fill-opacity:1;fill-rule:nonzero;stroke:none;stroke-width:0.0352778"
         id="path4269" />
      <path
         d="m 193.73194,178.94732 h -4.39809 v -4.32689 h 4.39809 v 4.32689"
         style="fill:#91b7b6;fill-opacity:1;fill-rule:nonzero;stroke:none;stroke-width:0.0352778"
         id="path4271" />
      <path
         d="m 198.33392,178.94732 h -4.39808 v -4.32689 h 4.39808 v 4.32689"
         style="fill:#91b7b6;fill-opacity:1;fill-rule:nonzero;stroke:none;stroke-width:0.0352778"
         id="path4273" />
      <path
         d="m 202.92215,178.94732 h -4.39808 v -4.32689 h 4.39808 v 4.32689"
         style="fill:#91b7b6;fill-opacity:1;fill-rule:nonzero;stroke:none;stroke-width:0.0352778"
         id="path4275" />
      <path
         d="m 207.53789,178.94732 h -4.39808 v -4.32689 h 4.39808 v 4.32689"
         style="fill:#91b7b6;fill-opacity:1;fill-rule:nonzero;stroke:none;stroke-width:0.0352778"
         id="path4277" />
      <path
         d="m 212.07885,178.94732 h -4.39773 v -4.32689 h 4.39773 v 4.32689"
         style="fill:#91b7b6;fill-opacity:1;fill-rule:nonzero;stroke:none;stroke-width:0.0352778"
         id="path4279" />
      <path
         d="m 216.6946,178.94732 h -4.39773 v -4.32689 h 4.39773 v 4.32689"
         style="fill:#91b7b6;fill-opacity:1;fill-rule:nonzero;stroke:none;stroke-width:0.0352778"
         id="path4281" />
      <path
         d="m 193.73194,183.44027 h -4.39809 v -4.32689 h 4.39809 v 4.32689"
         style="fill:#91b7b6;fill-opacity:1;fill-rule:nonzero;stroke:none;stroke-width:0.0352778"
         id="path4283" />
      <path
         d="m 198.33392,183.44027 h -4.39808 v -4.32689 h 4.39808 v 4.32689"
         style="fill:#91b7b6;fill-opacity:1;fill-rule:nonzero;stroke:none;stroke-width:0.0352778"
         id="path4285" />
      <path
         d="m 202.92215,183.44027 h -4.39808 v -4.32689 h 4.39808 v 4.32689"
         style="fill:#91b7b6;fill-opacity:1;fill-rule:nonzero;stroke:none;stroke-width:0.0352778"
         id="path4287" />
      <path
         d="m 207.53789,183.44027 h -4.39808 v -4.32689 h 4.39808 v 4.32689"
         style="fill:#91b7b6;fill-opacity:1;fill-rule:nonzero;stroke:none;stroke-width:0.0352778"
         id="path4289" />
      <path
         d="m 212.07885,183.44027 h -4.39773 v -4.32689 h 4.39773 v 4.32689"
         style="fill:#91b7b6;fill-opacity:1;fill-rule:nonzero;stroke:none;stroke-width:0.0352778"
         id="path4291" />
      <path
         d="m 216.6946,183.44027 h -4.39773 v -4.32689 h 4.39773 v 4.32689"
         style="fill:#91b7b6;fill-opacity:1;fill-rule:nonzero;stroke:none;stroke-width:0.0352778"
         id="path4293" />
      <path
         d="m 193.73194,188.04857 h -4.39809 v -4.32675 h 4.39809 v 4.32675"
         style="fill:#91b7b6;fill-opacity:1;fill-rule:nonzero;stroke:none;stroke-width:0.0352778"
         id="path4295" />
      <path
         d="m 198.33392,188.04857 h -4.39808 v -4.32675 h 4.39808 v 4.32675"
         style="fill:#91b7b6;fill-opacity:1;fill-rule:nonzero;stroke:none;stroke-width:0.0352778"
         id="path4297" />
      <path
         d="m 202.92215,188.04857 h -4.39808 v -4.32675 h 4.39808 v 4.32675"
         style="fill:#91b7b6;fill-opacity:1;fill-rule:nonzero;stroke:none;stroke-width:0.0352778"
         id="path4299" />
      <path
         d="m 207.53789,188.04857 h -4.39808 v -4.32675 h 4.39808 v 4.32675"
         style="fill:#91b7b6;fill-opacity:1;fill-rule:nonzero;stroke:none;stroke-width:0.0352778"
         id="path4301" />
      <path
         d="m 212.07885,188.04857 h -4.39773 v -4.32675 h 4.39773 v 4.32675"
         style="fill:#91b7b6;fill-opacity:1;fill-rule:nonzero;stroke:none;stroke-width:0.0352778"
         id="path4303" />
      <path
         d="m 216.6946,188.04857 h -4.39773 v -4.32675 h 4.39773 v 4.32675"
         style="fill:#91b7b6;fill-opacity:1;fill-rule:nonzero;stroke:none;stroke-width:0.0352778"
         id="path4305" />
      <path
         d="m 213.28888,158.46815 c -0.48225,0.26105 -0.96485,0.52211 -1.4471,0.78317 0.31609,1.0287 0.51859,1.887 0.64665,2.48884 0.47766,2.24755 0.43638,3.38173 1.33314,4.46123 0.37571,0.45226 0.76729,0.70873 1.01389,0.87101 0.37888,0.24941 1.70285,1.12113 2.31916,0.64735 0.0656,-0.0505 0.40111,-0.32985 0.29421,-1.2379 -0.43991,-0.93557 -0.84807,-1.65418 -1.11583,-2.10397 -1.22555,-2.0581 -2.13254,-2.91429 -2.75555,-4.78684 -0.16051,-0.48295 -0.24518,-0.88618 -0.28857,-1.12289"
         style="fill:#ffa9a9;fill-opacity:1;fill-rule:nonzero;stroke:none;stroke-width:0.0352778"
         id="path4307" />
      <path
         d="m 225.56731,166.05217 -0.62865,0.52352 c -0.84279,0.6925 -1.99954,1.60584 -3.41948,2.61648 l -1.48272,-1.82767 c 1.06751,-1.15358 2.1403,-2.30117 3.2191,-3.45369 0.29421,-0.31645 0.59443,-0.63783 0.88864,-0.95392 1.60373,-0.65687 3.21804,-1.31233 4.82142,-1.96885 0.0363,0.0914 0.0889,0.24024 0.11606,0.43074 0.12277,0.90206 -0.39828,2.0059 -3.51437,4.63339"
         style="fill:#ffa9a9;fill-opacity:1;fill-rule:nonzero;stroke:none;stroke-width:0.0352778"
         id="path4309" />
      <path
         d="m 225.56731,166.05217 -0.54469,0.45367 c -0.59055,-0.86678 -1.17651,-1.72791 -1.76706,-2.59503 0.22401,0.0868 0.45508,0.16862 0.68439,0.2614 0.5408,0.62442 1.08197,1.24919 1.62736,1.87996"
         style="fill:#210b04;fill-opacity:1;fill-rule:nonzero;stroke:none;stroke-width:0.0352778"
         id="path4311" />
      <path
         d="m 225.73417,166.78171 c -0.93309,-1.08197 -1.8669,-2.16394 -2.79999,-3.24626 1.7346,-1.07738 3.46921,-2.15547 5.20417,-3.23356 0.1524,0.0554 0.86184,0.32808 1.16805,1.05163 0.073,0.17215 0.27799,0.83185 -0.72672,2.42817 -0.4766,0.75706 -1.3402,1.90641 -2.84551,3.00002"
         style="fill:#ffffff;fill-opacity:1;fill-rule:nonzero;stroke:none;stroke-width:0.0352778"
         id="path4313" />
      <path
         d="m 215.19176,188.53364 c 2.10538,0.006 4.21076,0.012 6.31614,0.0176 0.061,-0.23633 0.10936,-0.59062 -0.0356,-0.97014 -0.0547,-0.14316 -0.11713,-0.23813 -0.14958,-0.28995 -0.16616,-0.26705 -0.36372,-0.71685 -0.4699,-1.51127 -0.38171,-0.0438 -0.76341,-0.0875 -1.14512,-0.13133 -1.44604,1.94592 -2.26377,2.33535 -2.74849,2.30723 -0.3422,-0.0205 -0.67063,0.16895 -1.01318,0.17212 -0.22013,0.002 -0.49107,-0.019 -0.64735,0.15628 -0.072,0.0805 -0.097,0.17749 -0.10689,0.24942"
         style="fill:#ffa9a9;fill-opacity:1;fill-rule:nonzero;stroke:none;stroke-width:0.0352778"
         id="path4315" />
      <path
         d="m 219.30057,186.27064 c 0.52775,0.0183 1.05586,0.0373 1.58361,0.0561 0.009,-0.39455 0.0321,-1.00722 0.096,-1.75165 0.33126,-3.84707 1.20685,-5.18968 1.15394,-7.46234 -0.0233,-1.01314 -0.23989,-2.52194 -1.22767,-4.36482 -1.11337,-2.89743 -1.90324,-4.29574 -2.37031,-4.19526 -0.40323,0.0868 -0.56551,1.29077 -0.48719,3.61166 0.26564,1.57801 0.50059,3.23014 0.69356,4.95131 0.36548,3.2639 0.52881,6.32919 0.5581,9.15501"
         style="fill:#ffa9a9;fill-opacity:1;fill-rule:nonzero;stroke:none;stroke-width:0.0352778"
         id="path4317" />
      <path
         d="m 232.45247,189.56096 c 0.73061,0 1.46156,0 2.19217,0 0.18379,-1.81335 0.36794,-3.62631 0.55174,-5.43909 -0.28646,-0.36837 -0.70273,-0.78853 -1.12854,-0.72253 -0.1344,0.0208 -0.21766,0.0875 -0.2988,0.1312 -0.27658,0.14923 -0.73766,0.31817 -1.5374,0.37469 -0.067,0.37853 -0.13477,0.75667 -0.20215,1.13481 0.23143,0.15875 1.14477,0.82406 1.29964,1.93891 0.043,0.31005 0.091,0.6533 -0.0808,1.00679 -0.2988,0.61351 -1.00683,0.74083 -1.00683,1.16914 0,0.1736 0.11571,0.31499 0.21096,0.40608"
         style="fill:#ffa9a9;fill-opacity:1;fill-rule:nonzero;stroke:none;stroke-width:0.0352778"
         id="path4319" />
      <path
         d="m 230.83499,179.76393 c 1.12783,-1.99206 2.25601,-3.98501 3.38384,-5.9775 -0.49248,-2.16394 -0.9846,-4.32816 -1.47708,-6.49213 -0.004,-0.3302 -0.0628,-2.98133 -1.23543,-4.78826 -0.60924,-0.93944 -1.38006,-1.55504 -1.38006,-1.55504 -0.39758,-0.3175 -0.76765,-0.53093 -1.03611,-0.66746 -0.76165,0.4625 -1.524,0.92569 -2.286,1.38818 -0.2032,0.24519 -2.4698,3.0533 -1.4291,5.6508 0.13617,0.34078 0.35383,0.73829 0.71296,1.14332 0.54998,1.32263 1.10278,2.64735 1.65841,3.97369 1.02729,2.45251 2.05669,4.89412 3.08857,7.3244"
         style="fill:#ffa9a9;fill-opacity:1;fill-rule:nonzero;stroke:none;stroke-width:0.0352778"
         id="path4321" />
      <path
         d="m 231.07523,172.38456 c -1.98473,0.55976 -3.07622,2.84964 -2.43734,5.11486 0.63853,2.2648 2.76542,3.6474 4.75015,3.08747 1.98508,-0.55947 3.07622,-2.84935 2.4377,-5.11457 -0.63889,-2.26508 -2.76543,-3.64726 -4.75051,-3.08776"
         style="fill:#ffa9a9;fill-opacity:1;fill-rule:nonzero;stroke:none;stroke-width:0.0352778"
         id="path4323" />
      <path
         d="m 221.28388,179.95412 c -1.84079,0.77791 -3.12208,1.80618 -2.97885,2.45 0.15451,0.69152 1.99284,1.11718 4.52014,0.77929 3.32846,-0.93871 6.65656,-1.87745 9.98537,-2.81587 -0.32914,-1.97983 -0.65828,-3.95926 -0.98707,-5.93909 -1.12571,0.23111 -2.413,0.58815 -3.78777,1.14833 -3.11503,1.26972 -5.34035,3.03569 -6.75182,4.37734"
         style="fill:#ffa9a9;fill-opacity:1;fill-rule:nonzero;stroke:none;stroke-width:0.0352778"
         id="path4325" />
      <path
         d="m 232.99222,185.40482 c 0.0427,-0.53263 0.0854,-1.06536 0.12771,-1.59812 -1.82951,-0.74359 -3.41418,-1.2481 -4.6168,-1.58846 -3.9624,-1.12119 -5.12833,-0.84557 -5.64127,-0.68407 -0.45685,0.14429 -0.89959,0.45586 -1.68028,0.52215 -1.01248,0.0864 -1.87502,-0.23992 -2.45146,-0.53552 -0.12488,0.18052 -0.68827,1.0378 -0.42721,1.9593 0.31609,1.1176 1.73355,1.93823 3.36832,1.63999 0.66957,-0.085 1.36102,-0.15515 2.07292,-0.20532 3.43782,-0.24405 6.55567,0.016 9.24807,0.49005"
         style="fill:#ffa9a9;fill-opacity:1;fill-rule:nonzero;stroke:none;stroke-width:0.0352778"
         id="path4327" />
      <path
         d="m 226.25981,162.73711 3.67313,-1.26012 c -0.65123,-1.43051 -1.30246,-2.86103 -1.95369,-4.29154 l -2.90477,0.9966 c 0.13476,0.18203 0.29633,0.42262 0.45932,0.71931 0.25435,0.45932 0.50623,1.05516 0.65405,1.77518 0.024,0.11606 0.043,0.23142 0.0582,0.34149 0.1009,0.69497 0.0702,1.29081 0.0138,1.71908"
         style="fill:#ffa9a9;fill-opacity:1;fill-rule:nonzero;stroke:none;stroke-width:0.0352778"
         id="path4329" />
      <path
         d="m 226.24605,161.01803 0.06,-0.0159 c 0.62477,-0.21484 0.87277,-1.14476 0.55104,-2.0828 -0.0501,-0.14534 -0.11148,-0.28469 -0.18133,-0.40993 l -1.14194,0.39194 c 0.25435,0.45932 0.50623,1.05516 0.65405,1.77518 0.024,0.11606 0.043,0.23142 0.0582,0.34149"
         style="fill:#210b04;fill-opacity:1;fill-rule:nonzero;stroke:none;stroke-width:0.0352778"
         id="path4331" />
      <path
         d="m 224.06659,155.92744 -0.003,0.066 c -0.0116,0.2533 -0.0141,0.41028 -0.0127,0.53481 0.002,0.22084 0.0229,0.2593 0.0109,0.39829 -0.0197,0.22401 -0.0765,0.28787 -0.11042,0.4893 -0.0318,0.19262 -0.0145,0.33902 0.01,0.52635 0.12418,0.97155 0.18697,1.4605 0.48683,1.78964 0.77647,0.85196 2.75978,0.21061 3.42301,-0.36795 0.31503,-0.27516 0.53763,-0.61489 0.53763,-0.61489 0.12982,-0.2032 0.22119,-0.40005 0.28257,-0.55492 0.13441,-0.37888 0.266,-0.86642 0.32244,-1.44357 0.096,-0.98142 -0.0705,-1.79211 -0.22472,-2.3114 -0.29492,-0.21801 -1.13135,-0.77787 -2.34068,-0.8128 -1.10454,-0.0314 -1.91099,0.39265 -2.23132,0.5842 -0.049,0.38665 -0.0984,0.85514 -0.13158,1.38818 -0.007,0.1069 -0.0127,0.2159 -0.0183,0.32879"
         style="fill:#ffa9a9;fill-opacity:1;fill-rule:nonzero;stroke:none;stroke-width:0.0352778"
         id="path4333" />
      <path
         d="m 227.1721,156.85031 -0.0286,-0.0106 c -0.11148,-0.0956 -0.34784,-0.25824 -0.67663,-0.27411 -0.16651,-0.01 -0.33725,0.0236 -0.49353,0.0907 l -0.0579,-0.0226 0.0226,-0.0579 c 0.16898,-0.073 0.3563,-0.10795 0.53305,-0.0984 0.35489,0.0173 0.60924,0.19227 0.72954,0.29528 l 0.005,0.0621 -0.0335,0.0155"
         style="fill:#210b04;fill-opacity:1;fill-rule:nonzero;stroke:none;stroke-width:0.0352778"
         id="path4335" />
      <path
         d="m 226.9636,156.81785 c -0.007,0.14394 -0.11923,0.25471 -0.25082,0.24765 -0.13123,-0.006 -0.23178,-0.1277 -0.22472,-0.27128 0.007,-0.14323 0.11959,-0.25435 0.25118,-0.24765 0.13123,0.006 0.23177,0.12806 0.22436,0.27128"
         style="fill:#210b04;fill-opacity:1;fill-rule:nonzero;stroke:none;stroke-width:0.0352778"
         id="path4337" />
      <path
         d="m 225.07589,156.67286 -0.0286,-0.0106 c -0.11184,-0.0956 -0.3482,-0.25823 -0.67699,-0.27376 -0.16756,-0.01 -0.3369,0.0233 -0.49353,0.0903 l -0.0579,-0.0226 0.0229,-0.0579 c 0.16863,-0.073 0.35455,-0.1083 0.5327,-0.0981 0.35489,0.0169 0.6096,0.19191 0.7299,0.29492 l 0.005,0.0621 -0.0335,0.0155"
         style="fill:#210b04;fill-opacity:1;fill-rule:nonzero;stroke:none;stroke-width:0.0352778"
         id="path4339" />
      <path
         d="m 224.94325,156.67498 c -0.007,0.14323 -0.1196,0.25435 -0.25083,0.24765 -0.13159,-0.006 -0.23213,-0.12806 -0.22507,-0.27129 0.007,-0.14358 0.11959,-0.25435 0.25082,-0.248 0.13124,0.007 0.23213,0.12841 0.22508,0.27164"
         style="fill:#210b04;fill-opacity:1;fill-rule:nonzero;stroke:none;stroke-width:0.0352778"
         id="path4341" />
      <path
         d="m 227.25359,155.83043 c 0,0 -0.10901,-0.0614 -0.22049,-0.0917 -0.18238,-0.0494 -0.58526,-0.0801 -1.11195,-0.0614 -0.0176,-0.0402 -0.0603,-0.14816 -0.036,-0.28539 0.0205,-0.11677 0.0787,-0.19509 0.1076,-0.22931 0.33302,0.0836 0.58244,0.11924 0.75918,0.13582 0.0663,0.006 0.26493,0.0222 0.48048,0.13018 0.10372,0.0515 0.14499,0.0942 0.16404,0.115 0.13794,0.15134 0.12453,0.35983 0.11677,0.43074 -0.0646,-0.0413 -0.15205,-0.0924 -0.25964,-0.14393"
         style="fill:#210b04;fill-opacity:1;fill-rule:nonzero;stroke:none;stroke-width:0.0352778"
         id="path4343" />
      <path
         d="m 224.06659,155.92744 -0.003,0.066 c 0.20778,0.0363 0.48471,0.10337 0.80715,0.20532 0.0272,-0.0349 0.096,-0.12771 0.10936,-0.26599 0.0123,-0.11748 -0.0236,-0.20885 -0.0409,-0.24836 -0.34396,-0.009 -0.59266,-0.0406 -0.76905,-0.0727 -0.0187,-0.003 -0.0462,-0.009 -0.085,-0.0131 -0.007,0.1069 -0.0127,0.2159 -0.0183,0.32879"
         style="fill:#210b04;fill-opacity:1;fill-rule:nonzero;stroke:none;stroke-width:0.0352778"
         id="path4345" />
      <path
         d="m 225.03215,158.09032 c -0.0236,0.0145 -0.17816,0.10478 -0.35878,0.0445 -0.11642,-0.0392 -0.18203,-0.11994 -0.20637,-0.1531 l 0.56515,0.10865"
         style="fill:#210b04;fill-opacity:1;fill-rule:nonzero;stroke:none;stroke-width:0.0352778"
         id="path4347" />
      <path
         d="m 224.94572,159.2746 -0.31398,-0.0515 -0.036,-0.0508 0.0504,-0.036 0.30656,0.0508 0.0363,0.0508 -0.0434,0.0367"
         style="fill:#210b04;fill-opacity:1;fill-rule:nonzero;stroke:none;stroke-width:0.0352778"
         id="path4349" />
      <path
         d="m 233.05325,180.85825 c -1.80763,0.45999 -3.61526,0.91997 -5.4229,1.3801 -2.78377,-0.47378 -5.56753,-0.94752 -8.3513,-1.42102 1.60937,-1.13813 3.29953,-2.28604 5.07153,-3.43394 1.9491,-1.26227 3.85798,-2.43459 5.715,-3.52323 1.28693,-0.45367 2.57351,-0.90731 3.86045,-1.36137 0.34219,0.24737 1.80869,1.36455 2.13712,3.3697 0.0762,0.46429 0.32033,1.95227 -0.63923,3.3335 -0.81209,1.16872 -1.99284,1.55043 -2.37067,1.65626"
         style="fill:#ffa300;fill-opacity:1;fill-rule:nonzero;stroke:none;stroke-width:0.0352778"
         id="path4351" />
      <path
         d="m 222.17253,169.55945 c -1.72614,-1.00612 -3.31788,-1.41429 -3.74685,-0.91338 -0.46038,0.53799 0.30162,2.26452 2.08774,4.08383 2.74743,2.10012 5.49486,4.2001 8.24265,6.30026 1.38642,-1.4507 2.77318,-2.90093 4.15995,-4.35187 -0.86007,-0.76204 -1.91805,-1.57759 -3.19087,-2.3417 -2.88396,-1.73109 -5.6321,-2.45248 -7.55262,-2.77714"
         style="fill:#ffa9a9;fill-opacity:1;fill-rule:nonzero;stroke:none;stroke-width:0.0352778"
         id="path4353" />
      <path
         d="m 228.50912,179.51907 c -2.82645,-1.79737 -5.43842,-4.00113 -6.95642,-5.34458 0.31856,0.51897 0.60854,1.08948 0.84984,1.71566 1.66123,4.31158 -0.0183,8.58545 -0.81209,10.29325 -0.90911,-0.15131 -1.81822,-0.30304 -2.72733,-0.45435 -1.12924,-7.91104 -1.70286,-13.76962 -1.55892,-15.19728 0.0423,-0.42058 0.14569,-1.4461 0.88653,-1.95943 0.24165,-0.16757 0.48436,-0.23414 0.63958,-0.26486 0.48331,0.0554 0.96626,0.11038 1.44921,0.1658 1.87608,0.60494 3.80824,1.26887 5.78944,1.99813 2.17911,0.80257 4.26191,1.62666 6.24734,2.45954 1.13489,0.75776 2.26977,1.51486 3.40501,2.27224 0.007,0.42195 -0.007,2.26522 -1.41428,3.73133 -0.32562,0.33941 -1.37019,1.42737 -3.05083,1.4877 -1.21637,0.0437 -2.13889,-0.51647 -2.74708,-0.90315"
         style="fill:#ffa300;fill-opacity:1;fill-rule:nonzero;stroke:none;stroke-width:0.0352778"
         id="path4355" />
      <path
         d="m 232.04678,185.56646 c -3.82094,-0.0536 -7.64187,-0.10763 -11.46316,-0.16164 -1.54552,-0.0794 -2.67229,-1.25307 -2.67371,-2.46836 -0.001,-0.84804 0.5461,-1.65667 1.36914,-2.11913 3.40324,-0.0353 7.14375,0.30826 11.07934,1.30732 0.48506,0.12319 0.96131,0.25301 1.42839,0.38958 0.0864,1.01741 0.17357,2.0351 0.26,3.05223"
         style="fill:#ffa300;fill-opacity:1;fill-rule:nonzero;stroke:none;stroke-width:0.0352778"
         id="path4357" />
      <path
         d="m 234.74165,173.22735 c -0.74366,0.42721 -1.80199,0.93197 -3.14149,1.26615 -1.18145,0.29517 -2.22391,0.3682 -3.02013,0.36545 -0.33443,-0.48754 -0.77082,-1.17024 -1.21743,-2.02184 -0.68722,-1.30846 -1.05022,-2.353 -1.45274,-3.52711 -0.63853,-1.86119 -0.95779,-2.79217 -0.9585,-3.51113 -7.1e-4,-0.71755 0.14358,-2.09021 1.31516,-3.72604 1.03116,-0.57644 2.06233,-1.15287 3.0928,-1.72931 0.38523,0.24694 0.91828,0.63182 1.46156,1.19344 1.25447,1.29611 1.78505,2.72486 2.45568,5.1749 0.48366,1.76745 1.01142,3.95923 1.46509,6.51549"
         style="fill:#ffffff;fill-opacity:1;fill-rule:nonzero;stroke:none;stroke-width:0.0352778"
         id="path4359" />
      <path
         d="m 231.30806,175.00489 c -0.38699,0.17364 -1.12959,0.44069 -2.0701,0.3652 -0.50376,-0.0398 -0.91863,-0.1669 -1.21955,-0.28791 -1.01424,-2.50994 -2.02847,-5.02002 -3.04236,-7.52965 0.66534,-0.17851 1.33103,-0.35736 1.99673,-0.53587 1.44533,2.6628 2.88995,5.32557 4.33528,7.98823"
         style="fill:#ffa300;fill-opacity:1;fill-rule:nonzero;stroke:none;stroke-width:0.0352778"
         id="path4361" />
      <path
         d="m 224.76368,177.1611 -0.0392,-0.0242 0.0194,-0.059 3.09421,-1.55183 0.0589,0.0193 -0.0198,0.059 -3.09386,1.55222 -0.0198,0.005"
         style="fill:#210b04;fill-opacity:1;fill-rule:nonzero;stroke:none;stroke-width:0.0352778"
         id="path4363" />
      <path
         d="m 221.5527,174.21858 -0.0402,-0.026 -0.92921,-2.02103 0.0219,-0.0583 0.0582,0.0215 0.92921,2.02141 -0.0219,0.0583 -0.018,0.004"
         style="fill:#210b04;fill-opacity:1;fill-rule:nonzero;stroke:none;stroke-width:0.0352778"
         id="path4365" />
      <path
         d="m 218.52198,181.62484 -0.0363,-0.019 0.0109,-0.0615 4.51062,-3.12346 0.061,0.0109 -0.0109,0.0614 -4.51027,3.12346 -0.025,0.008"
         style="fill:#210b04;fill-opacity:1;fill-rule:nonzero;stroke:none;stroke-width:0.0352778"
         id="path4367" />
      <path
         d="m 221.93088,185.44891 -3.11856,-0.67278 -0.0339,-0.0521 0.0526,-0.0339 3.10903,0.67165 0.0339,0.0525 -0.043,0.0346"
         style="fill:#210b04;fill-opacity:1;fill-rule:nonzero;stroke:none;stroke-width:0.0352778"
         id="path4369" />
      <path
         d="m 228.9194,181.83044 -4.34551,-0.40499 -0.0395,-0.048 0.0476,-0.0394 4.34164,0.4046 0.0395,0.0477 -0.0438,0.0401"
         style="fill:#210b04;fill-opacity:1;fill-rule:nonzero;stroke:none;stroke-width:0.0352778"
         id="path4371" />
      <path
         d="m 224.39962,181.35708 -0.025,-0.008 -0.53622,-0.37316 -0.0109,-0.0615 0.0614,-0.0109 0.53587,0.37317 0.0109,0.0615 -0.036,0.019"
         style="fill:#210b04;fill-opacity:1;fill-rule:nonzero;stroke:none;stroke-width:0.0352778"
         id="path4373" />
      <path
         d="m 224.41584,181.62801 h -0.82832 l -0.0441,-0.0441 0.0441,-0.0441 h 0.82832 l 0.0441,0.0441 -0.0441,0.0441"
         style="fill:#210b04;fill-opacity:1;fill-rule:nonzero;stroke:none;stroke-width:0.0352778"
         id="path4375" />
      <path
         d="m 228.01841,175.12628 -0.0413,-0.0276 -0.71614,-1.77271 0.0247,-0.0575 0.0575,0.0244 0.71614,1.7727 -0.0243,0.0575 -0.0166,0.003"
         style="fill:#210b04;fill-opacity:1;fill-rule:nonzero;stroke:none;stroke-width:0.0352778"
         id="path4377" />
      <path
         d="m 227.15798,172.99766 -0.0409,-0.0279 -0.93098,-2.30407 0.0247,-0.0575 0.0575,0.0244 0.93063,2.30438 -0.0243,0.0575 -0.0166,0.003"
         style="fill:#210b04;fill-opacity:1;fill-rule:nonzero;stroke:none;stroke-width:0.0352778"
         id="path4379" />
      <path
         d="M 224.467,177.5704 H 198.53465 V 159.81576 H 224.467 v 17.75464"
         style="fill:#ffffff;fill-opacity:1;fill-rule:nonzero;stroke:none;stroke-width:0.0352778"
         id="path4381" />
      <path
         d="m 203.01423,164.40434 h -4.02061 v -3.95605 h 4.02061 v 3.95605"
         style="fill:#91b7b6;fill-opacity:1;fill-rule:nonzero;stroke:none;stroke-width:0.0352778"
         id="path4383" />
      <path
         d="m 207.22181,164.40434 h -4.02097 v -3.95605 h 4.02097 v 3.95605"
         style="fill:#91b7b6;fill-opacity:1;fill-rule:nonzero;stroke:none;stroke-width:0.0352778"
         id="path4385" />
      <path
         d="m 211.41633,164.40434 h -4.0206 v -3.95605 h 4.0206 v 3.95605"
         style="fill:#91b7b6;fill-opacity:1;fill-rule:nonzero;stroke:none;stroke-width:0.0352778"
         id="path4387" />
      <path
         d="m 215.63626,164.40434 h -4.02061 v -3.95605 h 4.02061 v 3.95605"
         style="fill:#91b7b6;fill-opacity:1;fill-rule:nonzero;stroke:none;stroke-width:0.0352778"
         id="path4389" />
      <path
         d="m 219.78846,164.40434 h -4.02096 v -3.95605 h 4.02096 v 3.95605"
         style="fill:#91b7b6;fill-opacity:1;fill-rule:nonzero;stroke:none;stroke-width:0.0352778"
         id="path4391" />
      <path
         d="m 224.00838,164.40434 h -4.02096 v -3.95605 h 4.02096 v 3.95605"
         style="fill:#91b7b6;fill-opacity:1;fill-rule:nonzero;stroke:none;stroke-width:0.0352778"
         id="path4393" />
      <path
         d="m 203.01423,168.61753 h -4.02061 v -3.95601 h 4.02061 v 3.95601"
         style="fill:#91b7b6;fill-opacity:1;fill-rule:nonzero;stroke:none;stroke-width:0.0352778"
         id="path4395" />
      <path
         d="m 207.22181,168.61753 h -4.02097 v -3.95601 h 4.02097 v 3.95601"
         style="fill:#91b7b6;fill-opacity:1;fill-rule:nonzero;stroke:none;stroke-width:0.0352778"
         id="path4397" />
      <path
         d="m 211.41633,168.61753 h -4.0206 v -3.95601 h 4.0206 v 3.95601"
         style="fill:#91b7b6;fill-opacity:1;fill-rule:nonzero;stroke:none;stroke-width:0.0352778"
         id="path4399" />
      <path
         d="m 215.63626,168.61753 h -4.02061 v -3.95601 h 4.02061 v 3.95601"
         style="fill:#91b7b6;fill-opacity:1;fill-rule:nonzero;stroke:none;stroke-width:0.0352778"
         id="path4401" />
      <path
         d="m 219.78846,168.61753 h -4.02096 v -3.95601 h 4.02096 v 3.95601"
         style="fill:#91b7b6;fill-opacity:1;fill-rule:nonzero;stroke:none;stroke-width:0.0352778"
         id="path4403" />
      <path
         d="m 224.00838,168.61753 h -4.02096 v -3.95601 h 4.02096 v 3.95601"
         style="fill:#91b7b6;fill-opacity:1;fill-rule:nonzero;stroke:none;stroke-width:0.0352778"
         id="path4405" />
      <path
         d="m 203.01423,172.72492 h -4.02061 v -3.95608 h 4.02061 v 3.95608"
         style="fill:#91b7b6;fill-opacity:1;fill-rule:nonzero;stroke:none;stroke-width:0.0352778"
         id="path4407" />
      <path
         d="m 207.22181,172.72492 h -4.02097 v -3.95608 h 4.02097 v 3.95608"
         style="fill:#91b7b6;fill-opacity:1;fill-rule:nonzero;stroke:none;stroke-width:0.0352778"
         id="path4409" />
      <path
         d="m 211.41633,172.72492 h -4.0206 v -3.95608 h 4.0206 v 3.95608"
         style="fill:#91b7b6;fill-opacity:1;fill-rule:nonzero;stroke:none;stroke-width:0.0352778"
         id="path4411" />
      <path
         d="m 215.63626,172.72492 h -4.02061 v -3.95608 h 4.02061 v 3.95608"
         style="fill:#91b7b6;fill-opacity:1;fill-rule:nonzero;stroke:none;stroke-width:0.0352778"
         id="path4413" />
      <path
         d="m 219.78846,172.72492 h -4.02096 v -3.95608 h 4.02096 v 3.95608"
         style="fill:#91b7b6;fill-opacity:1;fill-rule:nonzero;stroke:none;stroke-width:0.0352778"
         id="path4415" />
      <path
         d="m 224.00838,172.72492 h -4.02096 v -3.95608 h 4.02096 v 3.95608"
         style="fill:#91b7b6;fill-opacity:1;fill-rule:nonzero;stroke:none;stroke-width:0.0352778"
         id="path4417" />
      <path
         d="m 203.01423,176.93815 h -4.02061 v -3.95566 h 4.02061 v 3.95566"
         style="fill:#91b7b6;fill-opacity:1;fill-rule:nonzero;stroke:none;stroke-width:0.0352778"
         id="path4419" />
      <path
         d="m 207.22181,176.93815 h -4.02097 v -3.95566 h 4.02097 v 3.95566"
         style="fill:#91b7b6;fill-opacity:1;fill-rule:nonzero;stroke:none;stroke-width:0.0352778"
         id="path4421" />
      <path
         d="m 211.41633,176.93815 h -4.0206 v -3.95566 h 4.0206 v 3.95566"
         style="fill:#91b7b6;fill-opacity:1;fill-rule:nonzero;stroke:none;stroke-width:0.0352778"
         id="path4423" />
      <path
         d="m 215.63626,176.93815 h -4.02061 v -3.95566 h 4.02061 v 3.95566"
         style="fill:#91b7b6;fill-opacity:1;fill-rule:nonzero;stroke:none;stroke-width:0.0352778"
         id="path4425" />
      <path
         d="m 219.78846,176.93815 h -4.02096 v -3.95566 h 4.02096 v 3.95566"
         style="fill:#91b7b6;fill-opacity:1;fill-rule:nonzero;stroke:none;stroke-width:0.0352778"
         id="path4427" />
      <path
         d="m 224.00838,176.93815 h -4.02096 v -3.95566 h 4.02096 v 3.95566"
         style="fill:#91b7b6;fill-opacity:1;fill-rule:nonzero;stroke:none;stroke-width:0.0352778"
         id="path4429" />
      <path
         d="m 225.7063,158.46815 c -0.0321,0.0455 -0.37182,0.51294 -0.82797,0.4632 -0.30197,-0.0335 -0.58137,-0.2854 -0.54786,-0.37783 0.0201,-0.0557 0.15099,-0.0448 0.4191,-0.0441 0.22931,7.1e-4 0.55598,-0.006 0.95673,-0.0413"
         style="fill:#ffffff;fill-opacity:1;fill-rule:nonzero;stroke:none;stroke-width:0.0352778"
         id="path4431" />
      <path
         d="m 223.72757,166.84592 c -0.26564,0.47977 -0.53128,0.95955 -0.79657,1.43937 0.82056,0.69634 1.45415,1.30982 1.8863,1.74762 1.61432,1.63506 2.19075,2.61306 3.52778,3.03886 0.56057,0.17777 1.0287,0.18274 1.32398,0.18659 0.45367,0.006 2.0387,0.026 2.30258,-0.70513 0.0279,-0.0784 0.15981,-0.49474 -0.42016,-1.20125 -0.87454,-0.55065 -1.60549,-0.93595 -2.07433,-1.17051 -2.14137,-1.07252 -3.36692,-1.30458 -4.9015,-2.54604 -0.39546,-0.31961 -0.68439,-0.61383 -0.84808,-0.78951"
         style="fill:#ffa9a9;fill-opacity:1;fill-rule:nonzero;stroke:none;stroke-width:0.0352778"
         id="path4433" />
      <path
         d="m 223.87962,168.9163 h -2.3622 c -0.16651,-0.1724 -0.59796,-0.66629 -0.70626,-1.43679 -0.078,-0.55563 0.0483,-1.0026 0.13053,-1.23085 0.65475,-0.14569 1.30951,-0.29139 1.96426,-0.43779 0.48013,-1.17934 0.65194,-1.40794 0.71826,-1.38783 0.0882,0.0265 -0.0406,0.4833 0.007,1.22661 0.0392,0.60854 0.15805,0.8255 0.24871,1.35502 0.0748,0.43568 0.12947,1.07943 0,1.91163"
         style="fill:#ffa9a9;fill-opacity:1;fill-rule:nonzero;stroke:none;stroke-width:0.0352778"
         id="path4435" />
      <path
         d="m 227.01052,167.94341 -0.5782,-0.0837 c 0.17815,-1.22304 0.46108,-2.42531 0.83961,-3.57325 0.81316,-2.46732 1.47391,-2.95416 1.90006,-3.1062 0.61595,-0.22049 1.35679,-0.10019 2.14172,0.34607 l -0.28822,0.50835 c -0.44168,-0.25117 -1.08832,-0.50835 -1.657,-0.30374 -0.46637,0.16616 -1.01424,1.13877 -1.54164,2.73862 -0.36795,1.11618 -0.64311,2.28529 -0.81633,3.4738"
         style="fill:#ffa300;fill-opacity:1;fill-rule:nonzero;stroke:none;stroke-width:0.0352778"
         id="path4437" />
      <path
         d="m 232.15085,167.43259 v 0.81812 c -0.008,1.09139 -0.0469,2.56424 -0.17921,4.30252 l -2.35374,-0.0314 c -0.20249,-1.55853 -0.39758,-3.11753 -0.59266,-4.68379 -0.0543,-0.4287 -0.10866,-0.86544 -0.16369,-1.29371 0.52246,-1.65241 1.05234,-3.31223 1.57445,-4.96464 0.0935,0.0314 0.24165,0.0857 0.40534,0.18732 0.77152,0.48331 1.28587,1.58962 1.30951,5.66562"
         style="fill:#ffa9a9;fill-opacity:1;fill-rule:nonzero;stroke:none;stroke-width:0.0352778"
         id="path4439" />
      <path
         d="m 232.15085,167.43259 v 0.7094 c -1.04422,-0.10114 -2.08104,-0.20285 -3.12561,-0.30399 0.21061,-0.11684 0.42121,-0.24173 0.63923,-0.35849 0.82621,-0.0155 1.65206,-0.0314 2.48638,-0.0469"
         style="fill:#210b04;fill-opacity:1;fill-rule:nonzero;stroke:none;stroke-width:0.0352778"
         id="path4441" />
      <path
         d="m 232.81795,167.77157 c -1.4291,0.0244 -2.8575,0.0491 -4.28625,0.073 0.28258,-2.02244 0.5648,-4.04527 0.84773,-6.06775 0.14005,-0.0822 0.80327,-0.45226 1.55539,-0.22472 0.17886,0.0543 0.81739,0.31927 1.40018,2.11279 0.27658,0.85125 0.60642,2.25037 0.48295,4.10665"
         style="fill:#ffffff;fill-opacity:1;fill-rule:nonzero;stroke:none;stroke-width:0.0352778"
         id="path4443" />
      <path
         d="m 228.65306,167.83123 -0.0441,-0.0434 -0.0483,-3.24626 0.0434,-0.0448 0.0448,0.0434 0.0483,3.2463 -0.0434,0.0448 h -7e-4"
         style="fill:#210b04;fill-opacity:1;fill-rule:nonzero;stroke:none;stroke-width:0.0352778"
         id="path4445" />
      <path
         d="m 232.81795,167.81567 -0.0437,-0.0391 -0.25189,-2.33785 0.0392,-0.0487 0.0483,0.0388 0.25189,2.33779 -0.0388,0.0488 -0.005,2.8e-4"
         style="fill:#210b04;fill-opacity:1;fill-rule:nonzero;stroke:none;stroke-width:0.0352778"
         id="path4447" />
      <path
         d="m 214.46716,160.44829 c -0.30621,0.0953 -0.74966,0.1972 -1.29117,0.19967 -0.56233,0.003 -1.02235,-0.1023 -1.33421,-0.19967 -0.10054,-0.31573 -0.20108,-0.63218 -0.30162,-0.94791 0.115,-0.16334 0.28116,-0.36019 0.51329,-0.54399 0.50095,-0.39652 1.02729,-0.51047 1.30528,-0.54892 1.4485,0.80434 2.12266,1.37301 2.02142,1.70462 -0.0571,0.18733 -0.3616,0.29987 -0.91299,0.3362"
         style="fill:#ffa9a9;fill-opacity:1;fill-rule:nonzero;stroke:none;stroke-width:0.0352778"
         id="path4449" />
      <path
         d="m 221.86632,188.71638 h -6.86788 c 0.005,-0.095 0.0215,-0.24652 0.0893,-0.41409 0.25894,-0.63613 0.98778,-0.8369 2.11914,-1.25388 0.44732,-0.1651 1.12501,-0.42542 1.96039,-0.79157 0.43038,0.0758 0.88194,0.23594 1.04739,0.59655 0.12912,0.28155 0.0236,0.55453 0.1584,0.6332 0.1076,0.0632 0.34361,-0.0138 0.88865,-0.56014 0.10301,0.14813 0.20955,0.32657 0.3048,0.53577 0.22048,0.48729 0.28434,0.93775 0.29986,1.25416"
         style="fill:#210b04;fill-opacity:1;fill-rule:nonzero;stroke:none;stroke-width:0.0352778"
         id="path4451" />
      <path
         d="m 234.72542,189.56096 c -0.83326,-0.006 -1.66652,-0.011 -2.50013,-0.0163 -0.0748,-0.0882 -0.16405,-0.22338 -0.14641,-0.37359 0.0399,-0.32946 0.55774,-0.43325 0.8121,-0.64947 0.32737,-0.27876 0.4953,-0.98072 -0.1203,-2.79368 -0.0317,-0.12347 -0.0589,-0.30868 0.0392,-0.43741 0.23318,-0.30617 0.93592,0.019 1.0795,-0.20285 0.17956,-0.27696 -0.81421,-0.9398 -0.641,-1.4206 0.12488,-0.3478 0.84949,-0.56829 1.38007,-0.29213 0.40957,0.21304 0.53975,0.64382 0.56797,0.7469 -0.15663,1.81278 -0.31362,3.62574 -0.47096,5.43909"
         style="fill:#210b04;fill-opacity:1;fill-rule:nonzero;stroke:none;stroke-width:0.0352778"
         id="path4453" />
      <path
         d="m 228.27982,153.75962 c 0.36336,0.17322 0.54187,0.42545 0.57785,0.47837 0,0 0.12135,0.17745 0.18521,0.40675 0.22189,0.79516 -0.26318,3.94265 -0.51047,3.89114 -0.20144,-0.0416 0.06,-2.03764 -0.0861,-2.05246 -0.0871,-0.009 -0.20355,0.70415 -0.31679,0.69427 -0.13371,-0.012 0.12241,-1.00224 -0.36513,-1.60761 -0.50341,-0.62512 -1.55434,-0.61736 -2.16782,-0.60854 -0.96802,0.013 -1.19909,0.29739 -2.22038,0.21625 -0.5521,-0.0437 -1.25025,-0.18803 -1.26083,-0.38347 -0.004,-0.078 0.10407,-0.1083 0.73766,-0.45367 0.51682,-0.28222 0.7433,-0.42475 0.97825,-0.63359 0.15558,-0.13864 0.17921,-0.1972 0.27975,-0.28011 0.41981,-0.34607 1.23402,-0.67733 2.04294,-0.48718 0.73025,0.17145 0.74612,0.60078 1.47637,0.65758 0.14993,0.012 0.37607,0.0321 0.64947,0.16227"
         style="fill:#210b04;fill-opacity:1;fill-rule:nonzero;stroke:none;stroke-width:0.0352778"
         id="path4455" />
      <path
         d="m 225.29461,167.70564 c -0.21378,-0.5394 -0.44132,-1.31622 -0.45684,-2.26272 -0.0349,-2.12337 1.02058,-3.64984 1.43756,-4.19276 0.0109,0.15063 0.0219,0.30127 0.0328,0.4519 -0.35277,0.64418 -0.96343,1.98085 -0.88617,3.72251 0.0381,0.84879 0.2286,1.5547 0.41839,2.07257 l -0.54575,0.2085"
         style="fill:#ffa300;fill-opacity:1;fill-rule:nonzero;stroke:none;stroke-width:0.0352778"
         id="path4457" />
      <path
         d="m 229.8465,170.51897 -0.025,-0.008 -0.53869,-0.37743 -0.0113,-0.0611 0.0614,-0.0113 0.53904,0.37744 0.0109,0.0611 -0.0363,0.019"
         style="fill:#210b04;fill-opacity:1;fill-rule:nonzero;stroke:none;stroke-width:0.0352778"
         id="path4459" />
      <path
         d="m 196.4702,150.46468 1.22096,-4.83411 c 0.0275,-0.10725 0.18556,-0.0879 0.18556,0.0233 l 3.5e-4,4.98581 c 0,0.0977 0.13018,0.13088 0.17675,0.0452 l 2.38477,-4.37903 c 0.0529,-0.097 0.20144,-0.0388 0.17392,0.0688 l -1.24001,4.82918 c -0.024,0.0945 0.0938,0.15875 0.16016,0.0875 l 3.39866,-3.64808 c 0.0759,-0.0808 0.20497,0.0127 0.1517,0.10972 l -2.40207,4.3695 c -0.0469,0.0854 0.0512,0.1771 0.13335,0.12453 l 4.19912,-2.68816 c 0.0935,-0.06 0.19544,0.0628 0.11959,0.14358 l -3.41313,3.63467 c -0.0667,0.0713 0.005,0.1845 0.0981,0.15416 l 4.73568,-1.55963 c 0.10549,-0.0346 0.17357,0.10936 0.0801,0.16898 l -4.2097,2.67159 c -0.0822,0.0526 -0.0406,0.17991 0.0568,0.17356 l 4.97487,-0.33267 c 0.11042,-0.007 0.14076,0.14923 0.0353,0.18345 l -4.74169,1.54093 c -0.0928,0.0303 -0.084,0.1644 0.0116,0.18239 l 4.9015,0.9144 c 0.109,0.0205 0.0991,0.17956 -0.0117,0.18697 l -4.97593,0.31291 c -0.0974,0.006 -0.12241,0.13829 -0.0339,0.17957 l 4.51979,2.10502 c 0.10054,0.0469 0.0515,0.19826 -0.0575,0.1778 l -4.89761,-0.93415 c -0.096,-0.018 -0.15275,0.10336 -0.0773,0.16545 l 3.8541,3.16301 c 0.0857,0.0702 7e-4,0.20496 -0.0998,0.15769 l -4.51132,-2.12231 c -0.0882,-0.042 -0.17392,0.0617 -0.11607,0.1404 l 2.94641,4.02202 c 0.0656,0.0896 -0.0505,0.19897 -0.13582,0.12841 l -3.84175,-3.17782 c -0.0752,-0.0624 -0.1838,0.0169 -0.14747,0.1076 l 1.8535,4.62844 c 0.0413,0.10301 -0.0981,0.17957 -0.16334,0.0903 l -2.93088,-4.03366 c -0.0575,-0.079 -0.18238,-0.0293 -0.16933,0.0674 l 0.64417,4.94418 c 0.0145,0.11003 -0.14005,0.14986 -0.18062,0.0469 l -1.83585,-4.63585 c -0.036,-0.0907 -0.16934,-0.0737 -0.18098,0.0233 l -0.60537,4.94909 c -0.0134,0.10971 -0.17286,0.1101 -0.18697,4.2e-4 l -0.62512,-4.94668 c -0.0123,-0.0967 -0.14534,-0.11325 -0.18098,-0.0226 l -1.81715,4.64322 c -0.0406,0.10309 -0.19509,0.0639 -0.18098,-0.0462 l 0.62442,-4.94665 c 0.0123,-0.097 -0.11254,-0.14605 -0.16969,-0.067 l -2.91465,4.0453 c -0.0649,0.09 -0.20461,0.0134 -0.16404,-0.0896 l 1.8355,-4.63585 c 0.036,-0.0907 -0.073,-0.16933 -0.14781,-0.10689 l -3.8294,3.19334 c -0.085,0.0709 -0.20144,-0.0381 -0.13653,-0.1277 l 2.93053,-4.03366 c 0.0575,-0.079 -0.0286,-0.18239 -0.11642,-0.14076 l -4.50321,2.14101 c -0.0998,0.0473 -0.18591,-0.0868 -0.10019,-0.15769 l 3.8414,-3.17818 c 0.0751,-0.0624 0.018,-0.1838 -0.078,-0.1651 l -4.89374,0.95356 c -0.10901,0.0212 -0.1584,-0.13018 -0.0582,-0.17745 l 4.51133,-2.12337 c 0.0882,-0.0416 0.0628,-0.17321 -0.0346,-0.17886 l -4.97734,-0.29351 c -0.11042,-0.007 -0.121,-0.1658 -0.012,-0.18662 l 4.89761,-0.93451 c 0.0956,-0.0183 0.10407,-0.1524 0.0109,-0.18203 l -4.74804,-1.52188 c -0.10548,-0.0339 -0.0759,-0.1905 0.0349,-0.1838 l 4.97593,0.31291 c 0.0974,0.006 0.13864,-0.1217 0.0561,-0.17356 l -4.22028,-2.65536 c -0.0938,-0.0589 -0.0261,-0.2032 0.079,-0.16898 l 4.74204,1.54058 c 0.0931,0.03 0.16475,-0.0833 0.0977,-0.15416 l -3.42759,-3.62127 c -0.0762,-0.0804 0.0254,-0.20355 0.11889,-0.14393 l 4.20969,2.67123 c 0.0825,0.0522 0.18027,-0.0399 0.133,-0.12488 l -2.41935,-4.35998 c -0.0536,-0.097 0.0751,-0.19086 0.15099,-0.11007 l 3.41312,3.63432 c 0.067,0.0713 0.18451,0.006 0.15981,-0.0882 l -1.25906,-4.82423 c -0.0279,-0.10725 0.1203,-0.16651 0.17357,-0.0695 l 2.40241,4.36951 c 0.0469,0.0854 0.17674,0.0519 0.17639,-0.0459 l -0.0194,-4.98616 c -7.1e-4,-0.11042 0.15769,-0.13088 0.18521,-0.0236 l 1.24001,4.82917 c 0.0243,0.0945 0.15875,0.0942 0.18239,-3.5e-4"
         style="fill:#ffa300;fill-opacity:1;fill-rule:nonzero;stroke:none;stroke-width:0.0352778"
         id="path4461" />
      <path
         d="m 219.93662,158.77754 c -0.57749,0 -1.03434,-0.14711 -1.36631,-0.44098 -0.31679,-0.28046 -0.40886,-0.59443 -0.49,-0.87171 -0.0748,-0.25506 -0.1397,-0.47555 -0.37289,-0.64946 -0.44485,-0.3302 -1.0728,-0.17816 -1.68028,-0.0318 -0.62018,0.14957 -1.20685,0.2921 -1.58503,-0.096 -0.28258,-0.29069 -0.23601,-0.66957 -0.19438,-1.00436 0.0399,-0.32491 0.054,-0.53199 -0.0903,-0.66604 -0.17569,-0.16228 -0.46073,-0.084 -0.94968,0.0713 -0.5775,0.18238 -1.29681,0.40993 -2.18052,0.18944 -0.30868,-0.0776 -0.4699,-0.16969 -0.67451,-0.28646 -0.21026,-0.12065 -0.47202,-0.27058 -1.02341,-0.48577 -0.58102,-0.22684 -1.18498,-0.40816 -1.79529,-0.53869 -0.0952,-0.0205 -0.15592,-0.1143 -0.13546,-0.20955 0.0205,-0.0952 0.11394,-0.15452 0.20955,-0.13547 0.62829,0.13511 1.25059,0.32173 1.84926,0.55492 0.57608,0.22472 0.86184,0.38876 1.07103,0.508 0.19438,0.11183 0.32315,0.18556 0.5842,0.25047 0.78634,0.19756 1.45309,-0.0138 1.98896,-0.18344 0.51541,-0.16299 0.95991,-0.30339 1.2954,0.006 0.28752,0.26635 0.2413,0.63958 0.20073,0.96873 -0.0363,0.29245 -0.0674,0.54504 0.0974,0.71472 0.23707,0.24342 0.70697,0.12983 1.24954,-0.001 0.6544,-0.15769 1.39629,-0.33655 1.97309,0.0921 0.32843,0.24412 0.42015,0.55739 0.50129,0.83361 0.0741,0.25365 0.14429,0.49318 0.38524,0.70662 0.48824,0.4325 1.35184,0.46884 2.5661,0.10865 0.0949,-0.0272 0.19191,0.0257 0.21943,0.11853 0.0275,0.0935 -0.0254,0.19156 -0.11889,0.21978 -0.58032,0.17181 -1.09255,0.25789 -1.53423,0.25789"
         style="fill:#ffa300;fill-opacity:1;fill-rule:nonzero;stroke:none;stroke-width:0.0352778"
         id="path4463" />
      <path
         d="m 218.01257,166.80958 c -1.20685,0 -2.16499,-0.3115 -2.8515,-0.92745 -0.45791,-0.41134 -0.61666,-0.79728 -0.75636,-1.13771 -0.13017,-0.3175 -0.24306,-0.59196 -0.58949,-0.84314 -0.64981,-0.47061 -1.43263,-0.36019 -2.18687,-0.25471 -0.7747,0.10901 -1.57515,0.22084 -2.15759,-0.34501 -0.30303,-0.29387 -0.37606,-0.60854 -0.44062,-0.88653 -0.0645,-0.27905 -0.12029,-0.52035 -0.38241,-0.76271 -0.51364,-0.47378 -1.40758,-0.55809 -2.65677,-0.24976 -0.0942,0.0229 -0.19014,-0.0342 -0.21343,-0.12877 -0.0236,-0.0945 0.0342,-0.19015 0.12877,-0.21343 1.3723,-0.33831 2.3749,-0.22613 2.98062,0.33302 0.34219,0.31609 0.4191,0.64876 0.48718,0.94227 0.061,0.26353 0.1136,0.49107 0.3422,0.71297 0.45861,0.4445 1.10878,0.35454 1.86302,0.24835 0.78669,-0.10971 1.67887,-0.2346 2.44263,0.31856 0.42827,0.31009 0.57115,0.65828 0.70944,0.99483 0.13123,0.32033 0.26705,0.65158 0.66534,1.0093 0.67768,0.60784 1.66546,0.88618 2.93617,0.82973 0.10512,-0.0155 0.17956,0.0709 0.18379,0.16828 0.005,0.097 -0.0705,0.17956 -0.16792,0.1838 -0.1143,0.005 -0.22613,0.008 -0.3362,0.008"
         style="fill:#ffa300;fill-opacity:1;fill-rule:nonzero;stroke:none;stroke-width:0.0352778"
         id="path4465" />
      <path
         d="m 192.81612,177.62674 c -0.0522,0 -0.10371,-0.0229 -0.13864,-0.0665 -0.37253,-0.46923 -0.54469,-0.93955 -0.51153,-1.39844 0.0402,-0.54999 0.3616,-0.88622 0.64488,-1.1829 0.24906,-0.26074 0.46391,-0.48536 0.48472,-0.81982 0.024,-0.3828 -0.23248,-0.6234 -0.52952,-0.90206 -0.31574,-0.29601 -0.6731,-0.63154 -0.70944,-1.18967 -0.0441,-0.68185 0.42581,-1.16801 0.84032,-1.59699 0.37359,-0.38626 0.69638,-0.7203 0.62018,-1.11718 -0.0596,-0.3109 -0.32632,-0.4844 -0.635,-0.68446 -0.33796,-0.21896 -0.72072,-0.46743 -0.82232,-0.94999 -0.12418,-0.59267 0.23777,-1.27459 1.07562,-2.026 0.0723,-0.0656 0.18344,-0.0596 0.24906,0.0134 0.0649,0.0727 0.0589,0.1838 -0.0134,0.24906 -0.73765,0.66181 -1.06256,1.23049 -0.9659,1.69122 0.0713,0.33867 0.3616,0.52705 0.66887,0.7263 0.32914,0.21346 0.70167,0.45515 0.78986,0.91447 0.11042,0.57644 -0.30832,1.00926 -0.71331,1.42875 -0.38171,0.3944 -0.77611,0.80257 -0.74189,1.32856 0.0272,0.41907 0.3048,0.67938 0.59866,0.95497 0.31644,0.29669 0.67451,0.63295 0.64029,1.18142 -0.0286,0.46327 -0.30974,0.75709 -0.58173,1.04136 -0.26599,0.27838 -0.51717,0.54159 -0.54822,0.96531 -0.0265,0.36752 0.1203,0.75533 0.43639,1.15288 0.0607,0.0765 0.0476,0.18729 -0.0286,0.24789 -0.0325,0.0258 -0.0713,0.0385 -0.10937,0.0385"
         style="fill:#ffa300;fill-opacity:1;fill-rule:nonzero;stroke:none;stroke-width:0.0352778"
         id="path4467" />
      <path
         d="m 186.80197,176.56992 c -0.0797,0 -0.15205,-0.0547 -0.17145,-0.13586 -0.11183,-0.46993 -0.21061,-0.94756 -0.29387,-1.41954 -0.26105,-1.48318 -0.1725,-1.79955 -0.0293,-2.05959 0.14958,-0.27121 0.33162,-0.38805 0.46426,-0.47378 0.12312,-0.079 0.17392,-0.11493 0.20002,-0.21441 0.0649,-0.24945 -0.17674,-0.49707 -0.45614,-0.78356 -0.32526,-0.33309 -0.69356,-0.71053 -0.6671,-1.22206 0.0215,-0.41973 0.29704,-0.65264 0.56374,-0.87806 0.26529,-0.22394 0.53975,-0.45572 0.65652,-0.90664 0.0885,-0.34145 0.024,-0.57531 -0.0575,-0.87168 -0.055,-0.20108 -0.11783,-0.42862 -0.14182,-0.72178 -0.0769,-0.93063 0.29563,-1.92052 1.10666,-2.94252 0.0603,-0.0769 0.1711,-0.0896 0.24765,-0.0286 0.0766,0.0607 0.0893,0.17145 0.0286,0.24765 -0.75354,0.94968 -1.10067,1.85632 -1.03117,2.69452 0.0212,0.26035 0.0765,0.46214 0.13053,0.65723 0.0878,0.31929 0.17074,0.6212 0.0586,1.05335 -0.14499,0.5599 -0.49177,0.85274 -0.77047,1.08797 -0.27164,0.22973 -0.42615,0.37179 -0.43885,0.62661 -0.0187,0.35775 0.27904,0.66241 0.56691,0.95747 0.32455,0.33292 0.66075,0.67687 0.54504,1.11894 -0.0617,0.23675 -0.21484,0.33514 -0.34995,0.42224 -0.11819,0.0759 -0.23989,0.15448 -0.34643,0.34756 -0.1016,0.18408 -0.17286,0.46245 0.0677,1.82809 0.0822,0.46496 0.17956,0.93581 0.28963,1.39912 0.0222,0.0948 -0.0363,0.18976 -0.13088,0.21237 l -0.0409,0.005"
         style="fill:#ffa300;fill-opacity:1;fill-rule:nonzero;stroke:none;stroke-width:0.0352778"
         id="path4469" />
    </g>
  </g>
</svg>
