<?xml version="1.0" encoding="UTF-8" standalone="no"?>
<svg
   xmlns:dc="http://purl.org/dc/elements/1.1/"
   xmlns:cc="http://creativecommons.org/ns#"
   xmlns:rdf="http://www.w3.org/1999/02/22-rdf-syntax-ns#"
   xmlns:svg="http://www.w3.org/2000/svg"
   xmlns="http://www.w3.org/2000/svg"
   xmlns:sodipodi="http://sodipodi.sourceforge.net/DTD/sodipodi-0.dtd"
   xmlns:inkscape="http://www.inkscape.org/namespaces/inkscape"
   sodipodi:docname="s-6.svg"
   inkscape:version="1.0 (4035a4fb49, 2020-05-01)"
   id="svg8"
   version="1.1"
   viewBox="0 0 66.33125 66.283335"
   height="250.51968"
   width="250.70079">
  <defs
     id="defs2">
    <clipPath
       clipPathUnits="userSpaceOnUse"
       id="clipPath4907">
      <path
         d="m 2925.99,2420.51 c -218.48,0 -410.66,50.32 -456.69,113.92 -64.9,89.66 -64.3,170.57 -64.3,170.57 0.28,38.29 10.52,46.46 7.5,82.5 -6.26,74.66 -55.83,106.73 -80,157.5 -37.06,77.85 1.09,167.16 37.59,252.61 113.58,265.93 377.88,389.11 407.41,402.39 119.58,53.75 238.68,73.29 340.67,73.29 101.17,0 185.5,-19.22 236.83,-43.29 76.41,-35.84 127.5,-90 127.5,-90 0,0 40.03,-42.44 69.17,-101.66 206.11,-419.01 97.77,-676.76 97.77,-676.76 -107.17,-254.98 -437.77,-341.07 -723.45,-341.07"
         id="path4905" />
    </clipPath>
  </defs>
  <sodipodi:namedview
     inkscape:window-maximized="1"
     inkscape:window-y="-9"
     inkscape:window-x="-9"
     inkscape:window-height="991"
     inkscape:window-width="1920"
     units="px"
     showgrid="false"
     inkscape:document-rotation="0"
     inkscape:current-layer="layer1"
     inkscape:document-units="mm"
     inkscape:cy="360.44432"
     inkscape:cx="513.80125"
     inkscape:zoom="0.67583333"
     inkscape:pageshadow="2"
     inkscape:pageopacity="0.0"
     borderopacity="1.0"
     bordercolor="#666666"
     pagecolor="#ffffff"
     id="base" />
  <metadata
     id="metadata5">
    <rdf:RDF>
      <cc:Work
         rdf:about="">
        <dc:format>image/svg+xml</dc:format>
        <dc:type
           rdf:resource="http://purl.org/dc/dcmitype/StillImage" />
        <dc:title></dc:title>
      </cc:Work>
    </rdf:RDF>
  </metadata>
  <g
     id="layer1"
     inkscape:groupmode="layer"
     inkscape:label="Layer 1">
    <g
       transform="translate(-249.38039,-135.06473)"
       id="g4414">
      <path
         d="m 274.42668,191.60982 c -1.51024,0 -3.06846,-0.12096 -4.6676,-0.3919 -3.7839,-0.64106 -7.90434,-1.33946 -10.79077,-4.66188 -8.98313,-10.34137 6.25757,-31.9882 7.04145,-33.10122 3.52142,-5.00168 6.2805,-5.22287 6.9155,-5.2451 0.0586,-0.002 0.11606,-0.003 0.17251,-0.003 0.6477,0 1.1684,0.13123 1.72473,0.26247 0.55598,0.13123 1.14759,0.26211 1.93604,0.26211 0.1838,0 0.37818,-0.007 0.58526,-0.0229 2.48885,-0.19121 4.00368,-1.43369 5.35411,-2.22003 2.39254,-1.39347 5.05742,-1.81822 7.46866,-1.81822 2.63419,0 4.96605,0.50659 6.31331,0.81033 2.94534,0.66287 7.14657,1.60937 10.15859,5.16573 4.98546,5.88645 2.86385,14.37851 2.35126,16.43062 -2.19604,8.78872 -8.9154,13.62672 -13.07712,16.6285 -2.80211,2.02145 -10.95974,7.90469 -21.48593,7.90469"
         style="fill:#84acab;fill-opacity:1;fill-rule:nonzero;stroke:none;stroke-width:0.0352778"
         id="path4097" />
      <path
         d="m 275.81874,180.56513 c -0.121,0.0353 -0.242,0.0705 -0.37218,0.0839 -2.67934,0.40048 -6.3694,-4.05832 -8.44021,-10.30675 -2.14347,-6.45795 -1.74025,-12.42978 0.88477,-13.42179 0.0279,-0.0141 0.0501,-0.0233 0.0829,-0.0321 2.70016,-0.8957 6.64669,3.6823 8.81804,10.2175 2.16535,6.54008 1.72649,12.56376 -0.97332,13.45922"
         style="fill:#d6cb43;fill-opacity:1;fill-rule:nonzero;stroke:none;stroke-width:0.0352778"
         id="path4099" />
      <path
         d="m 275.81874,180.56513 c -0.121,0.0353 -0.242,0.0705 -0.37218,0.0839 -0.56232,-2.09088 -1.18357,-6.28893 -3.55847,-13.35475 -1.68627,-5.00521 -3.16336,-8.22784 -3.99697,-10.37379 0.0279,-0.0141 0.0501,-0.0233 0.0829,-0.0321 2.70016,-0.8957 6.64669,3.6823 8.81804,10.2175 2.16535,6.54008 1.72649,12.56376 -0.97332,13.45922"
         style="fill:#d6cb43;fill-opacity:1;fill-rule:nonzero;stroke:none;stroke-width:0.0352778"
         id="path4101" />
      <path
         d="m 271.69618,166.77395 -0.0194,-0.005 -6.03391,-3.0293 -0.0198,-0.0589 0.0589,-0.0194 6.03391,3.0293 0.0197,0.0589 -0.0395,0.0243"
         style="fill:#938a16;fill-opacity:1;fill-rule:nonzero;stroke:none;stroke-width:0.0352778"
         id="path4103" />
      <path
         d="m 269.65889,161.02332 -0.018,-0.004 -0.0222,-0.0582 1.41676,-3.21839 0.0582,-0.0222 0.0226,0.0582 -1.41711,3.21839 -0.0402,0.0261"
         style="fill:#938a16;fill-opacity:1;fill-rule:nonzero;stroke:none;stroke-width:0.0352778"
         id="path4105" />
      <path
         d="m 275.44656,180.69315 -0.043,-0.0357 c -0.44167,-2.18433 -0.95108,-4.38284 -1.51447,-6.53479 -1.53106,-5.84729 -3.53448,-11.6399 -5.95524,-17.21696 l 0.0229,-0.0579 0.0578,0.0229 c 2.42253,5.58095 4.42772,11.37814 5.95983,17.22999 0.56374,2.15303 1.0735,4.35296 1.51518,6.53976 l -0.0346,0.0515 -0.008,0.001"
         style="fill:#938a16;fill-opacity:1;fill-rule:nonzero;stroke:none;stroke-width:0.0352778"
         id="path4107" />
      <path
         d="m 282.24459,178.1613 c -0.14711,-0.004 -0.29386,-0.008 -0.44344,-0.0407 -3.12032,-0.5213 -5.61128,-6.80434 -5.6582,-14.49133 -0.0526,-7.94632 2.54846,-14.43355 5.82224,-14.58877 0.036,-0.006 0.0642,-0.008 0.10407,-0.006 3.32176,-0.0212 6.05473,6.48688 6.10976,14.52845 0.0469,8.04548 -2.61267,14.5778 -5.93443,14.59833"
         style="fill:#d6cb43;fill-opacity:1;fill-rule:nonzero;stroke:none;stroke-width:0.0352778"
         id="path4109" />
      <path
         d="m 282.24459,178.1613 c -0.14711,-0.004 -0.29386,-0.008 -0.44344,-0.0407 0.12947,-2.52469 0.9525,-7.41217 0.86289,-16.11693 -0.0681,-6.16726 -0.5468,-10.27889 -0.69885,-12.96317 0.036,-0.006 0.0642,-0.008 0.10407,-0.006 3.32176,-0.0212 6.05473,6.48688 6.10976,14.52845 0.0469,8.04548 -2.61267,14.5778 -5.93443,14.59833"
         style="fill:#d6cb43;fill-opacity:1;fill-rule:nonzero;stroke:none;stroke-width:0.0352778"
         id="path4111" />
      <path
         d="m 282.65487,161.35211 -0.031,-0.0127 -5.61023,-5.54073 -3.5e-4,-0.0624 0.0624,-3.5e-4 5.61023,5.54072 3.5e-4,0.0624 -0.0314,0.0131"
         style="fill:#938a16;fill-opacity:1;fill-rule:nonzero;stroke:none;stroke-width:0.0352778"
         id="path4113" />
      <path
         d="m 282.46508,154.22988 -0.0293,-0.0113 -0.004,-0.0621 2.73473,-3.06352 0.0621,-0.004 0.003,0.0621 -2.73474,3.06352 -0.0324,0.0148"
         style="fill:#938a16;fill-opacity:1;fill-rule:nonzero;stroke:none;stroke-width:0.0352778"
         id="path4115" />
      <path
         d="m 281.80115,178.16472 -0.0437,-0.0493 c 0.29703,-2.58092 0.52352,-5.20664 0.67415,-7.80478 0.40817,-7.04893 0.27129,-14.20573 -0.40604,-21.27187 l 0.0395,-0.048 0.048,0.0395 c 0.67803,7.07073 0.81491,14.23212 0.40675,21.28514 -0.15064,2.59969 -0.37747,5.22746 -0.67487,7.8106 l -0.0437,0.0387"
         style="fill:#938a16;fill-opacity:1;fill-rule:nonzero;stroke:none;stroke-width:0.0352778"
         id="path4117" />
      <path
         d="m 273.58072,181.10064 c -0.0448,0.0561 -0.0896,0.11286 -0.14605,0.16151 -1.12113,1.07004 -4.31482,0.20009 -7.3413,-2.03977 -3.12914,-2.31386 -4.9075,-5.23903 -4.00615,-6.56731 l 0.0279,-0.0426 c 0.96767,-1.30778 4.32082,-0.46676 7.48841,1.87385 3.16654,2.34527 4.94489,5.30613 3.97722,6.6143"
         style="fill:#d6cb43;fill-opacity:1;fill-rule:nonzero;stroke:none;stroke-width:0.0352778"
         id="path4119" />
      <path
         d="m 273.58072,181.10064 c -0.0448,0.0561 -0.0896,0.11286 -0.14605,0.16151 -0.95144,-0.79238 -2.62467,-2.55062 -6.06249,-5.07298 -2.43663,-1.78471 -4.18853,-2.80554 -5.28496,-3.5341 l 0.0279,-0.0426 c 0.96767,-1.30778 4.32082,-0.46676 7.48841,1.87385 3.16654,2.34527 4.94489,5.30613 3.97722,6.6143"
         style="fill:#d6cb43;fill-opacity:1;fill-rule:nonzero;stroke:none;stroke-width:0.0352778"
         id="path4121" />
      <path
         d="m 263.27749,176.60301 -0.0437,-0.0374 0.037,-0.0505 3.81953,-0.57047 0.0501,0.0375 -0.037,0.05 -3.81917,0.57051 -0.007,2.8e-4"
         style="fill:#938a16;fill-opacity:1;fill-rule:nonzero;stroke:none;stroke-width:0.0352778"
         id="path4123" />
      <path
         d="m 264.25045,174.01478 -0.043,-0.0353 -0.39759,-1.97171 0.0342,-0.052 0.0519,0.0346 0.39758,1.97168 -0.0346,0.0515 -0.008,0.001"
         style="fill:#938a16;fill-opacity:1;fill-rule:nonzero;stroke:none;stroke-width:0.0352778"
         id="path4125" />
      <path
         d="m 273.43467,181.30624 -0.0303,-0.012 c -0.92674,-0.8763 -1.88877,-1.73673 -2.85961,-2.55626 -2.6416,-2.22981 -5.48535,-4.27839 -8.45256,-6.08817 l -0.0145,-0.0607 0.0603,-0.0145 c 2.97074,1.81187 5.81872,3.8632 8.46385,6.0959 0.9719,0.82105 1.93533,1.68204 2.86314,2.55943 l 0.002,0.0624 -0.0321,0.0138"
         style="fill:#938a16;fill-opacity:1;fill-rule:nonzero;stroke:none;stroke-width:0.0352778"
         id="path4127" />
      <path
         d="m 295.53056,166.72315 c -0.90488,1.5518 -3.00108,2.70552 -5.01298,2.3308 -1.43369,-0.26705 -2.95733,-1.33456 -3.30517,-2.74919 -0.18098,-0.7359 0.13617,-0.83327 0.26141,-2.24967 0.23283,-2.63525 -0.71826,-3.97157 0.10442,-4.76038 0.15734,-0.15099 0.18062,-0.091 0.99413,-0.41875 1.76953,-0.71261 2.12196,-1.27212 2.61584,-1.25554 2.87655,0.0967 6.32037,5.70936 4.34235,9.10273"
         style="fill:#210b04;fill-opacity:1;fill-rule:nonzero;stroke:none;stroke-width:0.0352778"
         id="path4129" />
      <path
         d="m 290.98325,157.71391 c -0.21696,0 -0.41804,0.12312 -0.74507,0.32314 -0.36336,0.22225 -0.91228,0.55845 -1.83338,0.92957 -0.33691,0.13582 -0.53764,0.20462 -0.67063,0.25048 -0.18521,0.0639 -0.22402,0.0773 -0.30939,0.15875 -0.4385,0.42086 -0.35348,1.00894 -0.22507,1.89865 0.10654,0.73519 0.23883,1.65029 0.13405,2.83386 -0.0557,0.63183 -0.15099,1.00895 -0.22084,1.28411 -0.0871,0.34467 -0.1397,0.55245 -0.042,0.95109 0.35666,1.45034 1.91559,2.46415 3.27061,2.71632 2.12337,0.3962 4.14196,-0.89461 4.96676,-2.30886 0.90805,-1.55787 0.74824,-3.75814 -0.42757,-5.88645 -1.03293,-1.86937 -2.55482,-3.10586 -3.87773,-3.15031 z m 0.14217,11.50694 c -0.26388,0 -0.53058,-0.0237 -0.79975,-0.0737 -1.38324,-0.25795 -2.97462,-1.29617 -3.3401,-2.78204 -0.10336,-0.42051 -0.0487,-0.63641 0.042,-0.99448 0.0691,-0.27234 0.16334,-0.64523 0.21872,-1.26965 0.10337,-1.17369 -0.0279,-2.0828 -0.1337,-2.81375 -0.13264,-0.91687 -0.22013,-1.52294 0.25083,-1.9745 0.0998,-0.0956 0.15099,-0.11324 0.34219,-0.17886 0.13194,-0.0455 0.33197,-0.1143 0.6664,-0.24906 0.91405,-0.3683 1.43792,-0.68862 1.82033,-0.92287 0.33973,-0.20778 0.54928,-0.33619 0.78987,-0.33619 l 0.0236,3.5e-4 c 1.35325,0.0455 2.90442,1.29998 3.95217,3.19617 1.19098,2.15547 1.35043,4.3882 0.42686,5.97288 -0.73554,1.26157 -2.40524,2.42573 -4.25944,2.42573"
         style="fill:#210b04;fill-opacity:1;fill-rule:nonzero;stroke:none;stroke-width:0.0352778"
         id="path4131" />
      <path
         d="m 292.93235,180.42966 c -1.61643,-1.74777 -3.23251,-3.49497 -4.84823,-5.24231 -0.0473,0.57506 -0.14464,1.18745 -0.31362,1.82425 -0.95708,3.60397 -3.62726,5.79395 -5.02249,6.76589 -0.84702,-0.64672 -1.69369,-1.29329 -2.54106,-1.93986 1.40546,-3.77652 2.78271,-6.65801 3.83187,-8.66249 0.78881,-1.50717 1.7907,-3.27946 3.31152,-3.38709 0.54222,-0.038 1.00683,0.14538 1.3268,0.31792 1.33491,0.61376 2.86562,1.4333 4.47287,2.53076 1.35255,0.92357 2.4959,1.86408 3.44382,2.73583 -1.22061,1.6856 -2.44122,3.37149 -3.66148,5.0571"
         style="fill:#ffa300;fill-opacity:1;fill-rule:nonzero;stroke:none;stroke-width:0.0352778"
         id="path4133" />
      <path
         d="m 287.94971,173.77416 c 0.55669,0.44485 1.11302,0.89037 1.66935,1.33561 1.53317,-1.74103 2.78659,-3.16688 4.09328,-4.6404 0.57644,-0.65059 1.17651,-1.32514 1.21179,-2.29595 0.0402,-1.1169 -0.6671,-2.5908 -1.65841,-2.5968 -0.62512,-0.004 -1.22696,0.57609 -1.58609,1.34126 -1.24354,2.28562 -2.48637,4.57052 -3.72992,6.85628"
         style="fill:#ffffff;fill-opacity:1;fill-rule:nonzero;stroke:none;stroke-width:0.0352778"
         id="path4135" />
      <path
         d="m 290.10448,174.39854 c -0.10901,0.61133 -0.82903,1.10493 -1.6323,0.94618 -0.58597,-0.17572 -1.18851,-0.40185 -1.81646,-0.66999 -0.56938,-0.24268 -1.1049,-0.51044 -1.60725,-0.79474 -1.80799,-0.99632 -3.21416,-2.16821 -4.27708,-3.22266 0.12559,-0.23428 0.25118,-0.47738 0.37642,-0.71163 0.17603,0.12566 0.51928,0.35994 0.97119,0.61102 1.25554,0.68654 2.25143,0.95429 3.64949,1.36468 0.63606,0.18369 1.36419,0.39328 2.24296,0.69452 0.34361,0.11715 0.87912,0.30938 1.54023,0.56059 0.41028,0.30166 0.63606,0.77858 0.5528,1.22203"
         style="fill:#ffa9a9;fill-opacity:1;fill-rule:nonzero;stroke:none;stroke-width:0.0352778"
         id="path4137" />
      <path
         d="m 288.28944,184.79779 c -0.56445,0.61486 -0.51188,1.58817 0.01,2.18225 0.39547,0.45117 1.02941,0.64728 1.65453,0.51883 0.20003,-0.22049 0.40746,-0.44415 0.62336,-0.66918 0.18133,-0.18976 0.36195,-0.37317 0.54046,-0.55136 0.0148,-0.10485 0.11712,-0.92742 -0.45579,-1.49116 -0.60184,-0.59337 -1.73214,-0.68696 -2.37208,0.0106"
         style="fill:#ffa9a9;fill-opacity:1;fill-rule:nonzero;stroke:none;stroke-width:0.0352778"
         id="path4139" />
      <path
         d="m 288.65774,184.50675 c 0.7246,0.62438 1.44921,1.24904 2.17346,1.87357 1.92264,-0.67384 4.35011,-1.77518 6.82308,-3.61915 1.08091,-0.80574 2.00483,-1.62994 2.78694,-2.41402 -1.72543,-1.19176 -3.45052,-2.38348 -5.17525,-3.57505 -1.45203,0.89214 -3.55388,2.47262 -5.22887,5.07005 -0.60396,0.93694 -1.04881,1.84506 -1.37936,2.6646"
         style="fill:#ffa9a9;fill-opacity:1;fill-rule:nonzero;stroke:none;stroke-width:0.0352778"
         id="path4141" />
      <path
         d="m 303.14244,185.65285 c 0.0557,-0.3605 0.11183,-0.72072 0.16792,-1.08119 -0.63253,-0.0735 -1.63477,-0.20189 -2.8582,-0.41494 -3.7786,-0.6569 -4.99569,-1.30527 -6.94514,-1.01603 -0.81033,0.1203 -1.99989,0.44069 -3.37714,1.39485 -0.11289,1.00129 -0.22578,2.0031 -0.33867,3.00468 2.38655,-0.50063 4.95089,-0.94891 7.68068,-1.30638 1.96709,-0.25756 3.8601,-0.4469 5.67055,-0.58099"
         style="fill:#ffa9a9;fill-opacity:1;fill-rule:nonzero;stroke:none;stroke-width:0.0352778"
         id="path4143" />
      <path
         d="m 306.1594,189.69078 0.14217,-5.66455 c -0.25259,-0.0646 -0.63147,-0.12005 -1.04246,0.007 -0.15487,0.0479 -0.25859,0.10432 -0.31503,0.13367 -0.29034,0.15018 -0.77823,0.32519 -1.63372,0.40432 -0.0561,0.36047 -0.11218,0.72069 -0.16792,1.08119 2.05458,1.42173 2.45357,2.20666 2.41124,2.66528 -0.0113,0.12347 -0.0864,0.57104 0.16122,0.96449 0.13123,0.20807 0.31115,0.33401 0.4445,0.40816"
         style="fill:#ffa9a9;fill-opacity:1;fill-rule:nonzero;stroke:none;stroke-width:0.0352778"
         id="path4145" />
      <path
         d="m 276.00713,185.30505 h 5.66631 c 0.0582,-0.25372 0.10407,-0.63475 -0.0332,-1.04182 -0.0519,-0.15336 -0.11112,-0.25577 -0.14181,-0.31144 -0.1577,-0.28649 -0.34467,-0.76976 -0.44521,-1.62316 -0.36195,-0.0469 -0.72319,-0.0941 -1.08514,-0.14111 -1.36949,2.08978 -2.14454,2.50857 -2.6035,2.47798 -0.12383,-0.009 -0.57362,-0.0721 -0.96027,0.18507 -0.20496,0.13656 -0.32631,0.3193 -0.39722,0.45448"
         style="fill:#ffa9a9;fill-opacity:1;fill-rule:nonzero;stroke:none;stroke-width:0.0352778"
         id="path4147" />
      <path
         d="m 301.44593,178.55045 c -0.15028,0.41836 -0.43497,1.07128 -1.00435,1.79945 -1.86655,-0.9543 -3.72463,-1.89978 -5.59118,-2.85394 -0.66146,-3.92575 -1.32256,-7.85992 -1.99214,-11.7941 -0.44379,-0.68615 -0.90417,-1.37266 -1.35607,-2.05881 -0.17569,-0.26811 -0.34326,-0.52741 -0.51894,-0.79552 0.61101,-0.40992 1.22202,-0.82021 1.83303,-1.23013 0.52741,0.52705 1.38078,1.41464 2.35197,2.56116 2.87091,3.40678 7.98513,9.46676 6.27768,14.37189"
         style="fill:#ffa9a9;fill-opacity:1;fill-rule:nonzero;stroke:none;stroke-width:0.0352778"
         id="path4149" />
      <path
         d="m 293.18458,164.3292 c 0,0.55245 -0.12559,1.04634 -0.32632,1.37266 -0.44379,-0.68615 -0.90417,-1.37266 -1.35607,-2.05881 0.13405,-0.63641 0.44379,-1.08021 0.80327,-1.08021 0.48578,0 0.87912,0.78705 0.87912,1.76636"
         style="fill:#210b04;fill-opacity:1;fill-rule:nonzero;stroke:none;stroke-width:0.0352778"
         id="path4151" />
      <path
         d="m 289.02498,163.46348 c 0.17074,0.43851 0.45226,0.69321 0.8121,1.01883 0.0642,0.0582 0.83467,0.74436 1.3917,0.72566 0.1958,-0.007 0.37853,-0.0628 0.37853,-0.0628 0.12312,-0.0385 0.2346,-0.0921 0.34185,-0.15769 0.12805,-0.078 1.10066,-0.762 1.55151,-1.89724 0.5588,-1.40758 0.49142,-3.94158 -1.15182,-4.84046 -1.01388,-0.55386 -2.16076,-0.23036 -2.60597,-0.0758 -0.0476,0.019 -0.10195,0.0413 -0.16086,0.0681 0,0 -0.22755,0.10372 -0.42545,0.23072 -0.71685,0.45861 -0.9652,1.05903 -0.9652,1.05903 -0.23954,0.57856 -0.10866,1.20827 0.0593,1.6884 0.0321,0.0924 0.066,0.17992 0.0988,0.25964 0.037,0.091 0.0727,0.17251 0.10336,0.24342 0.0921,0.21061 0.17251,0.34008 0.28434,0.65617 0.19968,0.56268 0.15346,0.73766 0.28787,1.08408"
         style="fill:#ffa9a9;fill-opacity:1;fill-rule:nonzero;stroke:none;stroke-width:0.0352778"
         id="path4153" />
      <path
         d="m 294.21928,160.65714 c 0.15028,0.42474 0.018,0.85936 -0.29598,0.97013 -0.31362,0.11113 -0.68968,-0.14358 -0.83996,-0.56867 -0.15029,-0.4251 -0.018,-0.85972 0.29598,-0.97014 0.31362,-0.11113 0.68932,0.14358 0.83996,0.56868"
         style="fill:#ffa9a9;fill-opacity:1;fill-rule:nonzero;stroke:none;stroke-width:0.0352778"
         id="path4155" />
      <path
         d="m 293.7709,161.69748 c -0.0455,0 -0.0928,-0.006 -0.14041,-0.0184 l -0.0317,-0.054 0.0536,-0.0317 c 0.0896,0.0236 0.17603,0.0208 0.25611,-0.008 0.17286,-0.061 0.29351,-0.23672 0.32209,-0.46955 l 0.0494,-0.0384 0.0381,0.0494 c -0.0328,0.2667 -0.17498,0.46919 -0.37994,0.54186 -0.054,0.019 -0.10972,0.0286 -0.16722,0.0286"
         style="fill:#210b04;fill-opacity:1;fill-rule:nonzero;stroke:none;stroke-width:0.0352778"
         id="path4157" />
      <path
         d="m 294.28137,161.05472 -0.0441,-0.0441 c 0,-0.0928 -0.0134,-0.18627 -0.0406,-0.2787 l 0.03,-0.0547 0.055,0.03 c 0.0289,0.10054 0.0437,0.20249 0.0437,0.30339 l -0.0441,0.0441"
         style="fill:#210b04;fill-opacity:1;fill-rule:nonzero;stroke:none;stroke-width:0.0352778"
         id="path4159" />
      <path
         d="m 294.18647,160.61939 -0.0402,-0.0265 c -0.15981,-0.35877 -0.48402,-0.55951 -0.75213,-0.46284 -0.0596,0.0208 -0.11289,0.0547 -0.15875,0.10124 l -0.0624,3.6e-4 -3.5e-4,-0.0624 c 0.0554,-0.0561 0.1203,-0.0974 0.19226,-0.12241 0.3108,-0.11042 0.68298,0.1083 0.86184,0.51047 l -0.0222,0.0582 -0.018,0.004"
         style="fill:#210b04;fill-opacity:1;fill-rule:nonzero;stroke:none;stroke-width:0.0352778"
         id="path4161" />
      <path
         d="m 293.6633,161.31189 -0.0441,-0.0462 0.0349,-0.80539 0.0462,-0.042 0.042,0.0462 -0.0349,0.80504 -0.0441,0.0423"
         style="fill:#210b04;fill-opacity:1;fill-rule:nonzero;stroke:none;stroke-width:0.0352778"
         id="path4163" />
      <path
         d="m 293.65942,160.84799 -0.0279,-0.01 -0.21484,-0.17357 -0.006,-0.0624 0.0621,-0.007 0.21484,0.17427 0.006,0.0621 -0.0342,0.0162"
         style="fill:#210b04;fill-opacity:1;fill-rule:nonzero;stroke:none;stroke-width:0.0352778"
         id="path4165" />
      <path
         d="m 291.08379,161.61881 c 0.0621,0.14852 0.25577,0.21272 0.43251,0.14428 0.17674,-0.0688 0.26987,-0.24482 0.20814,-0.39334 -0.0621,-0.14852 -0.25577,-0.21343 -0.43251,-0.14464 -0.17674,0.0688 -0.27023,0.24483 -0.20814,0.3937"
         style="fill:#210b04;fill-opacity:1;fill-rule:nonzero;stroke:none;stroke-width:0.0352778"
         id="path4167" />
      <path
         d="m 290.92398,161.72111 -0.0183,-0.004 -0.26423,-0.11959 -0.0222,-0.0582 0.0582,-0.0222 0.20567,0.0928 c 0.005,-0.0473 0.0173,-0.0921 0.0363,-0.1337 0.12911,-0.28082 0.56938,-0.41099 1.12254,-0.33514 l 0.0377,0.0501 -0.0501,0.0374 c -0.50624,-0.072 -0.91899,0.0437 -1.03011,0.28469 -0.0222,0.049 -0.0328,0.1023 -0.0314,0.16263 l -0.0197,0.0377 -0.0244,0.007"
         style="fill:#210b04;fill-opacity:1;fill-rule:nonzero;stroke:none;stroke-width:0.0352778"
         id="path4169" />
      <path
         d="m 288.73359,162.60165 c 0.0621,0.14852 0.25576,0.21307 0.4325,0.14428 0.17674,-0.0684 0.26988,-0.24482 0.20814,-0.39334 -0.0621,-0.14852 -0.25576,-0.21343 -0.43251,-0.14429 -0.17709,0.0688 -0.27022,0.24483 -0.20813,0.39335"
         style="fill:#210b04;fill-opacity:1;fill-rule:nonzero;stroke:none;stroke-width:0.0352778"
         id="path4171" />
      <path
         d="m 288.57378,162.70395 -0.018,-0.004 -0.26494,-0.11959 -0.0219,-0.0586 0.0586,-0.0219 0.20532,0.0928 c 0.005,-0.0473 0.0176,-0.0921 0.0363,-0.13371 0.12947,-0.28045 0.56903,-0.41239 1.12254,-0.33478 l 0.0374,0.0501 -0.0498,0.0374 c -0.50412,-0.0713 -0.91898,0.0434 -1.03011,0.28469 -0.0222,0.048 -0.0328,0.10266 -0.0314,0.16228 l -0.0197,0.0377 -0.0243,0.007"
         style="fill:#210b04;fill-opacity:1;fill-rule:nonzero;stroke:none;stroke-width:0.0352778"
         id="path4173" />
      <path
         d="m 291.8532,160.35763 c -0.22931,0.0307 -0.54187,0.0942 -0.89076,0.23495 -0.29986,0.121 -0.53623,0.26246 -0.70768,0.3817 -0.0145,-0.0406 -0.0272,-0.0885 -0.0335,-0.14428 -0.0155,-0.13406 0.0131,-0.2473 0.0395,-0.32033 0.23883,-0.0935 0.44274,-0.1591 0.59302,-0.20355 0.36442,-0.10795 0.4759,-0.10971 0.54963,-0.10477 0.20743,0.0138 0.36124,0.097 0.44979,0.15628"
         style="fill:#210b04;fill-opacity:1;fill-rule:nonzero;stroke:none;stroke-width:0.0352778"
         id="path4175" />
      <path
         d="m 290.12424,160.55518 c -0.008,0.0452 -0.0148,0.11078 -0.009,0.18874 0.0106,0.13582 0.0582,0.25647 0.0723,0.25329 0.0159,-0.004 3.5e-4,-0.16439 -0.004,-0.21166 -0.007,-0.0702 -0.0162,-0.13018 -0.005,-0.21908 l 0.008,-0.0515 -0.0628,0.0402"
         style="fill:#210b04;fill-opacity:1;fill-rule:nonzero;stroke:none;stroke-width:0.0352778"
         id="path4177" />
      <path
         d="m 288.25063,161.22017 c 0.0321,0.0924 0.066,0.17992 0.0988,0.25964 0.0907,-0.0272 0.18733,-0.0518 0.28998,-0.0734 0.31609,-0.066 0.59091,-0.0794 0.8001,-0.0766 -0.0106,-0.0413 -0.0268,-0.0885 -0.0522,-0.13793 -0.0614,-0.11995 -0.14852,-0.19826 -0.21096,-0.24448 -0.25082,0.0554 -0.45649,0.1143 -0.60607,0.16052 -0.14393,0.0448 -0.24589,0.0815 -0.31962,0.11218"
         style="fill:#210b04;fill-opacity:1;fill-rule:nonzero;stroke:none;stroke-width:0.0352778"
         id="path4179" />
      <path
         d="m 289.31496,160.90937 c 0.0314,0.0335 0.0744,0.084 0.11219,0.1524 0.0667,0.11854 0.0942,0.24518 0.0804,0.25047 -0.0148,0.006 -0.0914,-0.13617 -0.11395,-0.17815 -0.0332,-0.0621 -0.0586,-0.11747 -0.11747,-0.18521 l -0.036,-0.0381 0.0748,-10e-4"
         style="fill:#210b04;fill-opacity:1;fill-rule:nonzero;stroke:none;stroke-width:0.0352778"
         id="path4181" />
      <path
         d="m 290.51511,162.85 c -0.0988,-0.0176 -0.1845,0.001 -0.26775,0.0282 -0.0811,0.0307 -0.15981,0.0702 -0.22543,0.14605 0.0988,0.018 0.1845,-7e-4 0.26705,-0.0282 0.0819,-0.031 0.16016,-0.0705 0.22613,-0.14605"
         style="fill:#210b04;fill-opacity:1;fill-rule:nonzero;stroke:none;stroke-width:0.0352778"
         id="path4183" />
      <path
         d="m 290.09354,163.8526 c 0.0473,0.0963 0.37607,0.0487 0.62372,-0.0402 0.31679,-0.11324 0.58843,-0.32526 0.5662,-0.37077 -0.008,-0.0159 -0.0444,0.003 -0.12594,0.002 -0.26423,-7.1e-4 -0.38523,-0.20249 -0.51399,-0.14429 -0.0229,0.0106 -0.0829,0.0455 -0.14958,0.0635 l -0.0579,0.0134 c -0.10936,0.0215 -0.12065,0.004 -0.1591,0.025 -0.0688,0.0543 -0.12171,0.25117 -0.12171,0.25117 -0.0416,0.15875 -0.0776,0.16722 -0.0617,0.19968"
         style="fill:#d82e2e;fill-opacity:1;fill-rule:nonzero;stroke:none;stroke-width:0.0352778"
         id="path4185" />
      <path
         d="m 290.6594,164.25617 -0.0437,-0.0384 0.0381,-0.0494 c 0.0603,-0.007 0.11994,-0.0201 0.17674,-0.0381 0.13123,-0.0406 0.25259,-0.10795 0.36159,-0.19896 l 0.0621,0.006 -0.006,0.0621 c -0.11783,0.0988 -0.24941,0.1711 -0.39158,0.21519 -0.0617,0.0198 -0.12665,0.0335 -0.19192,0.0416 l -0.006,3.5e-4"
         style="fill:#210b04;fill-opacity:1;fill-rule:nonzero;stroke:none;stroke-width:0.0352778"
         id="path4187" />
      <path
         d="m 290.12918,163.89705 c -0.0473,0 -0.0938,-0.002 -0.14112,-0.005 l -0.0406,-0.0476 0.0441,-0.0406 c 0.27587,0.0205 0.5528,-0.0219 0.80398,-0.12347 0.22014,-0.0885 0.42475,-0.22437 0.59232,-0.393 l 0.0621,-3.5e-4 3.5e-4,0.0624 c -0.17604,0.1771 -0.39088,0.31962 -0.6216,0.41311 -0.22048,0.0889 -0.45967,0.13476 -0.69955,0.13476"
         style="fill:#210b04;fill-opacity:1;fill-rule:nonzero;stroke:none;stroke-width:0.0352778"
         id="path4189" />
      <path
         d="m 296.94908,183.4349 c -2.88502,0.37014 -5.77039,0.74013 -8.65576,1.1103 0.77364,-1.6239 1.85067,-3.52573 3.35351,-5.4974 0.98425,-1.29195 1.97873,-2.38693 2.9083,-3.30303 2.4585,0.0384 4.91701,0.0772 7.37482,0.11603 0.10336,0.71931 0.18168,2.0217 -0.38347,3.45267 -1.17617,2.97847 -4.13632,3.9744 -4.5974,4.12143"
         style="fill:#ffa300;fill-opacity:1;fill-rule:nonzero;stroke:none;stroke-width:0.0352778"
         id="path4191" />
      <path
         d="m 302.25274,187.96284 c -3.93242,0.16539 -7.86483,0.3313 -11.79689,0.49707 -0.12877,-0.0151 -1.65206,-0.21911 -2.32798,-1.54312 -0.59055,-1.15701 -0.28152,-2.67187 0.80609,-3.64064 2.22603,-0.467 5.59365,-0.86046 9.52571,-0.10018 1.74943,0.33831 3.26531,0.83784 4.52296,1.35639 -0.24341,1.14335 -0.48648,2.28674 -0.72989,3.43048"
         style="fill:#ffa300;fill-opacity:1;fill-rule:nonzero;stroke:none;stroke-width:0.0352778"
         id="path4193" />
      <path
         d="m 303.9877,176.97699 c -0.39123,0.42541 -1.05692,1.06331 -2.02283,1.60404 -0.44838,0.2515 -4.28801,2.33056 -6.99488,0.36231 -1.26506,-0.91973 -1.75507,-2.34033 -1.95051,-3.27452 -0.054,-3.32204 -0.10759,-6.64447 -0.16122,-9.96696 0.2159,0.0229 0.54646,0.0222 0.89359,-0.12947 0.98002,-0.43004 1.12466,-1.64924 1.13277,-1.72508 0.96732,0.623 1.98967,1.39453 3.00002,2.35267 3.91831,3.71761 5.45642,8.16289 6.10306,10.77701"
         style="fill:#ffffff;fill-opacity:1;fill-rule:nonzero;stroke:none;stroke-width:0.0352778"
         id="path4195" />
      <path
         d="m 291.31909,184.35184 -0.0434,-0.0353 0.0349,-0.0522 6.27768,-1.2379 0.0519,0.0349 -0.0346,0.052 -6.27768,1.23789 -0.009,6.7e-4"
         style="fill:#210b04;fill-opacity:1;fill-rule:nonzero;stroke:none;stroke-width:0.0352778"
         id="path4197" />
      <path
         d="m 291.31909,184.35184 -0.94861,-0.35344 -0.0258,-0.0569 0.0568,-0.0256 0.9331,0.35055 0.0258,0.0568 -0.0413,0.0286"
         style="fill:#210b04;fill-opacity:1;fill-rule:nonzero;stroke:none;stroke-width:0.0352778"
         id="path4199" />
      <path
         d="m 290.98325,184.97266 -0.0229,-0.007 -0.0145,-0.0607 0.30973,-0.50549 0.0603,-0.0145 0.0145,0.0606 -0.30938,0.5056 -0.0378,0.0211"
         style="fill:#210b04;fill-opacity:1;fill-rule:nonzero;stroke:none;stroke-width:0.0352778"
         id="path4201" />
      <path
         d="m 291.5544,179.47995 -0.0328,-0.0145 0.003,-0.0624 1.67393,-1.51737 0.0625,0.003 -0.003,0.0624 -1.67393,1.51694 -0.0296,0.0116"
         style="fill:#210b04;fill-opacity:1;fill-rule:nonzero;stroke:none;stroke-width:0.0352778"
         id="path4203" />
      <path
         d="m 281.99835,185.5043 h -7.27181 c 0.1323,-0.21029 0.34749,-0.50162 0.68016,-0.76757 0.54892,-0.4389 1.06468,-0.52529 1.69157,-0.73241 0.47343,-0.15628 1.12959,-0.42044 1.88348,-0.88938 -0.0409,-0.35444 -0.0815,-0.70902 -0.12241,-1.06359 0.0755,-0.03 0.30091,-0.10873 0.54045,-0.0172 0.30551,0.11603 0.50906,0.45999 0.4886,0.85439 0.56656,0.29214 1.13347,0.58413 1.70003,0.87588 0.12171,0.21346 0.27094,0.53206 0.35314,0.94188 0.0631,0.31337 0.0688,0.58773 0.0568,0.79802"
         style="fill:#210b04;fill-opacity:1;fill-rule:nonzero;stroke:none;stroke-width:0.0352778"
         id="path4205" />
      <path
         d="m 306.4194,183.47018 c -0.0374,2.073 -0.0748,4.14581 -0.11219,6.21909 -0.65863,-0.0222 -1.31656,-0.0437 -1.97485,-0.0656 0.001,-0.20451 0.0363,-0.4946 0.22225,-0.74539 0.21837,-0.29531 0.47519,-0.29697 0.57538,-0.47103 0.13653,-0.2377 0.0226,-0.73903 -1.06433,-1.89258 -0.35419,0.0448 -0.70802,0.0896 -1.06221,0.13434 -0.031,-0.0751 -0.11183,-0.29986 -0.0236,-0.54046 0.11254,-0.30688 0.45438,-0.51385 0.84879,-0.49844 0.28539,-0.57009 0.57079,-1.13979 0.85654,-1.70988 0.21167,-0.12414 0.52846,-0.27696 0.93733,-0.36406 0.31256,-0.0667 0.58702,-0.0751 0.79693,-0.066"
         style="fill:#210b04;fill-opacity:1;fill-rule:nonzero;stroke:none;stroke-width:0.0352778"
         id="path4207" />
      <path
         d="m 294.1205,160.26591 c -0.45437,0.67415 -2.15124,0.18908 -3.98921,-0.27059 -1.08444,-0.27093 -2.48179,-0.62053 -2.49767,-1.14935 -0.018,-0.58913 1.92159,-1.01988 2.49767,-1.14899 1.22873,-0.27517 1.96109,-0.43886 2.70369,-0.0406 1.04211,0.5588 1.69404,2.00342 1.28552,2.6095"
         style="fill:#210b04;fill-opacity:1;fill-rule:nonzero;stroke:none;stroke-width:0.0352778"
         id="path4209" />
      <path
         d="m 285.76637,188.63174 c -2.66065,0.38767 -6.60329,0.81348 -11.4046,0.7644 -5.94536,-0.0604 -11.84522,-0.83467 -11.89284,-1.84573 -0.0198,-0.41659 0.97719,-0.38269 1.88348,-1.56944 1.00647,-1.31879 0.52034,-2.3362 1.56915,-3.55741 0.53587,-0.62371 0.85161,-0.57824 1.84856,-1.25553 1.55222,-1.05421 2.36396,-2.23517 2.99931,-3.06889 4.32153,-5.67298 7.23089,-9.48161 9.48161,-9.1725 3.47663,0.47695 5.07189,10.74208 5.4229,15.38456 0.12947,1.71278 0.12912,3.18601 0.0924,4.32054"
         style="fill:#210b04;fill-opacity:1;fill-rule:nonzero;stroke:none;stroke-width:0.0352778"
         id="path4211" />
      <path
         d="m 284.92288,185.80734 c -0.17745,0.25756 -0.42686,0.48549 -0.42686,0.48549 -0.79481,0.69494 -2.09233,1.19722 -2.77883,0.73695 -0.67769,-0.46895 -0.25083,-1.57385 -0.49389,-2.83778 -0.0335,-0.17572 -0.0755,-0.34329 -0.13406,-0.50228 -0.0836,-0.24243 -0.19226,-0.46856 -0.31785,-0.67815 -0.34325,-0.56899 -0.82867,-1.00404 -1.37301,-1.3976 -0.91228,-0.66146 -1.98367,-1.18015 -2.80388,-1.92514 -0.38523,-0.35179 -0.71966,-0.75322 -0.95426,-1.24711 -0.25929,-0.53551 -0.37642,-1.13841 -0.38488,-1.78332 -0.024,-1.85526 2.19322,-7.88667 4.99709,-7.73356 2.35903,0.12802 3.60857,4.55083 4.89339,9.09849 0,0 1.49542,5.29279 -0.22296,7.78401"
         style="fill:#725e0a;fill-opacity:1;fill-rule:nonzero;stroke:none;stroke-width:0.0352778"
         id="path4213" />
      <path
         d="m 290.10448,174.39854 c -0.10901,0.61133 -0.82903,1.10493 -1.6323,0.94618 -0.58597,-0.17572 -1.18851,-0.40185 -1.81646,-0.66999 -0.56938,-0.24268 -1.1049,-0.51044 -1.60725,-0.79474 0.2346,-0.64491 0.47695,-1.30595 0.72002,-1.95859 0.63606,0.18369 1.36419,0.39328 2.24296,0.69452 0.34361,0.11715 0.87912,0.30938 1.54023,0.56059 0.41028,0.30166 0.63606,0.77858 0.5528,1.22203"
         style="fill:#ffffff;fill-opacity:1;fill-rule:nonzero;stroke:none;stroke-width:0.0352778"
         id="path4215" />
      <path
         d="m 297.76858,175.48721 c 0.65299,-0.28155 1.30598,-0.56265 1.95862,-0.84349 0.054,-1.49186 -0.0152,-3.24736 -0.35454,-5.1809 -0.13794,-0.78697 -0.30692,-1.52396 -0.49283,-2.20768 -0.42545,-1.22202 -1.4471,-1.72473 -1.94945,-1.50178 -0.44591,0.19791 -0.71155,1.06857 -0.42792,2.03267 0.42192,2.56689 0.8442,5.1343 1.26612,7.70118"
         style="fill:#ffffff;fill-opacity:1;fill-rule:nonzero;stroke:none;stroke-width:0.0352778"
         id="path4217" />
      <path
         d="m 289.42503,178.05889 c 0.0984,0.25234 0.19756,0.50422 0.29633,0.75614 1.90571,-0.15391 4.33847,-0.61598 6.88093,-1.85815 0.61066,-0.29848 1.17334,-0.61489 1.69016,-0.93846 -0.31432,-0.63747 -0.62794,-1.2748 -0.94227,-1.91269 -0.64734,0.17184 -1.13947,0.36269 -1.42628,0.48232 -2.36326,0.98598 -3.08469,2.26162 -5.40173,3.13048 -0.48613,0.18274 -0.8883,0.28924 -1.09714,0.34036"
         style="fill:#ffa9a9;fill-opacity:1;fill-rule:nonzero;stroke:none;stroke-width:0.0352778"
         id="path4219" />
      <path
         d="m 293.49256,180.52696 -3.20993,4.80067 c -1.0033,-0.56279 -2.05846,-1.20125 -3.14783,-1.92444 -1.1804,-0.78465 -2.25355,-1.57124 -3.22228,-2.33535 1.06998,-1.60059 2.14031,-3.20076 3.21028,-4.80067 0.84879,0.85548 1.9939,1.85028 3.47204,2.77385 1.0407,0.65017 2.02953,1.12998 2.89772,1.48594"
         style="fill:#ffffff;fill-opacity:1;fill-rule:nonzero;stroke:none;stroke-width:0.0352778"
         id="path4221" />
      <path
         d="m 293.75679,180.70335 c -0.03,0.09 -0.0596,0.18027 -0.0896,0.27022 -0.0885,0.0244 -0.1778,0.0491 -0.2667,0.0735 -0.0258,0.14637 -0.0508,0.29313 -0.0762,0.43946 -0.11606,0.052 -0.23248,0.10336 -0.34854,0.1549 -0.0257,0.11921 -0.0508,0.23855 -0.0762,0.35814 -0.0995,0.0536 -0.19897,0.10749 -0.29845,0.16112 -0.0286,0.13091 -0.0568,0.2614 -0.0854,0.39232 -0.1009,0.0395 -0.20214,0.0784 -0.30339,0.11755 0.01,0.12195 0.0183,0.24405 0.0279,0.36614 -0.11077,0.0737 -0.22084,0.14718 -0.33161,0.22091 0.0159,0.10153 0.0321,0.2031 0.0483,0.30466 -0.14041,0.0809 -0.28011,0.16235 -0.42016,0.24352 -0.008,0.0966 -0.0166,0.1929 -0.0251,0.28992 -0.10477,0.0593 -0.2092,0.11853 -0.31397,0.17819 -0.0113,0.10653 -0.0226,0.21276 -0.0342,0.31929 -0.09,0.0557 -0.17992,0.11106 -0.26988,0.16648 -0.0247,0.11328 -0.049,0.22655 -0.0737,0.33941 -0.067,0.0215 -0.1344,0.0427 -0.20143,0.0645 -0.0236,0.11327 -0.048,0.22683 -0.0716,0.34078 -0.0882,-0.0588 -0.17603,-0.11783 -0.26423,-0.17667 l 3.20993,-4.80067 0.26423,0.17639"
         style="fill:#3d6b68;fill-opacity:1;fill-rule:nonzero;stroke:none;stroke-width:0.0352778"
         id="path4223" />
      <path
         d="m 283.55834,180.8234 c 0.0335,-0.089 0.0667,-0.17752 0.0995,-0.26639 0.09,-0.0212 0.17992,-0.0423 0.26987,-0.0635 0.0307,-0.14538 0.0614,-0.29104 0.0924,-0.43642 0.11783,-0.0473 0.23601,-0.0945 0.35419,-0.14182 0.0296,-0.1185 0.0596,-0.23675 0.0892,-0.35482 0.10125,-0.0502 0.20285,-0.10019 0.3041,-0.15036 0.0335,-0.1294 0.0667,-0.25922 0.0998,-0.38872 0.10266,-0.0357 0.20497,-0.0706 0.30763,-0.10612 -0.005,-0.12252 -0.01,-0.24419 -0.0141,-0.36657 0.11288,-0.0696 0.22648,-0.13945 0.33937,-0.20849 -0.012,-0.10238 -0.0243,-0.20437 -0.0367,-0.30621 0.14287,-0.0762 0.28575,-0.15212 0.42862,-0.22832 0.0123,-0.0959 0.024,-0.19184 0.036,-0.28815 0.10689,-0.0558 0.21307,-0.11123 0.31997,-0.1669 0.0155,-0.10583 0.031,-0.21167 0.0466,-0.3175 0.0921,-0.0522 0.18415,-0.10446 0.27588,-0.15667 0.0286,-0.11218 0.0571,-0.22394 0.0857,-0.33612 0.0684,-0.0192 0.13617,-0.0382 0.20426,-0.0572 0.0279,-0.11257 0.0561,-0.22504 0.0843,-0.33761 0.0857,0.062 0.17145,0.12418 0.25718,0.18659 -1.09644,1.57839 -2.19287,3.15708 -3.28966,4.73576 -0.11818,-0.0816 -0.236,-0.16302 -0.35418,-0.24444"
         style="fill:#3d6b68;fill-opacity:1;fill-rule:nonzero;stroke:none;stroke-width:0.0352778"
         id="path4225" />
      <path
         d="m 292.91365,171.21405 -0.0434,-0.0364 -0.52247,-2.87723 0.0356,-0.0513 0.0512,0.0353 0.52246,2.87733 -0.0356,0.0515 -0.008,7.1e-4"
         style="fill:#210b04;fill-opacity:1;fill-rule:nonzero;stroke:none;stroke-width:0.0352778"
         id="path4227" />
      <path
         d="m 297.2567,173.80227 -0.0434,-0.0356 -1.01142,-5.15165 0.0349,-0.0522 0.0519,0.035 1.01141,5.1515 -0.0346,0.0523 -0.009,6.7e-4"
         style="fill:#210b04;fill-opacity:1;fill-rule:nonzero;stroke:none;stroke-width:0.0352778"
         id="path4229" />
      <path
         d="m 300.44122,173.96035 -0.043,-0.0342 -1.27564,-5.49769 0.0332,-0.0529 0.0529,0.0332 1.27564,5.49769 -0.0332,0.0529 -0.01,9.9e-4"
         style="fill:#210b04;fill-opacity:1;fill-rule:nonzero;stroke:none;stroke-width:0.0352778"
         id="path4231" />
      <path
         d="m 299.66335,176.03511 c -1.27318,0.46207 -2.546,0.92424 -3.81917,1.38631 -0.4184,-0.90689 -0.83715,-1.81349 -1.25554,-2.72024 0.10195,-0.11038 1.29857,-1.36454 2.87479,-1.07131 0.65263,0.12128 1.11372,0.46027 1.36278,0.68047 0.27904,0.57507 0.55809,1.14999 0.83714,1.72477"
         style="fill:#ffffff;fill-opacity:1;fill-rule:nonzero;stroke:none;stroke-width:0.0352778"
         id="path4233" />
      <path
         d="m 290.26394,178.99939 c 0.10019,0.41632 0.242,1.18114 -0.0522,1.36042 -0.48437,0.29559 -1.83269,-1.19489 -1.91841,-1.29053 -0.0183,-0.0765 -0.20355,-0.8872 0.24412,-1.27275 0.11607,-0.0995 0.24271,-0.14429 0.33161,-0.17459 0.46179,-0.15738 0.87983,-0.0337 1.06363,0.0353 0.50835,-0.11688 1.0167,-0.23333 1.52506,-0.34964 0.14605,0.49142 0.0261,1.01025 -0.3168,1.34221 -0.33902,0.32921 -0.76553,0.34823 -0.877,0.3496"
         style="fill:#ffa9a9;fill-opacity:1;fill-rule:nonzero;stroke:none;stroke-width:0.0352778"
         id="path4235" />
      <path
         d="m 295.00703,174.68422 -0.0399,-0.0254 0.0215,-0.0586 2.21791,-1.04274 0.0586,0.0215 -0.0215,0.0586 -2.21791,1.0425 -0.0187,0.004"
         style="fill:#210b04;fill-opacity:1;fill-rule:nonzero;stroke:none;stroke-width:0.0352778"
         id="path4237" />
      <path
         d="m 296.29785,177.35167 -0.0402,-0.0258 0.0219,-0.0583 3.9236,-1.804 0.0582,0.0215 -0.0219,0.0582 -3.92359,1.80439 -0.018,0.004"
         style="fill:#210b04;fill-opacity:1;fill-rule:nonzero;stroke:none;stroke-width:0.0352778"
         id="path4239" />
      <path
         d="m 300.44122,174.94562 -0.0437,-0.0486 0.0593,-0.59091 0.048,-0.0395 0.0395,0.0484 -0.0593,0.59133 -0.0437,0.0394"
         style="fill:#210b04;fill-opacity:1;fill-rule:nonzero;stroke:none;stroke-width:0.0352778"
         id="path4241" />
      <path
         d="m 289.99794,180.26417 -0.0392,-0.0237 -0.68015,-1.30761 0.019,-0.0597 0.0596,0.019 0.6798,1.30779 -0.0187,0.0597 -0.0205,0.005"
         style="fill:#210b04;fill-opacity:1;fill-rule:nonzero;stroke:none;stroke-width:0.0352778"
         id="path4243" />
      <path
         d="m 289.29168,179.82638 -0.0392,-0.024 -0.36618,-0.72609 0.019,-0.0593 0.0593,0.0194 0.36618,0.7257 -0.0191,0.0592 -0.0201,0.005"
         style="fill:#210b04;fill-opacity:1;fill-rule:nonzero;stroke:none;stroke-width:0.0352778"
         id="path4245" />
      <path
         d="m 281.08113,176.6584 v 6.35317 h -0.30974 c -1.19697,-1.97513 -4.10139,-2.41046 -5.13115,-4.56985 -0.25929,-0.53551 -0.37642,-1.13841 -0.38488,-1.78332 h 5.82577"
         style="fill:#91b7b6;fill-opacity:1;fill-rule:nonzero;stroke:none;stroke-width:0.0352778"
         id="path4247" />
      <path
         d="m 284.92288,185.80734 c -0.11712,0.1761 -0.25929,0.34325 -0.42686,0.48549 -0.79481,0.69494 -2.09233,1.19722 -2.77883,0.73695 -0.67769,-0.46895 -0.25083,-1.57385 -0.49389,-2.83778 -0.0836,-0.45187 -0.24271,-0.83718 -0.45191,-1.18043 -0.34325,-0.56899 -0.82867,-1.00404 -1.37301,-1.3976 l 2.91324,-1.36468 2.61126,5.55805"
         style="fill:#ffa300;fill-opacity:1;fill-rule:nonzero;stroke:none;stroke-width:0.0352778"
         id="path4249" />
      <path
         d="m 281.73377,179.15335 v 4.53637 h -0.64453 c -0.0836,-0.24243 -0.19226,-0.46856 -0.31785,-0.67815 -0.34325,-0.56899 -0.82867,-1.00404 -1.37301,-1.3976 -0.91228,-0.66146 -1.98367,-1.18015 -2.80388,-1.92514 v -0.53548 h 5.13927"
         style="fill:#ffffff;fill-opacity:1;fill-rule:nonzero;stroke:none;stroke-width:0.0352778"
         id="path4251" />
      <path
         d="m 283.91252,172.46034 c 0,0.21209 -0.4519,0.3835 -1.00929,0.3835 -0.55739,0 -1.00965,-0.17141 -1.00965,-0.3835 0,-0.21167 0.45226,-0.38379 1.00965,-0.38379 0.55739,0 1.00929,0.17212 1.00929,0.38379"
         style="fill:#ffa9a9;fill-opacity:1;fill-rule:nonzero;stroke:none;stroke-width:0.0352778"
         id="path4253" />
    </g>
  </g>
</svg>
